<svg xmlns="http://www.w3.org/2000/svg" viewBox="0 0 233.37 87.8"><defs><style>.cls-1{fill:#d2ffed;}.cls-2{fill:#fff;}</style></defs><title>Asset 9</title><g id="Layer_2" data-name="Layer 2"><g id="About_page" data-name="About page"><path class="cls-1" d="M98,2.77C62.91,1.53,58.69,15.53,36.82,18.22,15,21.56,8.61,31.88,11,37.48c3,12-20.66,15.54-6.31,31,2.43,6.25,33.78,6.38,34.57,14.9,12,10.53,66.2-1.66,86.78,1.59,22.35,2.44,55.12-1.92,63.53-10.48,8.05-12.41,39.42-12.11,30.73-26.19C219.5,40,234.2,39.5,233.33,30.27c1.23-6.59-26.72-9.81-39.19-24.83C176.38-7.15,133.42,6.59,98,2.77Z"/><path class="cls-2" d="M190.69,59c-.1-.1-.56.18-.37.37S190.89,59.22,190.69,59Z"/><path class="cls-2" d="M226.45,29.18c0-.21-.3-.42-.37,0C226.07,29.39,226.38,29.6,226.45,29.18Z"/><path class="cls-2" d="M184.74,31.79c0-.21-.3-.42-.37,0C184.36,32,184.66,32.22,184.74,31.79Z"/><path class="cls-2" d="M187.34,65.75c-.7.08-.82-.42-1.49-.37-.21,1.05-1.29,3.15-.37,4.1C187.36,68.79,187.82,68.15,187.34,65.75Z"/><path class="cls-2" d="M226.82,33.28c-.29.08-.73,0-.75.37C226.37,33.57,226.81,33.65,226.82,33.28Z"/><path class="cls-2" d="M201.49,62c.56.59,2.12.55,1.86-.75C202.43,61.21,201.55,61.2,201.49,62Z"/><path class="cls-2" d="M199.26,51.19c0,.21.3.42.37,0C199.64,51,199.33,50.77,199.26,51.19Z"/><path class="cls-2" d="M227.94,35.9c-.1-.1-.56.18-.37.37S228.13,36.09,227.94,35.9Z"/><path class="cls-2" d="M211.92,51.57c-.29.08-.73,0-.74.37C211.47,51.86,211.91,51.93,211.92,51.57Z"/><path class="cls-2" d="M198.52,15c-.66.09-1.87-.38-1.49.75C197.87,15.85,198.43,15.66,198.52,15Z"/><path class="cls-2" d="M176.54,39.63c-.1-.1-.57.18-.37.37S176.73,39.82,176.54,39.63Z"/><path class="cls-2" d="M179.15,72.46c-.12.75.42.82.75,1.12s.62,1.09,1.49.75c.61-1.39-.7-.83-1.12-1.12S180.14,72,179.15,72.46Z"/><path class="cls-2" d="M181,6.79c-.9,1.25,1.25-.9,0,0Z"/><path class="cls-2" d="M175.8,10.52c-.05.44-.66.85,0,1.12C175.85,11.2,176.46,10.8,175.8,10.52Z"/><path class="cls-2" d="M178,71.34v.75c.66-.09,1.87.38,1.49-.75Z"/><path class="cls-2" d="M179.15,76.94c.1.1.57-.18.37-.37S179,76.75,179.15,76.94Z"/><path class="cls-2" d="M177.66,22.09c-.11.23-.93,1.44,0,1.49C177.77,23.35,178.59,22.15,177.66,22.09Z"/><path class="cls-2" d="M177.66,61.64c0,.21.3.42.37,0C178,61.43,177.73,61.22,177.66,61.64Z"/><path class="cls-2" d="M182.13,69.85c-.1-.1-.57.18-.37.37S182.32,70,182.13,69.85Z"/><path class="cls-2" d="M195.16,51.19a.38.38,0,0,0-.75,0C194.84,51.16,195,51.74,195.16,51.19Z"/><path class="cls-2" d="M94.23,47.46v.75h1.12C95.4,47.54,95,47.34,94.23,47.46Z"/><path class="cls-2" d="M92,53.06V51.19H90.88C90.15,51.91,90.49,53.48,92,53.06Z"/><path class="cls-2" d="M93.86,21c0,.23-.06.44-.37.37v.75C94.4,22.67,94.58,20.82,93.86,21Z"/><path class="cls-2" d="M90.88,13.51c0-.21-.3-.42-.37,0C90.5,13.72,90.81,13.93,90.88,13.51Z"/><path class="cls-2" d="M92.74,80.3c.1.1.57-.18.37-.37S92.55,80.11,92.74,80.3Z"/><path class="cls-2" d="M82.31,6c-.29.08-.73,0-.75.37C81.86,6.34,82.3,6.41,82.31,6Z"/><path class="cls-2" d="M81.2,86.27h1.49c.1-1-.14-1.61-1.12-1.49C81.45,85.28,81,85.49,81.2,86.27Z"/><path class="cls-2" d="M89.76,21v-.75H89V21Z"/><path class="cls-2" d="M88.27,19.48c-.29.08-.73,0-.75.37C87.82,19.77,88.26,19.84,88.27,19.48Z"/><path class="cls-2" d="M113.23,59c-.9,1.25,1.25-.9,0,0Z"/><path class="cls-2" d="M174.31,71.72c-.1-.1-.57.18-.37.37S174.5,71.91,174.31,71.72Z"/><path class="cls-2" d="M188,2.4l-.75-.24C187.06,2.47,187.34,3.14,188,2.4Z"/><path class="cls-2" d="M216.77,59.38l.28-.16C217,59.13,216.83,59.13,216.77,59.38Z"/><path class="cls-2" d="M195.91,50.08c0,.21.3.42.37,0C196.28,49.87,196,49.65,195.91,50.08Z"/><path class="cls-2" d="M111.36,74.33c.29.08.74,0,.75.37,1.52-.1,1.74-1.5,2.24-2.61A2.05,2.05,0,0,0,111.36,74.33Z"/><path class="cls-2" d="M196.65,40c1.25,1.13,1.13-1.38,0,0Z"/><path class="cls-2" d="M101.31,50.82c.1.1.56-.18.37-.37S101.12,50.63,101.31,50.82Z"/><path class="cls-2" d="M115.09,56c.1.1.56-.18.37-.37S114.9,55.85,115.09,56Z"/><path class="cls-2" d="M116.21,72.09c.1.1.57-.18.37-.37S116,71.9,116.21,72.09Z"/><path class="cls-2" d="M154.19,28.06c-.1,0-.27,0-.37,0-.46.12-.13.62.37.37C154.47,28.29,154.76,27.78,154.19,28.06Z"/><path class="cls-2" d="M130.36,50.45c1.25,1.13,1.13-1.38,0,0Z"/><path class="cls-2" d="M134.83,68.36v.75h.75v-.75Z"/><path class="cls-2" d="M133,85.52h0l.63,0A.5.5,0,0,0,133,85.52Z"/><path class="cls-2" d="M131.1,61.27c.08.45.41.23.74,0A.38.38,0,0,0,131.1,61.27Z"/><path class="cls-2" d="M140.79,52.69v.75h.74v-.75Z"/><path class="cls-2" d="M139.3,38.51c-.1-.1-.56.18-.37.37S139.49,38.7,139.3,38.51Z"/><path class="cls-2" d="M144.51,27.31c.29-.08.73,0,.75-.37C145,27,144.52,27,144.51,27.31Z"/><path class="cls-2" d="M133.34,19.85c-.1-.1-.56.18-.37.37S133.53,20,133.34,19.85Z"/><path class="cls-2" d="M172.82,13.14c-.1-.1-.56.18-.37.37S173,13.33,172.82,13.14Z"/><path class="cls-2" d="M132.22,14.63c-.09.22.15.79.37.75S132.78,13.31,132.22,14.63Z"/><path class="cls-2" d="M124.77,62.39a.38.38,0,0,0-.75,0C124.45,62.35,124.61,62.93,124.77,62.39Z"/><path class="cls-2" d="M123.28,65v.75H124V65Z"/><path class="cls-2" d="M121,84a1.29,1.29,0,0,0,.08.51l.54,0A1,1,0,0,0,121,84Z"/><path class="cls-2" d="M126.26,80.3c.29-.08.73,0,.75-.37C126.72,80,126.27,79.94,126.26,80.3Z"/><path class="cls-2" d="M129.61,76.57c0-.21-.3-.42-.37,0C129.24,76.77,129.54,77,129.61,76.57Z"/><path class="cls-2" d="M147.12,58.28c-.16.59-1.17.32-.74,1.49C147.32,60.17,148,58.52,147.12,58.28Z"/><path class="cls-2" d="M132.59,37.76c.16-.71,1.06-.68.74-1.87-.71-.08-.82.42-1.49.37C131.74,37.12,131.94,37.67,132.59,37.76Z"/><path class="cls-2" d="M128.5,84.4c-.42,0-.58-.54-.74,0A.38.38,0,0,0,128.5,84.4Z"/><path class="cls-2" d="M128.87,9h-.74c0,.48-.48.52-.37,1.12h.74C128.52,9.67,129,9.63,128.87,9Z"/><path class="cls-2" d="M140,18c0-.21-.3-.42-.37,0C139.67,18.19,140,18.41,140,18Z"/><path class="cls-2" d="M161.27,20.6c-.9,1.25,1.25-.9,0,0Z"/><path class="cls-2" d="M163.51,28.43c-.06-1,.57-1.28,1.12-.75-.06-.44.06-1.06-.37-1.12C163.94,26.92,162.28,27.77,163.51,28.43Z"/><path class="cls-2" d="M157.17,25.45h.74c0-.48.48-.52.37-1.12h-.75C157.53,24.81,157.07,24.85,157.17,25.45Z"/><path class="cls-2" d="M148.24,60.52c-.29.08-.74,0-.75.37C147.78,60.81,148.23,60.89,148.24,60.52Z"/><path class="cls-2" d="M163.88,24.7c-.1-.1-.56.18-.37.37S164.07,24.9,163.88,24.7Z"/><path class="cls-2" d="M168.72,13.51c.29-.08.73,0,.75-.37C169.18,13.22,168.73,13.15,168.72,13.51Z"/><path class="cls-2" d="M172.07,19.48c0-.21-.3-.42-.37,0C171.7,19.69,172,19.9,172.07,19.48Z"/><path class="cls-2" d="M165.37,42.61c.1.1.56-.18.37-.37S165.18,42.42,165.37,42.61Z"/><path class="cls-2" d="M166.11,27.31c-.1-.1-.57.18-.37.37S166.31,27.51,166.11,27.31Z"/><path class="cls-2" d="M159.41,74.7V73.58h-1.12Q158.19,74.8,159.41,74.7Z"/><path class="cls-2" d="M153.08,27.31c-.29.08-.74,0-.75.37C152.62,27.6,153.07,27.68,153.08,27.31Z"/><path class="cls-2" d="M151.59,31.79a.38.38,0,0,0,.74,0C151.91,31.83,151.75,31.25,151.59,31.79Z"/><path class="cls-2" d="M152.7,58.28a1,1,0,0,0-.74-1.12C151.43,57.71,151.41,58.61,152.7,58.28Z"/><path class="cls-2" d="M146.37,81c-.3,2.26,1.71.25,0,0Z"/><path class="cls-2" d="M158.29,15.37c.08.45.41.23.75,0A.38.38,0,0,0,158.29,15.37Z"/><path class="cls-2" d="M153.45,19.48V20.6C154.53,21.15,154.53,18.93,153.45,19.48Z"/><path class="cls-2" d="M160.15,41.87c0-.67-.37-.87-1.12-.75v.75Z"/><path class="cls-2" d="M80.45,41.49h-.75v.75h.75Z"/><path class="cls-2" d="M154.19,60.15c0,.21.3.42.37,0C154.57,59.94,154.27,59.73,154.19,60.15Z"/><path class="cls-2" d="M148.24,15c.29-.08.73,0,.74-.37C148.69,14.71,148.25,14.64,148.24,15Z"/><path class="cls-2" d="M47.68,62.39c.48,0,.52.48,1.12.37A1,1,0,0,0,48,61.64C48.05,62,47.75,62.09,47.68,62.39Z"/><path class="cls-2" d="M47.3,67.24a.38.38,0,0,0-.74,0C47,67.2,47.14,67.78,47.3,67.24Z"/><path class="cls-2" d="M48.42,71.72H46.56a1.77,1.77,0,0,1-.37,1.12A6.94,6.94,0,0,0,48.42,71.72Z"/><path class="cls-2" d="M47.68,26.94c.1.1.57-.18.37-.37S47.48,26.75,47.68,26.94Z"/><path class="cls-2" d="M46.93,69.1c.29-.08.73,0,.74-.37C47.39,68.81,46.94,68.74,46.93,69.1Z"/><path class="cls-2" d="M17.88,69.1c0-.21-.3-.42-.37,0C17.51,69.31,17.81,69.53,17.88,69.1Z"/><path class="cls-2" d="M10.43,59c.29-.08.73,0,.74-.37C10.89,58.74,10.44,58.67,10.43,59Z"/><path class="cls-2" d="M8.57,59c1.25,1.13,1.13-1.38,0,0Z"/><path class="cls-2" d="M8.57,71c-.22.06-.52,0-.67.17l.31.13C8.4,71.24,8.56,71.19,8.57,71Z"/><path class="cls-2" d="M30.54,76.57c-.46-.45-1.24-.48-1.44.19l1.17.35A.79.79,0,0,0,30.54,76.57Z"/><path class="cls-2" d="M46.19,53.43V55.3c1.16.17,1.19-.8,1.12-1.87Z"/><path class="cls-2" d="M4.1,58.66A3.72,3.72,0,0,0,3,56.42C3,57.55,2.77,58.87,4.1,58.66Z"/><path class="cls-2" d="M48,25.45c-.9,1.25,1.25-.9,0,0Z"/><path class="cls-2" d="M6.33,57.54c-.1-.1-.57.18-.37.37S6.53,57.73,6.33,57.54Z"/><path class="cls-2" d="M0,59.14A2,2,0,0,1,.37,59c1,0,1.75,1.57,2.24,0-.28-.6-1.82.09-1.49-1.12-.71-.17-.82.26-1.07.55Q0,58.79,0,59.14Z"/><path class="cls-2" d="M7.45,58.66c.1.1.56-.18.37-.37S7.26,58.46,7.45,58.66Z"/><path class="cls-2" d="M60,50.08c0-.21-.3-.42-.37,0C59.59,50.28,59.9,50.5,60,50.08Z"/><path class="cls-2" d="M52.15,66.12c.1.1.56-.18.37-.37S52,65.93,52.15,66.12Z"/><path class="cls-2" d="M47.68,74c.76.21.73,1.12,1.49.37C49.27,73.24,47.72,72.9,47.68,74Z"/><path class="cls-2" d="M1.49,56.79v1.12H2.61Q2.71,56.69,1.49,56.79Z"/><path class="cls-2" d="M7.45,62c-.1.22.15.79.37.75S8,60.7,7.45,62Z"/><path class="cls-2" d="M25.7,32.54c.92-2.32-1.17-1.23,0,0Z"/><path class="cls-2" d="M38.37,26.94c-.9,1.25,1.25-.9,0,0Z"/><path class="cls-2" d="M36.13,24.7c.1.1.56-.18.37-.37S35.94,24.51,36.13,24.7Z"/><path class="cls-2" d="M65.55,53.81c1.25,1.13,1.13-1.38,0,0Z"/><path class="cls-2" d="M29.8,31H28.68v1.12h.74C29.45,31.69,29.9,31.65,29.8,31Z"/><path class="cls-2" d="M17.88,63.88c.37,0,.44.3.74.37C19.64,63.65,18.08,63,17.88,63.88Z"/><path class="cls-2" d="M67.12,87.67l.76,0a3.08,3.08,0,0,0-.47-.63A1.2,1.2,0,0,0,67.12,87.67Z"/><path class="cls-2" d="M62.95,54.93c.29-.08.73,0,.75-.37C63.4,54.64,63,54.56,62.95,54.93Z"/><path class="cls-2" d="M11.51,31.25a1,1,0,0,1,0,.17c.13.94-.93,1.66,0,2.24-.34.09-.64.15-.93.2A7.36,7.36,0,0,0,10.52,35a2.25,2.25,0,0,1,.29-.27c1.57,0,2.67.56,3,1.87a5.11,5.11,0,0,0-1.12,1.87,4.26,4.26,0,0,1-1.49.12,8.07,8.07,0,0,1-.11,2.51c.87.21,1.83-.26,3.09-.39,0,.59,0,1.29.75,1.12.73-.78.28-2.48,0-3.36.72,1,.69-.74,1.49-.75a4.66,4.66,0,0,0,.37.75c1.11.56,2.21-.14,2.23,1.12,0,1.54-.65,2.34-.37,4.1,1.23.13,1.62,1.12,2.24,1.87,1.67-.26,2.5.37,3.72,0,1-.31,1.4-1.67,2.23-1.87,0,0,.59.8,1.12.75.16,0,.77-.77,1.12-.75.54,0,.63.65,1.12.75.84-1,3-.7,4.84-.75.08-.75.63-.84,1.12-1.49.34-.45.7-1.54,1.12-1.87s1.16,0,1.49-.37-.21-1.21.37-1.12c.93.06,1.15-.59,1.86-.75.28-1.28-1.51-.47-1.12-1.87,1.11-2-.25-4.37-.74-6,.21-.91,1.44-.8,1.12-2.24-.76-.2-.7.62-1.12.75-.63.2-1.46-.5-2.24,0v-3c-2.57.45-.92-1.62-1.12-3a5.77,5.77,0,0,0-3-.75c-1.09,1.73-3.21-.33-4.47-.75-.49.38-1.37.37-1.86.75.64,1-.43,1.31.37,1.87,0-.46.11-.88.75-.75.9.47,1.2,1.53,1.49,2.61.49.38,1.37.37,1.86.75.24,2.12,2.32,2.4,3.35,3.73-.54.32-1.18.56-1.12,1.49.78.91.53.8.37,2.24-1.24,0-5.54,1.67-6.71-.37,1.14-.11,1.45,1.2,2.24.37.41-1.53-2.28.05-1.49-1.87-1.33,0-1.09,1.64-1.86,2.24-2.84.23-3.21-2-5.59-2.24-.14-1.88,2.82-.65,3-2.24-.83-.16-.15-1.84-.37-2.61-1.07-.84-2.72-.27-3.35-.75.69-.21,1.86-1.83.75-2.61-.37,1-1.52,1.16-2.67,1A17.36,17.36,0,0,0,11.51,31.25Z"/><path class="cls-2" d="M25.7,28.06c-.1-.1-.56.18-.37.37S25.89,28.25,25.7,28.06Z"/><path class="cls-2" d="M18.62,52.69a1,1,0,0,0,1.12-.75C19.16,52,18.45,51.89,18.62,52.69Z"/><path class="cls-2" d="M17.88,44.85v1.49C19.77,46.33,19.27,45.16,17.88,44.85Z"/><path class="cls-2" d="M16.76,49.7c1,.06.93-1.06,1.49-1.49C17.2,48.15,17.32,49.26,16.76,49.7Z"/><path class="cls-2" d="M18.62,47.09c-.28,1.31,1,1.67,1.49,1.12C20.23,47.23,19.6,47,18.62,47.09Z"/><path class="cls-2" d="M64.06,71c0,.21.3.42.37,0C64.44,70.76,64.14,70.55,64.06,71Z"/><path class="cls-2" d="M63.32,63.51c.1.1.57-.18.37-.37S63.13,63.32,63.32,63.51Z"/><path class="cls-2" d="M65.18,56.42a1.4,1.4,0,0,0-1.49,1.49C64.86,58.09,64.74,57,65.18,56.42Z"/><path class="cls-2" d="M16,47.46h1.49V45.6H16.39A2.44,2.44,0,0,0,16,47.46Z"/><path class="cls-2" d="M15.27,43.73v1.12C16.36,45.4,16.36,43.18,15.27,43.73Z"/><path class="cls-2" d="M26.82,55.67h.75v-.75h-.75Z"/><path class="cls-2" d="M24.21,69.85c2.31,1.33,4.2,3.89,6.33,4.85.13.06.22.66.37.75s.83-.14,1.12,0,.21.66.37.75a6,6,0,0,0,3.35.75c-.18.73,1.71,1.2,1.86.37-1.88-.85-1.25-4.22-2.61-5.6-.31,1.05.52,1,.37,1.87-1.23,0-1.85.63-3.35.37.21-1.45-1-2.47-1.49-3.73s-.21-3.13-1.49-4.1c.81-.05.8-.94.75-1.87-1,0-2.13-.14-2.61.37-.69.8-.76,2.23-2.23,2.24.08-.47.58-.76-.37-.75C24.71,67.61,23.92,68.19,24.21,69.85Z"/><path class="cls-2" d="M22,70.22c-.1-.1-.57.18-.37.37S22.17,70.42,22,70.22Z"/><path class="cls-2" d="M58.1,43c-.39,2.17,1.61.16,0,0Z"/><path class="cls-2" d="M1.12,56.79c.52-.23.06-1.44.75-1.49,2.31-.7,1.82,1.41,3.35,1.49.51-.85-1-1.4,0-1.49,1,.72,3.47,0,3.35,1.87-.45,0-.88.11-.75.75,1.39,0,1.06.42,2.23,0,.15-.9-.68-.81-.37-1.87,1,.57,3.1-.22,2.24,1.49.66.7,1.15-.51,1.49.75.2.54-1.45.91-.37,1.12.66-1.2,1.57-.31,2.24.37.08,1.17-.25,2.74.37,3.36-1.14-.37-2,1.4-1.49,1.49.08-.29.31-.43.75-.37-.5,1.4,1.72,2,2.24,1.12-1,.11-1-.78-1.12-1.49.4-1.59,2.46-1.52,3.35-2.61-1.18-.19-1.52-1.21-1.86-2.24.76-.11.73-1,1.49-1.12-.12-2.49-1.48-4-.74-5.6C17,51.59,15.44,51.15,15.65,49c-1.4-.28-.81,1.43-1.86,1.49-.25-1.39-1.24.28-1.49-1.12A2.64,2.64,0,0,1,13,48.21c.7,0,.26,1.23,1.12,1.12,1.3-1.26-1.41-1.8-1.49-1.87-.24-.21-.12-.89-.37-1.12-.67-.61-1.4-.15-1.86-.75V44.48a5.88,5.88,0,0,0-.63-.14C7.22,48.65,1.94,52.1.42,56.71Z"/><path class="cls-2" d="M27.57,58.66c-.2-2.09,1.25-.21,2.23-1.12.05,1.07,1.55.68,2.61.75a4.16,4.16,0,0,0,.75-3c.49-.37,1.39-.35,1.49-1.12-1.89-.08-3.47-.15-6-.37-.76.6-.86,1.87-.74,3.36C26.9,56.57,26.91,58.78,27.57,58.66Z"/><path class="cls-2" d="M26.07,59.78c.49,0,.34.65.74.75,0-.74,1-.47.75-1.49A1.64,1.64,0,0,0,26.07,59.78Z"/><path class="cls-2" d="M10.43,43.36c.1.1.56-.18.37-.37S10.24,43.17,10.43,43.36Z"/><path class="cls-2" d="M79.71,82.91c.1.1.57-.18.37-.37S79.51,82.72,79.71,82.91Z"/><path class="cls-2" d="M30.54,63.88c.29-.08.73,0,.74-.37C31,63.59,30.55,63.52,30.54,63.88Z"/><path class="cls-2" d="M68.16,62c-.1-.1-.56.18-.37.37S68.35,62.21,68.16,62Z"/><path class="cls-2" d="M74.87,43.73c0,.88.64,1.1.37,2.24C77.27,46,75.55,44.21,74.87,43.73Z"/><path class="cls-2" d="M79.33,39.25c-1.25-1.13-1.13,1.38,0,0Z"/><path class="cls-2" d="M78.22,15.37c.1,1.47-1.59,1.14-1.49,2.61.71.08.82-.42,1.49-.37C77.82,16.21,79.83,15.91,78.22,15.37Z"/><path class="cls-2" d="M72.63,37.76V37h-.75v.75Z"/><path class="cls-2" d="M68.16,24.7V24C67.47,22.72,66.35,25.08,68.16,24.7Z"/><path class="cls-2" d="M26.45,62c0-.21-.3-.42-.37,0C26.07,62.22,26.38,62.44,26.45,62Z"/><path class="cls-2" d="M68.53,87c-.9,1.25,1.25-.9,0,0Z"/><path class="cls-2" d="M69.65,61.27H68.53v1.12h.75C69.3,61.91,69.75,61.87,69.65,61.27Z"/><path class="cls-2" d="M71.88,65.37c-.29.08-.73,0-.75.37C71.43,65.66,71.87,65.74,71.88,65.37Z"/><path class="cls-2" d="M19.37,70.6c.64.09,2.21-.7,1.12-1.12C20.64,70.37,18.79,69.27,19.37,70.6Z"/><path class="cls-2" d="M42.83,63.88c.1.1.57-.18.37-.37S42.64,63.69,42.83,63.88Z"/><path class="cls-2" d="M53.26,86.64c-1.05.31-1-.53-1.86-.37a8.94,8.94,0,0,0-.74,1q1.43.17,3,.28A2.13,2.13,0,0,0,53.26,86.64Z"/><path class="cls-2" d="M51.77,66.12c.1-.51-.23-1.46-.37-.75C51.3,65.88,51.63,66.83,51.77,66.12Z"/><path class="cls-2" d="M49.54,61.27c1.42.56,2.72-2.16,1.12-2.24C51.16,60.66,49.21,59.82,49.54,61.27Z"/><path class="cls-2" d="M52.15,67.61c.15,1,1.16,1.08,1.86,1.49C54.22,67.72,53,66.8,52.15,67.61Z"/><path class="cls-2" d="M55.87,68.36h.75v-.75h-.75Z"/><path class="cls-2" d="M56.62,20.23h-.75V21h.75Z"/><path class="cls-2" d="M35.39,56c-.11.85.09,1.4.74,1.49C36,56.88,36.51,55.67,35.39,56Z"/><path class="cls-2" d="M53.64,64.63c-.1-.1-.57.18-.37.37S53.83,64.82,53.64,64.63Z"/><path class="cls-2" d="M54.75,67.24V68h.74v-.75Z"/><path class="cls-2" d="M41.34,50.82c-.1-.1-.56.18-.37.37S41.54,51,41.34,50.82Z"/><path class="cls-2" d="M41,68.36c.48-.5.49-1.39-.37-1.49C40.66,67.42,40.47,68.24,41,68.36Z"/><path class="cls-2" d="M38,78.06c1,.65,3.08.15,3.35,1.49-.28,1.47,0,2.71-.74,3.73,2-.17,1.87,1.5,2.61,2.24.11.11.59-.07.75,0a2.11,2.11,0,0,1,.72.6q.88.26,1.84.47c.31-.07.52-.23.42-.7-.1-.77-1.65-.09-1.49-1.12-.94-3.05-.5-6.19-2.24-9,.29-.08.74,0,.75-.37-1.39-.67-2.2.87-4.47.37C39.43,77,38.11,76.93,38,78.06Z"/><path class="cls-2" d="M39.85,65c.23.21,1.77.87,1.86,0C41.49,64.79,39.95,64.13,39.85,65Z"/><path class="cls-2" d="M43.21,53.43c0,1.27,1.09,1.39,1.86,1.87.69-.73-.33-1.87-1.12-2.24C43.87,53.35,43.64,53.49,43.21,53.43Z"/><path class="cls-2" d="M44,40.37c.1.1.56-.18.37-.37S43.76,40.18,44,40.37Z"/><path class="cls-2" d="M45.07,50.45A1.64,1.64,0,0,0,44.32,49C44.41,49.62,43.95,50.82,45.07,50.45Z"/><path class="cls-2" d="M43.21,51.57c.1.1.57-.18.37-.37S43,51.37,43.21,51.57Z"/><path class="cls-2" d="M44.32,31.42c.08.45.41.23.74,0A.38.38,0,0,0,44.32,31.42Z"/></g></g></svg>