<svg xmlns="http://www.w3.org/2000/svg" viewBox="0 0 221.93 467"><defs><style>.cls-1{fill:#b26b5d;}.cls-2{fill:#fff;}</style></defs><title>left-blob-red</title><g id="Layer_2" data-name="Layer 2"><g id="Landing_page_inactive" data-name="Landing page inactive"><path class="cls-1" d="M0,442.75c15.37,2.17,30.71,7,45.14,18.21,59.9,29.63,69.36-59.25,107.19-63.49,37.83-8.46,50.44-72,47.29-110-3.15-80.42,37.83-88.88,15.76-198.93C212.86,54.71,178.17,35.12,164.3,0H0Z"/><path class="cls-2" d="M110.5,334.92c.11-.09-.13-.58-.34-.4S110.29,335.09,110.5,334.92Z"/><path class="cls-2" d="M116.21,155.56l-.74-.07-.07.74.74.07Z"/><path class="cls-2" d="M116.3,55c-.21,0-.45.26,0,.37C116.48,55.36,116.72,55.08,116.3,55Z"/><path class="cls-2" d="M116,174.61c.11-.09-.13-.58-.34-.4S115.78,174.79,116,174.61Z"/><path class="cls-2" d="M109.11,371.07c-1.73-.39-2.15-1.87-3.51-2.56.08,1.19-.79,1.25-.61,2.56,1.28.53,1.72,1.77,4,1.48Z"/><path class="cls-2" d="M108.48,386.34c.2-1-.4-1.26-1.39-1.25C106.89,386.06,107.78,386.12,108.48,386.34Z"/><path class="cls-2" d="M110.74,162.17l-.74-.07-.07.74.74.07Z"/><path class="cls-2" d="M110.37,294.89c.11-.09-.13-.58-.34-.4S110.16,295.07,110.37,294.89Z"/><path class="cls-2" d="M113.61,109.7c-.54.25-.1.37.37,0S114.09,109.48,113.61,109.7Z"/><path class="cls-2" d="M112.62,137.29c-.67,0-1.83-.54-1.55.61C111.9,138.07,112.47,137.93,112.62,137.29Z"/><path class="cls-2" d="M111.52,294.62c-.11.09.13.58.34.4S111.73,294.45,111.52,294.62Z"/><path class="cls-2" d="M113,402.83c-1.17-1,.79,1.32,0,0Z"/><path class="cls-2" d="M112.84,27c.11-.09-.13-.58-.34-.4S112.63,27.16,112.84,27Z"/><path class="cls-2" d="M109.61,42c-.06-.29.06-.73-.3-.78C109.36,41.55,109.25,42,109.61,42Z"/><path class="cls-2" d="M115,289.33c.21,0,.45-.26,0-.37C114.82,288.94,114.58,289.22,115,289.33Z"/><path class="cls-2" d="M114.79,9.59,114,9.52l-.07.74.74.07Z"/><path class="cls-2" d="M103.54,329.05c.06-.47.52-.47.47-1.08C103.15,327.32,102.8,329.14,103.54,329.05Z"/><path class="cls-2" d="M115.91,158.9l-.74-.07-.07.74.74.07Z"/><path class="cls-2" d="M103.38,123.36c-.38-.09-1,.2-.41.34C103.36,123.79,104,123.5,103.38,123.36Z"/><path class="cls-2" d="M105.67,425.73c-2.12-.59-.3,1.59,0,0Z"/><path class="cls-2" d="M108.26,44.52c0,.42-.59.53-.07.74A.38.38,0,0,0,108.26,44.52Z"/><path class="cls-2" d="M104.87,210.63c-.21,0-.45.26,0,.37C105,211,105.28,210.74,104.87,210.63Z"/><path class="cls-2" d="M108.26,322.38c-.11.09.13.58.34.41S108.47,322.2,108.26,322.38Z"/><path class="cls-2" d="M105.4,242.09c.21,0,.45-.26,0-.37C105.22,241.7,105,242,105.4,242.09Z"/><path class="cls-2" d="M106.38,115l.74.07.07-.74-.74-.07Z"/><path class="cls-2" d="M103.75,438.64c-.06-.3.06-.73-.3-.78C103.5,438.16,103.39,438.6,103.75,438.64Z"/><path class="cls-2" d="M107.35,369.79l.74.07.07-.74-.74-.07Z"/><path class="cls-2" d="M106.58,59a1,1,0,0,0,1.18-.64A1,1,0,0,0,106.58,59Z"/><path class="cls-2" d="M109.33,260.77l.07-.74c-.37,0-.42-.34-.71-.44C108.67,260.18,108.52,260.87,109.33,260.77Z"/><path class="cls-2" d="M103.51,22.41c-.21,0-.45.26,0,.37C103.68,22.8,103.93,22.52,103.51,22.41Z"/><path class="cls-2" d="M101.88,189.79c-1.79-1.18-1.5,1.17,0,0Z"/><path class="cls-2" d="M103.68,161.53c.11-.09-.13-.58-.34-.41S103.47,161.71,103.68,161.53Z"/><path class="cls-2" d="M104.23,80.81a1.91,1.91,0,0,0-2.67.51A3.35,3.35,0,0,0,104.23,80.81Z"/><path class="cls-2" d="M103.81,193.33a1,1,0,0,0-1.18.64A1,1,0,0,0,103.81,193.33Z"/><path class="cls-2" d="M105.42,221.15l-1.86-.17c-.37,1.22.5,1.41,1.35,1.62C105.07,222.11,105.5,221.94,105.42,221.15Z"/><path class="cls-2" d="M112.49,196.73l.74.07C114.53,196.23,112.28,194.89,112.49,196.73Z"/><path class="cls-2" d="M102.77,437.06c.11-.09-.13-.58-.34-.41S102.56,437.23,102.77,437.06Z"/><path class="cls-2" d="M113.32,179.23c-.21,0-.45.26,0,.37C113.5,179.62,113.74,179.34,113.32,179.23Z"/><path class="cls-2" d="M128.38,116.27c.8.14,1.21-.2,1.21-1l-1.11-.1Z"/><path class="cls-2" d="M126.42,30.09a1,1,0,0,0,1.18-.64A1,1,0,0,0,126.42,30.09Z"/><path class="cls-2" d="M130.29,3.88a1.65,1.65,0,0,0,1.55-.61C131.17,3.3,130,2.73,130.29,3.88Z"/><path class="cls-2" d="M128.18,126.72c0,.22-.1.44-.41.34l-.07.74C128.57,128.46,128.92,126.64,128.18,126.72Z"/><path class="cls-2" d="M129.79,59.18c.38.09,1-.2.41-.34C129.81,58.76,129.21,59,129.79,59.18Z"/><path class="cls-2" d="M131.37,137.11c-.21,0-.45.26,0,.37C131.54,137.5,131.78,137.22,131.37,137.11Z"/><path class="cls-2" d="M131.74,149.49c-.22,0-.43-.1-.34-.4l-.74-.07C130,149.87,131.83,150.22,131.74,149.49Z"/><path class="cls-2" d="M129.48,373.66c-.43-.09-.78-.74-1.11-.1C128.8,373.65,129.15,374.29,129.48,373.66Z"/><path class="cls-2" d="M132.43,117c-2.19.08-3-.63-4.15.37C129.62,117.79,132.08,118.42,132.43,117Z"/><path class="cls-2" d="M130.37,247.71c.11-.09-.13-.58-.34-.4S130.16,247.88,130.37,247.71Z"/><path class="cls-2" d="M124.1,271.45l-.74-.07c0,.37-.34.42-.44.71C123.5,272.11,124.2,272.26,124.1,271.45Z"/><path class="cls-2" d="M124.89,63.6c-1.17-1,.79,1.33,0,0Z"/><path class="cls-2" d="M123.78,154.75c.06.29-.06.73.3.78C124,155.23,124.14,154.79,123.78,154.75Z"/><path class="cls-2" d="M123.18,314.75c.14-.8-.2-1.21-1-1.21,0-.88-.24-1.63-.95-2l-.17,1.85C122.33,313.41,121.49,315.13,123.18,314.75Z"/><path class="cls-2" d="M131.64,5.5c-1.17-1,.78,1.33,0,0Z"/><path class="cls-2" d="M131.25,26.41c.11-.09-.13-.58-.34-.4S131,26.58,131.25,26.41Z"/><path class="cls-2" d="M127.25,4.36c.87-.2,2.84.93,2.67-.51-.91-1-1.73-.06-2.26.17C127.81,4,127.09,3.43,127.25,4.36Z"/><path class="cls-2" d="M130.67,61.88c.84.18,1.41,0,1.55-.61C131.55,61.3,130.39,60.73,130.67,61.88Z"/><path class="cls-2" d="M117.62,11.34l-.74-.07-.07.74.74.07Z"/><path class="cls-2" d="M130.6,377.87c.31-.1.54-.94.1-1.11C129.86,376.43,129.76,378.13,130.6,377.87Z"/><path class="cls-2" d="M119.61,5.91c.06-.47.52-.47.47-1.08C119.22,4.17,118.88,6,119.61,5.91Z"/><path class="cls-2" d="M119.9,27.63c-.38-.09-1,.2-.41.34C119.88,28.05,120.48,27.76,119.9,27.63Z"/><path class="cls-2" d="M118.86,312.86c-.43-.09-.78-.74-1.11-.1C118.18,312.85,118.53,313.5,118.86,312.86Z"/><path class="cls-2" d="M119.91,313.71c-.06-.3.06-.73-.31-.78C119.66,313.23,119.55,313.66,119.91,313.71Z"/><path class="cls-2" d="M117.55,182.23c.11-.09-.13-.58-.34-.4S117.34,182.41,117.55,182.23Z"/><path class="cls-2" d="M116.68,382.6c-.11.09.13.58.34.4S116.89,382.42,116.68,382.6Z"/><path class="cls-2" d="M118.1,151.24c-1-1.11.91,1.22,0,0Z"/><path class="cls-2" d="M117.42,241.68c.21,0,.45-.26,0-.37C117.25,241.29,117,241.57,117.42,241.68Z"/><path class="cls-2" d="M120.49,4.49c-.11.09.13.58.34.4S120.7,4.32,120.49,4.49Z"/><path class="cls-2" d="M134.49,19.59c-.11-1.12,2.31-1.31,1.32-2.12a3.35,3.35,0,0,1-2.67.51C133,19,134.1,19,134.49,19.59Z"/><path class="cls-2" d="M133.24,21c-.57-.21-.21-1.19-1.42-.88C131.34,21,132.92,21.86,133.24,21Z"/><path class="cls-2" d="M134,16.19c-.21,0-.45.26,0,.37C134.22,16.58,134.46,16.3,134,16.19Z"/><path class="cls-2" d="M131.83,169.31c-.47-.06-.47-.52-1.08-.47l-.07.74C131.18,170,131.55,170.06,131.83,169.31Z"/><path class="cls-2" d="M137.4,215.44c-.71,0-.78-.49-1.45-.51C135.26,215.91,137.46,216.1,137.4,215.44Z"/><path class="cls-2" d="M135.64,396.65c.21,0,.45-.26,0-.37C135.47,396.26,135.23,396.54,135.64,396.65Z"/><path class="cls-2" d="M108.83.82A1,1,0,0,1,108.2,0h-6.14a2.26,2.26,0,0,0-.32.55c.42.56,2,.2,1.35,1.62-.53-.81-2.74-.23-3.28-1-.32,1.83,1.09.31,1.39,1.25A7.5,7.5,0,0,1,98.43,4c-1-.12-.25-1.62-1.76-1.28-.29.75.24,2.48-.61,2.56-.55-1,.54-1.26-.2-1.89-.39.82-2.37.81-3,.1-1.37,1.65-4.13,1.64-5.2,3.64,1.11.22,2.93-.15,2.91,1l-3-.27c-.56,1.5-.85,2.69-2.77,1.62A8.4,8.4,0,0,1,85.16,14c.74,0,1.13-.61,1.59-1,.63-.51.52-.79,1.59-1,.34-.06.91.53,1.82.54,1.12,0,1.84,0,2.57.61.75-.49,3.32-.93,2.43-2-.11.28-.35.4-.78.3.61-1.42-1-1-.95-2,.44,0,.46-.55.47-1.08C96,7.68,98,6.74,101.14,7.23a9.44,9.44,0,0,1,2.77-1.62c.57,1.65,5.28,1.8,6.52,2.46-.21-.11-.8.08-.78.3,3,.56,3-2.26,5.3-.64-.36-1.8,1.74-.66,2-1.69-.31-.43-1.36-.24-1-1.21,1.46-.18,2.87-.41,2.5-2.77,2,.31,3.19-1.08,4.86.07,0-1.44,1.66-.67,2.33-.91.89-.32,1.07-1.34,2-.95-.38,1.12,1,.81.58,1.92A4.89,4.89,0,0,0,132.33,0H109.44A2.16,2.16,0,0,1,108.83.82Z"/><path class="cls-2" d="M136.25,348.46c.11-.09-.13-.58-.34-.4S136,348.64,136.25,348.46Z"/><path class="cls-2" d="M99.84,79.66c.06.3-.06.73.31.78C100.09,80.14,100.2,79.71,99.84,79.66Z"/><path class="cls-2" d="M68,204.31c-.11.09.13.58.34.4S68.18,204.13,68,204.31Z"/><path class="cls-2" d="M62.22,56.45A1.83,1.83,0,0,0,60.3,57C61,56.92,62.49,57.73,62.22,56.45Z"/><path class="cls-2" d="M60.93,178.61c-.11.09.13.58.34.41S61.14,178.44,60.93,178.61Z"/><path class="cls-2" d="M64.44,44.3c-.84-.88-2.72-.52-2.7.88C63.14,45.49,64.08,45.24,64.44,44.3Z"/><path class="cls-2" d="M62.28,93.1c-.11.09.13.58.34.4S62.49,92.93,62.28,93.1Z"/><path class="cls-2" d="M79,36.65c.21,0,.45-.26,0-.37C78.83,36.25,78.58,36.54,79,36.65Z"/><path class="cls-2" d="M55.58,262.65c.11-.09-.13-.58-.34-.41S55.38,262.82,55.58,262.65Z"/><path class="cls-2" d="M55,455.56c-.11.09.13.58.34.4S55.23,455.38,55,455.56Z"/><path class="cls-2" d="M56,108.24c-.21.62-.47-.12-1.11-.1C54.16,109.61,57.63,108.92,56,108.24Z"/><path class="cls-2" d="M55.44,114.92c-.21,0-.45.26,0,.37C55.61,115.31,55.86,115,55.44,114.92Z"/><path class="cls-2" d="M75.13,340.7c-.11.09.13.58.34.4S75.34,340.52,75.13,340.7Z"/><path class="cls-2" d="M72.88,33.85c-1.5-.29-1.61,1.08-3.41.44-.36,1,.67.81.61,1.55-.3.06-.73-.06-.78.3,1.36.66.8-1,1.93-.57,1.61.21-.6,1.72,1,1.58C73.43,36.56,72.11,34.16,72.88,33.85Z"/><path class="cls-2" d="M76.23,171c-.44,0-1-.16-1.15.27.22,0,.43.1.34.41C75.87,171.69,76.31,171.66,76.23,171Z"/><path class="cls-2" d="M72,168.39c-.11.09.13.58.34.4S72.18,168.22,72,168.39Z"/><path class="cls-2" d="M69.14,96l-1.49-.13-.1,1.11C68.52,97.13,69.17,97,69.14,96Z"/><path class="cls-2" d="M68.39,220.42c-.11.09.13.58.34.4S68.6,220.25,68.39,220.42Z"/><path class="cls-2" d="M71,299.19c-.06-.3.06-.73-.3-.78C70.77,298.71,70.66,299.15,71,299.19Z"/><path class="cls-2" d="M70.12,97.55c0,.67-.54,1.82.61,1.55A1.64,1.64,0,0,0,70.12,97.55Z"/><path class="cls-2" d="M55.31,157.91c-.11.09.13.58.34.4S55.52,157.74,55.31,157.91Z"/><path class="cls-2" d="M49.19,391.46c-.06-.3.06-.73-.3-.78C48.95,391,48.83,391.41,49.19,391.46Z"/><path class="cls-2" d="M47.2,338.92c-.8.66-.43,2.1-.27,3l3,.27Q50.18,339.18,47.2,338.92Z"/><path class="cls-2" d="M51.84,38.68a.88.88,0,0,0,1.55-.61C52.56,37.89,52,38,51.84,38.68Z"/><path class="cls-2" d="M48.44,379.05a.38.38,0,0,0,.07-.74C48.05,378.35,48.24,378.7,48.44,379.05Z"/><path class="cls-2" d="M45,197.74c-.46,0-.27.39-.07.74A.38.38,0,0,0,45,197.74Z"/><path class="cls-2" d="M44.78,216.42c-.11.09.13.58.34.41S45,216.25,44.78,216.42Z"/><path class="cls-2" d="M47.48,447.77c-1.15-1.24-1.25,1.27,0,0Z"/><path class="cls-2" d="M44.47,29c-.21,0-.45.26,0,.37C44.64,29.43,44.88,29.15,44.47,29Z"/><path class="cls-2" d="M53.25,301c.11-.09-.13-.58-.34-.4S53,301.13,53.25,301Z"/><path class="cls-2" d="M50.79,402.82c-.11.09.13.58.34.4S51,402.65,50.79,402.82Z"/><path class="cls-2" d="M52.94,300.18c.21,0,.45-.26,0-.37C52.77,299.79,52.53,300.07,52.94,300.18Z"/><path class="cls-2" d="M53.6,371.66c-.11.09.13.58.34.4S53.81,371.49,53.6,371.66Z"/><path class="cls-2" d="M54.47,34.43c0,.42-.59.53-.07.74A.38.38,0,0,0,54.47,34.43Z"/><path class="cls-2" d="M56.63,23c-.11.55,0,1.38-.51,1.45-1.41-.51.06-1.28-.14-2.63-.45-.08-.87-.19-.68-.81.6.75,1.1-.06,1.89-.2-.28-.68,0-1.86-.54-2.29-.08.45-.19.87-.81.67,0-.37.34-.41.44-.71a11.46,11.46,0,0,1-1.72-1.65c-.29-.34,0-1.75-1.39-1.25-.2.62.47,1-.1,1.11-.51-.83-.48-2.12-1.66-2.39.37,1.54,0,1-1.18.64.15.9-.71,2.65.1,3,.1-.43.62-.35,1.15-.27.2.66,1.32,2.29.1,3-.9-.82-1.81.85-2.57-.61-.25.52.26,2-.54,1.82l-.74-.07c-.43-.89,1.08-1.31.13-1.48a11.88,11.88,0,0,1-5.37,1.38c.21,1.08-.61.91-.54,1.82.43.1,1.06,0,1.08.47-.06.61-1,.12-1.18.64.76.93,1.53,2.24.81,3.44l1.49.13c.83-2.66-1.24-.77-.85-3.07.77-.63.65.28,1.86.17.31-1.68,2.65-.94,3.88-1.52,1.35,1.33,2.55,2.76,4.66,2.29.24-.05,0-.68.44-.71.68,0,1.19.8,1.83.54C56.32,25.09,58.29,23.82,56.63,23Z"/><path class="cls-2" d="M54.76,197.13c-.06-.3.06-.73-.3-.78C54.51,196.65,54.4,197.09,54.76,197.13Z"/><path class="cls-2" d="M53,179.76l-.74-.07-.07.74.74.07Z"/><path class="cls-2" d="M55.87,93.64c0,.22-.1.43-.41.34l-.07.74C56.26,95.38,56.6,93.56,55.87,93.64Z"/><path class="cls-2" d="M52.47,293c-.15-.9-.34-1.77-1.32-2C50.38,291.72,51.45,292.8,52.47,293Z"/><path class="cls-2" d="M89.19,23.36a9.81,9.81,0,0,1,2-.95c.52-1.58-.61-1.77-.88-2.7a14.26,14.26,0,0,1-4.12,0C85.25,19.2,85,18.12,83.68,18c-.27.49-1.44-.07-1.55.61s1.16,1.31,2.06,2.06c-.18.83,0,1.4.61,1.55C86.13,21.35,87.45,23.42,89.19,23.36Z"/><path class="cls-2" d="M97,143.73c-.22-.11-.85.49-.81.67C96.45,145.41,98.35,144.36,97,143.73Z"/><path class="cls-2" d="M96.09,170.94c-.21,0-.45.26,0,.37C96.26,171.34,96.5,171.05,96.09,170.94Z"/><path class="cls-2" d="M97.36,20q1.21.21,1.22-1Q97.37,18.76,97.36,20Z"/><path class="cls-2" d="M98,286.3c-.11.09.13.58.34.4S98.24,286.13,98,286.3Z"/><path class="cls-2" d="M96.37,325.42c-.46,0-.27.39-.07.74A.38.38,0,0,0,96.37,325.42Z"/><path class="cls-2" d="M97.78,131.46l-.74-.07-.1,1.11C97.6,132.61,97.84,132.21,97.78,131.46Z"/><path class="cls-2" d="M95.56,10.84c-.06-.3.06-.73-.3-.78C95.32,10.36,95.2,10.8,95.56,10.84Z"/><path class="cls-2" d="M95.26,370.94c-.44,0-1-.16-1.15.27.23,0,.44.1.34.41C94.9,371.61,95.34,371.58,95.26,370.94Z"/><path class="cls-2" d="M98,13.3c.11-.09-.13-.58-.34-.4S97.76,13.48,98,13.3Z"/><path class="cls-2" d="M100.31,37.07c-.46,0-.27.39-.07.74A.38.38,0,0,0,100.31,37.07Z"/><path class="cls-2" d="M99.39,341.77c-.11.09.13.58.34.4S99.6,341.59,99.39,341.77Z"/><path class="cls-2" d="M99.08,13.4c.06.3-.06.73.3.78C99.33,13.88,99.44,13.45,99.08,13.4Z"/><path class="cls-2" d="M95,357.45l-.74-.07-.07.74.74.07Z"/><path class="cls-2" d="M109.73,343.45c-1.17-1,.79,1.33,0,0Z"/><path class="cls-2" d="M99.33,437.87c-.11.09.13.58.34.4S99.53,437.69,99.33,437.87Z"/><path class="cls-2" d="M120.94,244.24c.66.11.9-.29.84-1l-.74-.07Z"/><path class="cls-2" d="M100.58,303.73c-.47-.06-.47-.52-1.08-.47l-.1,1.11,1.11.1Z"/><path class="cls-2" d="M99.82,50.87c0,.44-.16,1,.27,1.15C100.07,51.57,100.25,51,99.82,50.87Z"/><path class="cls-2" d="M79.8,160.5a.38.38,0,0,0,.07-.74C79.87,160.18,79.27,160.28,79.8,160.5Z"/><path class="cls-2" d="M80.75,162.45c-.37,0-.41-.34-.71-.44,0,.37-.34.42-.44.71.37,0,.42.34.71.44C80.34,162.79,80.65,162.75,80.75,162.45Z"/><path class="cls-2" d="M83.63,84.93c-.19,1,0,1.61,1,1.58C84.8,85.56,84.62,84.91,83.63,84.93Z"/><path class="cls-2" d="M109.48,375.21l-.74-.07-.07.74.74.07Z"/><path class="cls-2" d="M84.51,37.89c-.52-.14-.57-.67-1-.84C83.06,37.78,84.27,38.8,84.51,37.89Z"/><path class="cls-2" d="M81.91.26c-.2.63.47,1-.1,1.11C81.35,1,81.17.3,80.42.13c-1,.82-1.48.62-1.62,1.35-.19.95.67.86.61,1.55,0,.15-1.16.38-.84,1,2.34.61,3.32-.41,4.59-1.08C83.56,1.4,82.68.88,81.91.26Z"/><path class="cls-2" d="M83.67,92.79c.21,0,.45-.26,0-.37C83.49,92.4,83.25,92.68,83.67,92.79Z"/><path class="cls-2" d="M79.84,259.6c1.24-1.15-1.27-1.25,0,0Z"/><path class="cls-2" d="M79,11.59c0,.42-.59.53-.07.74A.38.38,0,0,0,79,11.59Z"/><path class="cls-2" d="M95,38.09c-.11.09.13.58.34.41S95.19,37.92,95,38.09Z"/><path class="cls-2" d="M93.65,23.76l-.74-.07-.1,1.11C93.47,24.91,93.71,24.51,93.65,23.76Z"/><path class="cls-2" d="M91.73,169.43c-.11.09.13.58.34.4S91.94,169.26,91.73,169.43Z"/><path class="cls-2" d="M90.15,182.75l-1.11-.1C88.39,183.68,90.6,183.88,90.15,182.75Z"/><path class="cls-2" d="M86.09,124c-1.17-1,.79,1.32,0,0Z"/><path class="cls-2" d="M93.86,257.88l-.74-.07-.1,1.11C93.67,259,93.91,258.63,93.86,257.88Z"/><path class="cls-2" d="M89.67,308.36c-.11.09.13.58.34.4S89.88,308.18,89.67,308.36Z"/><path class="cls-2" d="M86.68,100.91a1.65,1.65,0,0,0-1.55.61c1.24-.35.18,1.23,1.42.88Z"/><path class="cls-2" d="M89.24,416.77c.21,0,.45-.26,0-.37C89.07,416.37,88.83,416.66,89.24,416.77Z"/><path class="cls-2" d="M126.5,4.29c-.72-.18-.78.43-1.18.64-.73-.38-2.1.4-1.18.64.42-1.07.48.91,1.45.51C126.13,5.59,127.38,5.3,126.5,4.29Z"/><path class="cls-2" d="M174.46,269.64c.21,0,.45-.26,0-.37C174.29,269.25,174,269.54,174.46,269.64Z"/><path class="cls-2" d="M161.36,265.47c.21,0,.45-.26,0-.37C161.18,265.08,160.94,265.36,161.36,265.47Z"/><path class="cls-2" d="M175.72,230.87c.11-.09-.13-.58-.34-.4S175.51,231,175.72,230.87Z"/><path class="cls-2" d="M175.34,31.89l-.74-.07c0,.37-.34.41-.44.71C174.74,32.54,175.44,32.69,175.34,31.89Z"/><path class="cls-2" d="M178.63,240.11c.11-.09-.13-.58-.34-.41S178.42,240.28,178.63,240.11Z"/><path class="cls-2" d="M174.49,252.82c.11-.09-.13-.58-.34-.41S174.28,253,174.49,252.82Z"/><path class="cls-2" d="M178.94,240.88c-1.17-1,.78,1.32,0,0Z"/><path class="cls-2" d="M178.2,70.66c.11-.09-.13-.58-.34-.41S178,70.84,178.2,70.66Z"/><path class="cls-2" d="M178.95,29.22c-.38-.09-1,.2-.4.34C178.93,29.65,179.53,29.36,178.95,29.22Z"/><path class="cls-2" d="M176.62,312.1c-.06-.29.06-.73-.3-.77C176.38,311.62,176.26,312.05,176.62,312.1Z"/><path class="cls-2" d="M183.16,335.13c.1-.43,0-1.06.47-1.08,0,.91,1.22.19,1.15-.27C183.2,333.08,181.57,334.44,183.16,335.13Z"/><path class="cls-2" d="M183.65,221.86c0,.42-.59.53-.07.74A.38.38,0,0,0,183.65,221.86Z"/><path class="cls-2" d="M183.18,310.07l.1-1.11c-1-.19-1.85-.29-1.59,1Z"/><path class="cls-2" d="M174.78,336.61c-.11.09.13.58.34.4S175,336.44,174.78,336.61Z"/><path class="cls-2" d="M181.76,35.46c-.11.09.13.58.34.4S182,35.28,181.76,35.46Z"/><path class="cls-2" d="M178.66,322.75c-1-.92-1.82-.88-3.31-.67-.24,1.12,1.29.75,1.35,1.62C176.9,322.84,178.35,323.48,178.66,322.75Z"/><path class="cls-2" d="M174.54,239.74l.74.07C176.58,239.23,174.34,237.89,174.54,239.74Z"/><path class="cls-2" d="M176.85,338.67c-.11.09.13.58.34.4S177.06,338.49,176.85,338.67Z"/><path class="cls-2" d="M172.65,368.58c-.22,0-.43-.1-.34-.41l-.74-.07C170.9,369,172.73,369.31,172.65,368.58Z"/><path class="cls-2" d="M167.74,310.92c-.11.09.13.58.34.4S167.95,310.75,167.74,310.92Z"/><path class="cls-2" d="M168.3,14.42c-1-.68-1.76.81-.84,1C167.54,14.89,168.43,15.26,168.3,14.42Z"/><path class="cls-2" d="M166.37,15c-.11.09.13.58.34.4S166.58,14.82,166.37,15Z"/><path class="cls-2" d="M167.82,7.27c-.12.92-.8,1.08-.17,1.85.91.22,1.09-.44,1.37-1l-.24-.47C168.47,7.54,168.29,7.28,167.82,7.27Z"/><path class="cls-2" d="M162.16,123.81l-.74-.07-.07.74.74.07Z"/><path class="cls-2" d="M170.25,50.87c-.21,0-.45.26,0,.37C170.42,51.26,170.67,51,170.25,50.87Z"/><path class="cls-2" d="M160.22,381.67c-.44,0-1-.16-1.15.27.22,0,.44.1.34.41C159.87,382.34,160.3,382.31,160.22,381.67Z"/><path class="cls-2" d="M163.81,391.72c.21,0,.45-.26,0-.37C163.64,391.32,163.4,391.61,163.81,391.72Z"/><path class="cls-2" d="M165,369.76c-.7-.22-.58-1.12-1.79-.91C162.51,370.73,164.84,371.39,165,369.76Z"/><path class="cls-2" d="M172.35,147.92c.06.3-.06.73.3.77C172.6,148.4,172.71,148,172.35,147.92Z"/><path class="cls-2" d="M172.89,195.83c-.06-.3.06-.73-.3-.77C172.64,195.35,172.53,195.79,172.89,195.83Z"/><path class="cls-2" d="M171.95,15.5c.06.3-.06.73.3.77C172.19,16,172.31,15.54,171.95,15.5Z"/><path class="cls-2" d="M182.26,170.88a.38.38,0,0,0,.07-.74C182.33,170.55,181.74,170.66,182.26,170.88Z"/><path class="cls-2" d="M170.48,181l-.74-.07c0,.37-.34.42-.44.71C169.89,181.69,170.58,181.84,170.48,181Z"/><path class="cls-2" d="M170.86,48.31l-.07.74.74.07.07-.74Z"/><path class="cls-2" d="M169.47,370.54c-.37,0-.42-.34-.71-.44,0,.59-.17,1.28.64,1.18Z"/><path class="cls-2" d="M168.45,261.62c-.11.09.13.58.34.4S168.66,261.45,168.45,261.62Z"/><path class="cls-2" d="M168.84,385.81c-.11.09.13.58.34.41S169.05,385.64,168.84,385.81Z"/><path class="cls-2" d="M176.12,43.92c.06.29-.06.73.3.78C176.37,44.4,176.48,44,176.12,43.92Z"/><path class="cls-2" d="M203.18,84.51c-.06-.29.06-.73-.3-.78C202.93,84,202.82,84.47,203.18,84.51Z"/><path class="cls-2" d="M202.36,168.2l-.2,2.23C203.94,170.75,203.43,168.36,202.36,168.2Z"/><path class="cls-2" d="M201.93,127.4c-.46,0-.27.39-.07.74A.38.38,0,0,0,201.93,127.4Z"/><path class="cls-2" d="M203.66,145.51a.38.38,0,0,0,.07-.74C203.73,145.19,203.14,145.3,203.66,145.51Z"/><path class="cls-2" d="M202.11,187.63c.21,0,.45-.26,0-.37C201.93,187.24,201.69,187.52,202.11,187.63Z"/><path class="cls-2" d="M193.19,145.31c0,.37-.34.42-.44.71.37,0,.41.34.71.44,0-.37.34-.42.44-.71C193.53,145.72,193.48,145.41,193.19,145.31Z"/><path class="cls-2" d="M200.24,183.34c.06-.47.52-.47.47-1.08C199.85,181.61,199.51,183.43,200.24,183.34Z"/><path class="cls-2" d="M196.3,102.59c-.11.09.13.58.34.4S196.51,102.41,196.3,102.59Z"/><path class="cls-2" d="M196.9,274.29c-.11.09.13.58.34.4S197.11,274.12,196.9,274.29Z"/><path class="cls-2" d="M208.61,78.27c-.11.09.13.58.34.4S208.82,78.1,208.61,78.27Z"/><path class="cls-2" d="M209.25,170.7c-.11.09.13.58.34.41S209.46,170.52,209.25,170.7Z"/><path class="cls-2" d="M208,122.71c.21,0,.45-.26,0-.37C207.8,122.32,207.55,122.6,208,122.71Z"/><path class="cls-2" d="M193.31,314c-1.17-1,.79,1.33,0,0Z"/><path class="cls-2" d="M211.15,87.48c-.71,0-.78-.49-1.45-.51-.16.49-.59.66-.51,1.45C209.87,88.14,211.19,88.61,211.15,87.48Z"/><path class="cls-2" d="M206.27,66.84a.38.38,0,0,0,.07-.74C206.34,66.52,205.75,66.63,206.27,66.84Z"/><path class="cls-2" d="M206.74,107.27c-.11.09.13.58.34.41S207,107.09,206.74,107.27Z"/><path class="cls-2" d="M205.09,208.47l.74.07.07-.74-.74-.07Z"/><path class="cls-2" d="M205.83,158.8c.11-.09-.13-.58-.34-.41S205.62,159,205.83,158.8Z"/><path class="cls-2" d="M194.05,173.06c.21,0,.45-.26,0-.37C193.88,172.67,193.64,173,194.05,173.06Z"/><path class="cls-2" d="M187.14,237.13c-.11.09.13.58.34.4S187.35,237,187.14,237.13Z"/><path class="cls-2" d="M187.28,198.25c-.21,0-.45.26,0,.37C187.46,198.65,187.7,198.36,187.28,198.25Z"/><path class="cls-2" d="M188.52,275.78a1,1,0,0,0-.64-1.18A1,1,0,0,0,188.52,275.78Z"/><path class="cls-2" d="M185.32,195.08c-.66.86,1.16,1.21,1.08.47-.23,0-.44-.1-.34-.41Z"/><path class="cls-2" d="M192.8,120.6a.38.38,0,0,0-.07.74C192.73,120.92,193.32,120.81,192.8,120.6Z"/><path class="cls-2" d="M181.09,42.88c.11-.09-.13-.58-.34-.41S180.88,43.05,181.09,42.88Z"/><path class="cls-2" d="M181.47,63.48c-.44,0-1-.16-1.15.27.23,0,.44.09.34.4C181.12,64.15,181.55,64.12,181.47,63.48Z"/><path class="cls-2" d="M180.92,272.85c.11-.09-.13-.58-.34-.4S180.71,273,180.92,272.85Z"/><path class="cls-2" d="M180.87,111.67c.11-.09-.13-.58-.34-.4S180.66,111.84,180.87,111.67Z"/><path class="cls-2" d="M187.56,257.37c-.11.09.13.58.34.4S187.77,257.19,187.56,257.37Z"/><path class="cls-2" d="M194.45,160.38c.11-.09-.13-.58-.34-.4S194.24,160.56,194.45,160.38Z"/><path class="cls-2" d="M193.93,236.63c.21,0,.45-.26,0-.37C193.76,236.23,193.52,236.52,193.93,236.63Z"/><path class="cls-2" d="M193.83,283.36c0-.44.16-1-.27-1.15C193.58,282.66,193.4,283.26,193.83,283.36Z"/><path class="cls-2" d="M182.5,31.41c0,.39.45.34.41-.34L181,30.9l-.1,1.11C182.08,32.55,181.9,31.52,182.5,31.41Z"/><path class="cls-2" d="M191.25,121.2l-.74-.07c0,.37-.34.41-.44.71C190.65,121.86,191.35,122,191.25,121.2Z"/><path class="cls-2" d="M191.3,282.38l.74.07.07-.74-.74-.07Z"/><path class="cls-2" d="M189.16,173.37c.63.71,2.62.72,3-.1C191.59,172.22,189.53,172,189.16,173.37Z"/><path class="cls-2" d="M195.3,304.43c-.49-.16-.66-.59-1.45-.51l-.1,1.11C194.58,305.22,195.15,305.08,195.3,304.43Z"/><path class="cls-2" d="M157.4,118.52c-.16-.81-2.26-.55-2.6-.23-.15.69.34.86.24,1.52C156,119.56,157.21,119.66,157.4,118.52Z"/><path class="cls-2" d="M148.12,179.76c.23-2-3.1-1.37-3,.1C146.3,180.05,146.74,179.35,148.12,179.76Z"/><path class="cls-2" d="M145.56,9c.11-.09-.13-.58-.34-.4S145.35,9.18,145.56,9Z"/><path class="cls-2" d="M149.23,38.88l-1.12-.1-.1,1.11,1.12.1Z"/><path class="cls-2" d="M145.26,244.57c.11-.09-.13-.58-.34-.41S145.05,244.74,145.26,244.57Z"/><path class="cls-2" d="M145.73,189.64c-.21,0-.45.26,0,.37C145.9,190,146.14,189.75,145.73,189.64Z"/><path class="cls-2" d="M143.6,374.93c-.06-.29.06-.73-.3-.77C143.35,374.45,143.24,374.89,143.6,374.93Z"/><path class="cls-2" d="M142.77,126.92c-.37,0-.41-.34-.71-.44-.06.47-.52.47-.47,1.08A1,1,0,0,0,142.77,126.92Z"/><path class="cls-2" d="M144.35,200.73c-.22,0-.43-.1-.34-.4l-.74-.07C142.61,201.12,144.43,201.47,144.35,200.73Z"/><path class="cls-2" d="M149.88,2.66c-1.85-.92-2.95-.63-4.76-1.18-1,1.11-.33,1.61-1.35,2.5,1.31-.51,2.71,0,2.87,1.38C148.93,5.61,150.42,4.7,149.88,2.66Z"/><path class="cls-2" d="M155.08,48.75c.66.11.9-.29.84-1l-.74-.07Z"/><path class="cls-2" d="M155,161.68l-.74-.07-.07.74.74.07Z"/><path class="cls-2" d="M155,29.3c.06-.47.52-.47.47-1.08C154.58,27.56,154.23,29.38,155,29.3Z"/><path class="cls-2" d="M155.3,21.47c0,.37-.34.41-.44.71.59,0,1.28.16,1.18-.64Z"/><path class="cls-2" d="M145.9,245.75l-.74-.07-.07.74.74.07Z"/><path class="cls-2" d="M157.66,115.55c-.87,0-1.76.08-1.62,1.35l1.86.17A2.09,2.09,0,0,0,157.66,115.55Z"/><path class="cls-2" d="M159,191.59l-.74-.07-.07.74.74.07Z"/><path class="cls-2" d="M158.28,30c-1.17-1,.79,1.33,0,0Z"/><path class="cls-2" d="M158.11,119c.11-.09-.13-.58-.34-.4S157.9,119.13,158.11,119Z"/><path class="cls-2" d="M142,321.69c.21,0,.45-.26,0-.37C141.87,321.3,141.62,321.58,142,321.69Z"/><path class="cls-2" d="M123.35,395.91c-.11.09.13.58.34.4S123.56,395.74,123.35,395.91Z"/><path class="cls-2" d="M125.17,309.32c-1.1,0-1.25-1.61-1.86-.17C123.52,309.39,125,310.18,125.17,309.32Z"/><path class="cls-2" d="M125.36,381.88c-.11.09.13.58.34.41S125.57,381.71,125.36,381.88Z"/><path class="cls-2" d="M123.06,5.1c-.17.76-1.65-.06-1.59,1C122.13,7.33,124.1,5.76,123.06,5.1Z"/><path class="cls-2" d="M122.51,264.2c-1.15-1.24-1.25,1.27,0,0Z"/><path class="cls-2" d="M122.81,260.87l-.74-.07-.07.74.74.07Z"/><path class="cls-2" d="M122.29,158.73c.11-.09-.13-.58-.34-.41S122.08,158.9,122.29,158.73Z"/><path class="cls-2" d="M44.84,348.43c.07-.73,1.06-.38.88-1.42l-1.12-.1C44.61,347.48,44.34,348.27,44.84,348.43Z"/><path class="cls-2" d="M121.94,5c.11-.09-.13-.58-.34-.4S121.73,5.17,121.94,5Z"/><path class="cls-2" d="M132.84,348.9c-1.17-1,.79,1.33,0,0Z"/><path class="cls-2" d="M128.31,208.26c-.69-.22-.58-1.12-1.79-.91C125.64,208.69,128.07,209,128.31,208.26Z"/><path class="cls-2" d="M131.6,180.14c1,.35.79-.7,1.22-1Q131.61,178.91,131.6,180.14Z"/><path class="cls-2" d="M134.86,206.23c-.11.09.13.58.34.41S135.07,206.06,134.86,206.23Z"/><path class="cls-2" d="M141,390.78c-.11.09.13.58.34.4S141.25,390.61,141,390.78Z"/><path class="cls-2" d="M135.42,179.36c-.44,0-1-.16-1.15.27.22,0,.43.1.34.4C135.06,180,135.49,180,135.42,179.36Z"/><path class="cls-2" d="M127.69,281.5c-.37,0-.42-.34-.71-.44,0,.37-.34.41-.44.71.37,0,.41.34.71.44C127.28,281.84,127.59,281.79,127.69,281.5Z"/><path class="cls-2" d="M143.57,10.32c-.17-1.16.74-1,.57-2.19-.7-.15-.86.34-1.52.24,0,1.67-1.67,1.29-1.75,2.83C142.23,11.46,142,9.78,143.57,10.32Z"/><path class="cls-2" d="M127.91,304l-.74-.07-.07.74.74.07Z"/><path class="cls-2" d="M153.45,170.52a.38.38,0,0,0-.07.74C153.38,170.84,154,170.73,153.45,170.52Z"/><path class="cls-2" d="M159.61,326.27c.06.3-.06.73.31.77C159.86,326.75,160,326.31,159.61,326.27Z"/><path class="cls-2" d="M161,315.54c-.11.09.13.58.34.4S161.16,315.37,161,315.54Z"/><path class="cls-2" d="M160,334.16l.74.07.07-.74-.74-.07Z"/><path class="cls-2" d="M160.65,364.5c.11-.09-.13-.58-.34-.41S160.44,364.68,160.65,364.5Z"/><path class="cls-2" d="M159.93,351.73c-.11.09.13.58.34.4S160.14,351.55,159.93,351.73Z"/><path class="cls-2" d="M165.81,120.78l-.74-.07c0,.37-.34.41-.44.71C165.21,121.43,165.91,121.58,165.81,120.78Z"/><path class="cls-2" d="M164.35,66.42c-.21,0-.45.26,0,.37C164.52,66.81,164.77,66.53,164.35,66.42Z"/><path class="cls-2" d="M166,342.18c-.72-.18-.78.44-1.18.64-.43-.09-.78-.74-1.11-.1.54.12.26.93.24,1.52C166.33,344.63,164.75,342.74,166,342.18Z"/><path class="cls-2" d="M164.18,346.13c-.38-.6-1-1-.95-2-.94,0-2.87.92-2.36,1.28C161.59,344.67,162.9,347.45,164.18,346.13Z"/><path class="cls-2" d="M160.9,382.48c-1.17-1,.79,1.33,0,0Z"/><path class="cls-2" d="M161.07,19.75c-.06-.3.06-.73-.3-.78C160.83,19.27,160.71,19.71,161.07,19.75Z"/><path class="cls-2" d="M160.52,191.72c.06.3-.06.73.3.77C160.77,192.2,160.88,191.77,160.52,191.72Z"/><path class="cls-2" d="M160.4,23.06c-.11.09.13.58.34.4S160.61,22.88,160.4,23.06Z"/><path class="cls-2" d="M160.9,13.38c.67,0,1.83.54,1.55-.61C161.62,12.59,161,12.73,160.9,13.38Z"/><path class="cls-2" d="M160.15,187.58c-.21,0-.45.26,0,.37C160.32,188,160.56,187.68,160.15,187.58Z"/><path class="cls-2" d="M163.2,12.84c-.21,0-.45.26,0,.37C163.37,13.23,163.61,12.95,163.2,12.84Z"/><path class="cls-2" d="M159.2,276.87c0,.1,1.07.62.64,1.18a5.48,5.48,0,0,0,3.45-.81C161.94,276.35,159.55,275.12,159.2,276.87Z"/><path class="cls-2" d="M163,255.89c-.11.09.13.58.34.4S163.18,255.72,163,255.89Z"/><path class="cls-2" d="M157.59,112.18c1.24-1.15-1.27-1.25,0,0Z"/><path class="cls-2" d="M152.6,76.2c0-.42.59-.53.07-.74A.38.38,0,0,0,152.6,76.2Z"/><path class="cls-2" d="M152.85,2.93c.06-.47.52-.47.47-1.08C152.46,1.19,152.12,3,152.85,2.93Z"/><path class="cls-2" d="M153,108.78c-.11.09.13.58.34.4S153.24,108.6,153,108.78Z"/><path class="cls-2" d="M153.58,123.41c-.38-.09-1,.2-.4.34C153.56,123.84,154.16,123.55,153.58,123.41Z"/><path class="cls-2" d="M153.41,249.79c.11-.09-.13-.58-.34-.4S153.2,250,153.41,249.79Z"/><path class="cls-2" d="M154.92,108.57c.15-.63-.5-2.26-1-1.21C154.81,107.29,153.55,109,154.92,108.57Z"/><path class="cls-2" d="M156.88,66.12c-.21,0-.45.26,0,.37C157.06,66.51,157.3,66.23,156.88,66.12Z"/><path class="cls-2" d="M156.63,35.81c-2.22-.5-.4,1.68,0,0Z"/><path class="cls-2" d="M156.18,69.8c.84.18,1.4,0,1.55-.61C156.8,68.91,156.35,68.42,156.18,69.8Z"/><path class="cls-2" d="M153.67,375.47a.38.38,0,0,0,.07-.74C153.28,374.76,153.47,375.12,153.67,375.47Z"/><path class="cls-2" d="M154.07,279.77c-1.63-1.5-.69,2.13,0,0Z"/><path class="cls-2" d="M123,279.58c.11-.09-.13-.58-.34-.4S122.78,279.76,123,279.58Z"/><path class="cls-2" d="M156.27,292.68c-.11.09.13.58.34.41S156.48,292.51,156.27,292.68Z"/><path class="cls-2" d="M153.15,273.33c-.45-.53-1.34-.61-1.52.24C152.08,274.09,153,274.18,153.15,273.33Z"/><path class="cls-2" d="M151.93,79.51c.11-.09-.13-.58-.34-.41S151.72,79.68,151.93,79.51Z"/><path class="cls-2" d="M152.62,241.87c.59,0,1.28.17,1.18-.64l-.74-.07C153,241.53,152.72,241.57,152.62,241.87Z"/><path class="cls-2" d="M162.32,101.39c-1-1.11.91,1.22,0,0Z"/><path class="cls-2" d="M152,306.51c.21,0,.45-.26,0-.37C151.86,306.12,151.61,306.4,152,306.51Z"/><path class="cls-2" d="M32.2,388.8c-.22,0-.44-.09-.34-.4l-.74-.07C30.46,389.19,32.28,389.53,32.2,388.8Z"/><path class="cls-2" d="M100.85,0H99.48A3,3,0,0,0,100.85,0Z"/><path class="cls-2" d="M99.31,2.58c.21,0,.45-.26,0-.37C99.14,2.19,98.89,2.47,99.31,2.58Z"/><path class="cls-2" d="M72.6,20.36c.11-.09-.13-.58-.34-.4S72.39,20.54,72.6,20.36Z"/><path class="cls-2" d="M72.2,28.93a.38.38,0,0,0-.07.74C72.14,29.25,72.73,29.14,72.2,28.93Z"/><path class="cls-2" d="M70.63,4.85c-.11.09.13.58.34.4S70.84,4.68,70.63,4.85Z"/><path class="cls-2" d="M66.73,27.31c-.23.2-1,1.68-.17,1.85C67.17,28.53,67.67,28,66.73,27.31Z"/><path class="cls-2" d="M67.07,31.83c-.06-.3.06-.73-.3-.78C66.82,31.35,66.71,31.78,67.07,31.83Z"/><path class="cls-2" d="M70.3,8.56a1,1,0,0,0,.64,1.18C71,9.15,71.1,8.46,70.3,8.56Z"/><path class="cls-2" d="M69.13,33.88a2.09,2.09,0,0,1,.51-1.45c-.56.15-1.88-.61-1.89.2C69,32.42,68.14,33.91,69.13,33.88Z"/><path class="cls-2" d="M68,34.15c-.11.09.13.58.34.41S68.19,34,68,34.15Z"/><path class="cls-2" d="M82.36,11.89c1.62.29,1.43-1.57,2.09-2.43C82.8,9.14,82.49,10.41,82.36,11.89Z"/><path class="cls-2" d="M74.54,36.24c0-.42.59-.53.07-.74A.38.38,0,0,0,74.54,36.24Z"/><path class="cls-2" d="M74.23,23.13a.38.38,0,0,0-.07.74C74.16,23.45,74.75,23.34,74.23,23.13Z"/><path class="cls-2" d="M82.18,5.52C81.71,5.46,81.71,5,81.1,5L81,6.16l1.11.1Z"/><path class="cls-2" d="M74.52,11.56c.07-1.56,1.93-1,1.75-2.83-.66-.8-2.1-.43-3-.27-.57-.21-.21-1.19-1.42-.88-.66,1.08,0,1.45-.57,2.19C71.88,10.78,74,10.55,74.52,11.56Z"/><path class="cls-2" d="M74.85,3.74c.11-.09-.13-.58-.34-.41S74.64,3.91,74.85,3.74Z"/><path class="cls-2" d="M75,30.68c-.38-.09-1,.2-.4.34C75,31.11,75.62,30.82,75,30.68Z"/><path class="cls-2" d="M77.36,13.31c-.35-1.28-1.78-.3-2.64.14a4.93,4.93,0,0,0-2.53-1c.09,1-.45,2.29-.27,3a3.85,3.85,0,0,1,.71.44c.21.31-.13,1,.68.81,1.22-.32,1.87-1.32,2.13-2.8C76.11,13.74,77,13.84,77.36,13.31Z"/><path class="cls-2" d="M67.64,21.41c-1,0-1.36.56-2,.94a1.39,1.39,0,0,0,1.86.17Z"/><path class="cls-2" d="M58.87,139.16c-.43-.09-.78-.74-1.11-.1C58.19,139.15,58.54,139.8,58.87,139.16Z"/><path class="cls-2" d="M60.52,129.22c.21,0,.45-.26,0-.37C60.35,128.82,60.1,129.11,60.52,129.22Z"/><path class="cls-2" d="M58,132.35c.11-.09-.13-.58-.34-.4S57.78,132.53,58,132.35Z"/><path class="cls-2" d="M12.63,57.95c-.39-.09-1,.2-.41.34C12.61,58.38,13.22,58.09,12.63,57.95Z"/><path class="cls-2" d="M57.89,46.33c-.06-.3.06-.73-.31-.77C57.65,45.85,57.53,46.29,57.89,46.33Z"/><path class="cls-2" d="M59.09,385.62c-.43-.09-.78-.74-1.12-.1C58.41,385.61,58.76,386.26,59.09,385.62Z"/><path class="cls-2" d="M60,185.26c-1.08-.47-.73.77-.88,1.42l1.12.1C60.34,186.08,59.85,185.92,60,185.26Z"/><path class="cls-2" d="M81.44,275.08c-.11.09.13.58.34.41S81.65,274.9,81.44,275.08Z"/><path class="cls-2" d="M60,238.37c-.74,0-.69-.57-1-.84l-.17,1.85.74.07C60,239.42,60,238.89,60,238.37Z"/><path class="cls-2" d="M60.39,2.05c0,.42-.59.53-.07.74A.38.38,0,0,0,60.39,2.05Z"/><path class="cls-2" d="M66.34,6.71c-.66-.75-2.09-.08-3,.1-.06,1-.69.69-.13,1.49C64.35,7.89,65.75,7.78,66.34,6.71Z"/><path class="cls-2" d="M63.58,20.67c.89,1.69-.09,1.25-.3,3.34,1.64.32,1.45-1.55,2.09-2.43C65,21.12,64.8,20.46,63.58,20.67Z"/><path class="cls-2" d="M63.79,26.67A1.78,1.78,0,0,0,64.7,29C64.26,28.33,65.05,26.65,63.79,26.67Z"/><path class="cls-2" d="M61.61,1,60.49.94C59.85,2,62.06,2.18,61.61,1Z"/><path class="cls-2" d="M61.68,4.42c-.06-.3.06-.73-.31-.77C61.43,3.94,61.32,4.37,61.68,4.42Z"/><path class="cls-2" d="M63.18,29.23c-.38-.09-1,.2-.41.34C63.16,29.66,63.76,29.37,63.18,29.23Z"/><path class="cls-2" d="M62.3,26.54s-.34,1.24-.47,1.08C62.64,28.59,62.9,26.49,62.3,26.54Z"/><path class="cls-2" d="M62.34,26.17l.07-.74c-.37,0-.42-.34-.71-.44C61.68,25.57,61.53,26.27,62.34,26.17Z"/><path class="cls-2" d="M64.61.94c-.44,0-1-.16-1.15.27.22,0,.44.09.34.4C64.26,1.62,64.69,1.58,64.61.94Z"/><path class="cls-2" d="M83.95,15c-1.21,1.31-.75-1.64-1.72-1.65.53,1.31,0,1.62-.94,2.16.44.66,2.09.31,2.53,1C83.38,15.62,84.9,15.21,83.95,15Z"/><path class="cls-2" d="M16.2,172l-.74-.07-.07.74.74.07Z"/><path class="cls-2" d="M16.62,63.55a1,1,0,0,0-1.18.64A1,1,0,0,0,16.62,63.55Z"/><path class="cls-2" d="M16.05,111.36c0,.44-.16,1,.27,1.15C16.3,112.06,16.48,111.46,16.05,111.36Z"/><path class="cls-2" d="M17.13,335.83c.11-.09-.13-.58-.34-.4S16.92,336,17.13,335.83Z"/><path class="cls-2" d="M20,54.88c.06.29-.06.73.31.77C20.28,55.36,20.39,54.92,20,54.88Z"/><path class="cls-2" d="M19.93,105.73c-2.22-.5-.4,1.68,0,0Z"/><path class="cls-2" d="M24.07,80.67c-.88-.23-.87.6-1.89.2.46,1.33.12,2.3.48,3,.09-.58,1-.2.84-1-1.15.27-.58-.88-.61-1.55C23.47,81.33,24.17,81.48,24.07,80.67Z"/><path class="cls-2" d="M19.76,422.83c.11-.09-.13-.58-.34-.41S19.55,423,19.76,422.83Z"/><path class="cls-2" d="M17,121.54c.11-.09-.13-.58-.34-.4S16.8,121.72,17,121.54Z"/><path class="cls-2" d="M16.31,274.43c.11-.09-.13-.58-.34-.4S16.1,274.6,16.31,274.43Z"/><path class="cls-2" d="M16.81,36.64c-1.24,1.15,1.27,1.25,0,0Z"/><path class="cls-2" d="M15.9,42.54c1.09.35-.43.76-.13,1.49,1.78.73,3.53-2.19,1.35-2.5C17.27,44,16.31,41.9,15.9,42.54Z"/><path class="cls-2" d="M13.64,270.82c-.24.53-.63.89-.88,1.42C14.1,272.73,14.79,271,13.64,270.82Z"/><path class="cls-2" d="M16.33,33.6c-.76-1.37-2.54.13-3.24-1.41.56-.43.39-1.73.94-2.16-.67.15-2.14-.65-2.26.17.42.53-1.85,1.33-2.09,2.43.76-.42,2.25-.9,2.57.61-.49-.58-1.39-.68-1.18.64,1.15.14,1.17-1.07,2.67-.51C13.15,34.49,16.7,34.81,16.33,33.6Z"/><path class="cls-2" d="M18.14,55.08c-2,.72,1.19,1.07,0,0Z"/><path class="cls-2" d="M23.9,78.41l.07-.74c-.47-.06-.47-.52-1.08-.47,0,.56-.26,1.36.24,1.52C23.23,78.43,23.47,78.31,23.9,78.41Z"/><path class="cls-2" d="M17.23,56.87c-.06-.3.06-.73-.3-.78C17,56.39,16.87,56.83,17.23,56.87Z"/><path class="cls-2" d="M17.07,124.92c.18-.84,0-1.4-.61-1.55C16.49,124,15.92,125.19,17.07,124.92Z"/><path class="cls-2" d="M39.82,374.91c.11-.09-.13-.58-.34-.4S39.61,375.08,39.82,374.91Z"/><path class="cls-2" d="M53.24,14.87c.11-.09-.13-.58-.34-.41S53,15,53.24,14.87Z"/><path class="cls-2" d="M39.78,354.71c-.46,0-.27.39-.07.74A.38.38,0,0,0,39.78,354.71Z"/><path class="cls-2" d="M52.22,1.32c.21-.69,1.41-.19,1.25-1.32H52C51.76.71,51.23,1,52.22,1.32Z"/><path class="cls-2" d="M55.74,12.11c.11-.09-.13-.58-.34-.4S55.53,12.28,55.74,12.11Z"/><path class="cls-2" d="M83.77.43c.68-.1,2,.61,1.93-.43H84.3A1.34,1.34,0,0,0,83.77.43Z"/><path class="cls-2" d="M67.25.81c.62,1,1,2.14,1.59,3.13,1-.32,2.91-.44,2.5,1.35a2.1,2.1,0,0,1,1.45.5c-.15-1.42,1.49-.68,1.65-1.72-.45-.08-.87-.19-.68-.81-.95-.52-2.25.52-2.23-.2,1-.3.59-.91.91-1.78.18-.5.76-.85,1.24-1.28H68.13A1.34,1.34,0,0,1,67.25.81Z"/><path class="cls-2" d="M86,.63c-.11.09.13.58.34.4S86.21.46,86,.63Z"/><path class="cls-2" d="M98.5,3.25c-1,1.16,1.33-.78,0,0Z"/><path class="cls-2" d="M25.71,58.38c-.46,0-.27.39-.07.74A.38.38,0,0,0,25.71,58.38Z"/><path class="cls-2" d="M22.72,174.41c0,.37-.34.41-.44.71.37,0,.41.34.71.44,0-.37.34-.42.44-.71C23.06,174.82,23,174.51,22.72,174.41Z"/><path class="cls-2" d="M39.49,328.88c.11-.09-.13-.58-.34-.4S39.28,329.05,39.49,328.88Z"/><path class="cls-2" d="M22.12,272.34a1,1,0,0,0-.64-1.18A1,1,0,0,0,22.12,272.34Z"/><path class="cls-2" d="M22.32,270.11c.06.3-.06.73.3.78C22.56,270.59,22.68,270.15,22.32,270.11Z"/><path class="cls-2" d="M36.77,222.06c.21,0,.45-.26,0-.37C36.6,221.66,36.36,221.95,36.77,222.06Z"/><path class="cls-2" d="M39.84,258.61s-.35,0-.37,0-.74-.42-.71-.44C38.18,258.49,40,259.94,39.84,258.61Z"/><path class="cls-2" d="M36.1,183.85c.11-.09-.13-.58-.34-.4S35.89,184,36.1,183.85Z"/><path class="cls-2" d="M38.77,266.36l-.74-.07L38,267l.74.07Z"/><path class="cls-2" d="M66.71,2.63l-.07.74.74.07.07-.74Z"/><path class="cls-2" d="M140.8,7.82c1.46.37,2-1.55,3-.47.17-1.63.57-3.45-.78-3.81-1.76.17-4.18-.36-4.36,2.6a7.07,7.07,0,0,1,2,2.8Z"/><path class="cls-2" d="M145.18.74c-1.17-1,.79,1.33,0,0Z"/><path class="cls-2" d="M150,395a.38.38,0,0,0,.07-.74C150.1,394.64,149.51,394.75,150,395Z"/><path class="cls-2" d="M142.3,82.38c-.2,1,.41,1.26,1.39,1.25C143.89,82.66,143.28,82.36,142.3,82.38Z"/><path class="cls-2" d="M149.74,41.54a.38.38,0,0,0,.07-.74C149.81,41.22,149.21,41.33,149.74,41.54Z"/><path class="cls-2" d="M5.54,53.57c-1-1.13-1.07,1.13-2.67.51,0-.37-.26-.47-.31-.77.19-.5,2.21-.86,1.25-1.38-.7.42-1.25-1.33-2.5-1.35a.59.59,0,0,0-.31.08v5.2a29.88,29.88,0,0,0,3.53.62C5.05,55.35,4.63,54.74,5.54,53.57Z"/><path class="cls-2" d="M3.79,392.22c-.06-.3.06-.73-.3-.78C3.55,391.74,3.43,392.18,3.79,392.22Z"/><path class="cls-2" d="M150.75,38.64c0-.49.68-.28.81-.67-.87,0-.32-1.11-1-1.21C150.7,37.31,149.94,38.63,150.75,38.64Z"/><path class="cls-2" d="M91.22,299.52c-.39-.09-1,.2-.41.34C91.2,299.95,91.8,299.66,91.22,299.52Z"/><path class="cls-2" d="M3.13,221.26c-.11.09.13.58.34.41S3.34,221.08,3.13,221.26Z"/><path class="cls-2" d="M138.7,2l-1.12-.1C136.94,3,139.15,3.16,138.7,2Z"/><path class="cls-2" d="M141.5,0a.08.08,0,0,0,0,0h-.25A.16.16,0,0,0,141.5,0Z"/><path class="cls-2" d="M89.74,33.88c-.39-.33,0-.86-.64-1.18.09,0-.59.49-.74-.07-.7,1.27,1.24.34,1,1.21a1.89,1.89,0,0,0-1.22,1c1.85.16,2.23-.25,3.34.3C92.24,33.79,90.29,34.34,89.74,33.88Z"/><path class="cls-2" d="M139.17,42.46c-.84-.32-.93,1.38-.1,1.11C139.38,43.47,139.6,42.62,139.17,42.46Z"/><path class="cls-2" d="M139.74,139.74c-.84-.32-.93,1.38-.1,1.11C140,140.75,140.18,139.9,139.74,139.74Z"/><path class="cls-2" d="M139.26,302.74c-.11.09.13.58.34.4S139.47,302.57,139.26,302.74Z"/><path class="cls-2" d="M138.78,67.47c.21,0,.45-.26,0-.37C138.61,67.08,138.36,67.37,138.78,67.47Z"/><path class="cls-2" d="M139.62,377.56c-.47-.06-.47-.52-1.08-.47l-.07.74c.47.07.47.52,1.08.47Z"/><path class="cls-2" d="M142.4,0a.52.52,0,0,0,.21.13s0-.07.17-.13Z"/><path class="cls-2" d="M174.61,280.5l-1.12-.1-.07.74c.37,0,.42.34.71.44C174.2,281.11,174.66,281.11,174.61,280.5Z"/><path class="cls-2" d="M135.19,285.54c-.45-.53-1.34-.62-1.52.24C134.12,286.31,135,286.39,135.19,285.54Z"/><path class="cls-2" d="M99,379.13c.39-.73-.81-1.75-1-.84C98.49,378.43,98.54,379,99,379.13Z"/><path class="cls-2" d="M134.11,281c-.8-.23-2.15.92-1.25,1.38C133,281.59,133.93,281.7,134.11,281Z"/><path class="cls-2" d="M173.79,90.46c-2.22-.5-.4,1.68,0,0Z"/><path class="cls-2" d="M217.88,141.56c-.37,0-.42-.34-.71-.44,0,.37-.34.41-.44.71.37,0,.42.34.71.44C217.47,141.9,217.78,141.85,217.88,141.56Z"/><path class="cls-2" d="M217.12,112.7c-.11.09.13.58.34.4S217.33,112.52,217.12,112.7Z"/><path class="cls-2" d="M219.77,178.75c.21,0,.45-.26,0-.37C219.59,178.36,219.35,178.64,219.77,178.75Z"/><path class="cls-2" d="M221.36,136.26c-.06-.29.06-.73-.31-.78C221.11,135.78,221,136.22,221.36,136.26Z"/><path class="cls-2" d="M2.07,162.45c0,.42-.59.53-.07.74A.38.38,0,0,0,2.07,162.45Z"/><path class="cls-2" d="M1.8,165.42c.21,0,.45-.26,0-.37C1.63,165,1.39,165.31,1.8,165.42Z"/><path class="cls-2" d="M46,389.67c.73,2,1.08-1.19,0,0Z"/><path class="cls-2" d="M2.08,174.79l-.74-.07-.07.74.74.07Z"/><path class="cls-2" d="M99.51,373.57c-.43-.1-.35-.62-.27-1.15-.92.13-1.94.14-2,1.31A1.51,1.51,0,0,0,99.51,373.57Z"/><path class="cls-2" d="M2.39,362.17c-.11.09.13.58.34.4S2.6,362,2.39,362.17Z"/><path class="cls-2" d="M97.16,383.08l-.74-.07c-.66.86,1.16,1.2,1.08.47C97.27,383.44,97.06,383.39,97.16,383.08Z"/><path class="cls-2" d="M87.45,461.48l-.74-.07-.07.74h.15l.63-.37Z"/><path class="cls-2" d="M68.91,289.28l-1.11-.1C67.16,290.21,69.36,290.41,68.91,289.28Z"/><path class="cls-2" d="M66.91,95.76c-.11.09.13.58.34.4S67.12,95.59,66.91,95.76Z"/><path class="cls-2" d="M74,17.12l-.74-.07c0,.37-.34.41-.44.71C73.42,17.78,74.12,17.93,74,17.12Z"/><path class="cls-2" d="M67.35,372.91c.21,0,.45-.26,0-.37C67.18,372.51,66.94,372.8,67.35,372.91Z"/><path class="cls-2" d="M91.06,89.72c.11-.09-.13-.58-.34-.4S90.85,89.89,91.06,89.72Z"/><path class="cls-2" d="M69.48,278.86c.11-.09-.13-.58-.34-.4S69.27,279,69.48,278.86Z"/><path class="cls-2" d="M78.69,27.64c-1-.19-1.61,0-1.59,1l1.49.13Z"/><path class="cls-2" d="M76,293.66c-.06-.29.06-.73-.3-.78C75.76,293.18,75.65,293.62,76,293.66Z"/><path class="cls-2" d="M77.63,101.59l-1.12-.1C75.87,102.52,78.08,102.72,77.63,101.59Z"/><path class="cls-2" d="M77.83,99.37c.11-.09-.13-.58-.34-.41S77.62,99.54,77.83,99.37Z"/><path class="cls-2" d="M77,378.26a1.75,1.75,0,0,1-1.08-.47l-.07.74C76.34,379,76.71,379,77,378.26Z"/><path class="cls-2" d="M74.63,114c0-.71.49-.78.51-1.45l-1.86-.17C72.94,114.31,74,113.46,74.63,114Z"/><path class="cls-2" d="M66.72,338.44c-.43-.09-.78-.74-1.11-.1C66,338.44,66.39,339.08,66.72,338.44Z"/><path class="cls-2" d="M64,115.69c1.3-.57-1-1.91-.74-.07Z"/><path class="cls-2" d="M65.88,107.26c-.66,0-1.76-1.21-2.23-.2C64.14,107.22,65.73,108.94,65.88,107.26Z"/><path class="cls-2" d="M64.19,63.73c-.47-.07-.47-.52-1.08-.47L63,64C63.54,64.46,63.91,64.48,64.19,63.73Z"/><path class="cls-2" d="M67.14,126.45c.11-.09-.13-.58-.34-.4S66.93,126.62,67.14,126.45Z"/><path class="cls-2" d="M63.74,97.72l.74.07.07-.74L63.81,97Z"/><path class="cls-2" d="M69,35.74c-1.4.1-2.26-1.16-3.34-.3l-.13,1.48c.43.55,1.58.51,2.57.61C68.28,36.83,68.94,36.67,69,35.74Z"/><path class="cls-2" d="M66.67,86c.11-.09-.13-.58-.34-.4S66.46,86.19,66.67,86Z"/><path class="cls-2" d="M75.67,148.16c-1.41-.68.11-.43.13-1.48-1-.24-1-1.21-2.13-1.32C72.9,146.25,74.29,150,75.67,148.16Z"/><path class="cls-2" d="M88.75,65.57c-.66.86,1.16,1.2,1.08.47-.22,0-.43-.1-.34-.41Z"/><path class="cls-2" d="M89.63,155.4c0-.42.59-.53.07-.74A.38.38,0,0,0,89.63,155.4Z"/><path class="cls-2" d="M89.08,99.26c-.46,0-.27.39-.07.74A.38.38,0,0,0,89.08,99.26Z"/><path class="cls-2" d="M88.9,43.15c-.45-.53-1.34-.61-1.52.24C87.83,43.91,88.72,44,88.9,43.15Z"/><path class="cls-2" d="M87.93,331.76c-.38-.09-1,.2-.41.34C87.91,332.19,88.51,331.9,87.93,331.76Z"/><path class="cls-2" d="M90.39,325.25c-.06-.29.06-.73-.31-.77C90.14,324.77,90,325.21,90.39,325.25Z"/><path class="cls-2" d="M91,132.34l-.74-.07-.07.74.74.07Z"/><path class="cls-2" d="M88.76,442.9c.11-.09-.13-.58-.34-.41S88.55,443.07,88.76,442.9Z"/><path class="cls-2" d="M89.06,124.31c-1.17-1,.79,1.32,0,0Z"/><path class="cls-2" d="M78.11,345.08a.38.38,0,0,0,.07-.74C77.72,344.38,77.91,344.73,78.11,345.08Z"/><path class="cls-2" d="M82.09,338.34l-.74-.07-.07.74.74.07Z"/><path class="cls-2" d="M81.5,407.09l.07-.74c-.37,0-.42-.34-.71-.44C80.84,406.5,80.69,407.19,81.5,407.09Z"/><path class="cls-2" d="M88.15,30.74c-.91.07-.75-.75-1.82-.54a1.76,1.76,0,0,1-.47,1.08C86.84,31.37,88,31.68,88.15,30.74Z"/><path class="cls-2" d="M78.75,163.77,78,163.7l-.07.74.74.07Z"/><path class="cls-2" d="M82.62,411.31l-.74-.07-.07.74.74.07Z"/><path class="cls-2" d="M84.93,385.71c.21,0,.45-.26,0-.37C84.76,385.32,84.51,385.6,84.93,385.71Z"/><path class="cls-2" d="M89.86,15.94c0,.42-.59.53-.07.74A.38.38,0,0,0,89.86,15.94Z"/><path class="cls-2" d="M83.35,353.41s-.35,0-.37,0-.74-.42-.71-.44C81.7,353.29,83.47,354.75,83.35,353.41Z"/><path class="cls-2" d="M48.42,26.78c0,.42-.59.53-.07.74A.38.38,0,0,0,48.42,26.78Z"/><path class="cls-2" d="M9.86,55.45c-2.22-.5-.4,1.68,0,0Z"/><path class="cls-2" d="M9.58,79.36c-.11.09.13.58.34.4S9.79,79.19,9.58,79.36Z"/><path class="cls-2" d="M10.16,93.63c-.06-.3.06-.73-.3-.78C9.91,93.15,9.8,93.58,10.16,93.63Z"/><path class="cls-2" d="M10.42,256.7c-.43-.09-.78-.74-1.11-.1C9.74,256.69,10.08,257.33,10.42,256.7Z"/><path class="cls-2" d="M10,87.25c-.21,0-.45.26,0,.37C10.16,87.64,10.4,87.36,10,87.25Z"/><path class="cls-2" d="M11.05,67.16c.11-.09-.13-.58-.34-.4S10.84,67.33,11.05,67.16Z"/><path class="cls-2" d="M11.13,174.11a.38.38,0,0,0,.07-.74C11.2,173.79,10.61,173.9,11.13,174.11Z"/><path class="cls-2" d="M10.65,158.74c-.21,0-.45.26,0,.37C10.82,159.13,11.06,158.85,10.65,158.74Z"/><path class="cls-2" d="M10.29,361.77c-.46,0-.27.39-.07.74A.38.38,0,0,0,10.29,361.77Z"/><path class="cls-2" d="M20.68,250.89c-.44,0-1-.16-1.15.27.22,0,.44.1.34.41C20.33,251.56,20.76,251.54,20.68,250.89Z"/><path class="cls-2" d="M18.28,381.19c.06.3-.06.73.31.77C18.52,381.67,18.64,381.23,18.28,381.19Z"/><path class="cls-2" d="M18.85,291.86c-.37,0-.42-.34-.71-.44,0,.58-.17,1.28.64,1.18Z"/><path class="cls-2" d="M18.54,365.88c-1.16-1,.79,1.33,0,0Z"/><path class="cls-2" d="M10,54.34c1.09.07,1.46-.72,2-1.32C10.7,52.76,9.83,52.95,10,54.34Z"/><path class="cls-2" d="M17.68,118.24c.21,0,.45-.26,0-.37C17.51,117.85,17.26,118.13,17.68,118.24Z"/><path class="cls-2" d="M33.69,24c1.17-.78,1.32.84,1.86.17C35.22,23.87,33.78,22.3,33.69,24Z"/><path class="cls-2" d="M10.14,251.44c.21,0,.45-.26,0-.37C10,251,9.73,251.33,10.14,251.44Z"/><path class="cls-2" d="M18.21,58.45a2.09,2.09,0,0,1-1.45-.5A.78.78,0,1,0,18.21,58.45Z"/><path class="cls-2" d="M19.1,119.11c-.24.85-1.73.84-.91,1.79C19.13,120.88,20.39,119.44,19.1,119.11Z"/><path class="cls-2" d="M1,0V.21c.23-.08.46-.15.7-.21Z"/><path class="cls-2" d="M50,13.83c-.11.09.13.58.34.4S50.17,13.65,50,13.83Z"/><path class="cls-2" d="M45.57,16.8c-.29.77-1.46,1.9-.2,2.22C45,17.91,46.56,17.23,45.57,16.8Z"/><path class="cls-2" d="M50.16,7.49c-1.64-.71-4.5,1-4.09-.37.08-.25,1.16-.23,1.18-.64-1.75-.18-2,1.4-3.17,2,0-.45,0-.89-.68-.81-.22,2,.64,1.07,1.72,1.65a1,1,0,0,0,.64,1.18c-.26-2.09,1.87-1.33,2.8-2-.23.88.6.87.2,1.89,1,.19,1.61,0,1.59-1C49.5,8.64,50,8.87,50.16,7.49Z"/><path class="cls-2" d="M43.79,20c-.28-.11-.4-.35-.3-.78-1.77.07-2.63,1.24-4.26,1.48-.36,1,.67.81.61,1.55a3.87,3.87,0,0,0,2.33-.91c-.13.08-.54-.22-.34-.4C42.29,20.52,43.54,20.75,43.79,20Z"/><path class="cls-2" d="M36.7,23.85c-.25-.52-.7-2.58-1.35-1.62C36,22.63,35.83,23.65,36.7,23.85Z"/><path class="cls-2" d="M41.51,281.57c-.11.09.13.58.34.4S41.72,281.39,41.51,281.57Z"/><path class="cls-2" d="M40.25,30.15c-.27,1.73,1.63,1.15,1.86.17Z"/><path class="cls-2" d="M50.76.81c-.11.09.13.58.34.4S51,.64,50.76.81Z"/><path class="cls-2" d="M5.81,382.3c.21,0,.45-.26,0-.37C5.64,381.91,5.4,382.2,5.81,382.3Z"/><path class="cls-2" d="M6.49,67.86l-1.11-.1-.1,1.11Q6.48,69.09,6.49,67.86Z"/><path class="cls-2" d="M5.35,122c.06.29-.06.73.31.77C5.6,122.47,5.71,122,5.35,122Z"/><path class="cls-2" d="M12.59,46c.33-1.3,1.24-3.46.77-4.42-1.36-.67-.22,1.65-1.59,1-.66-.76,0-1.37.2-2.22-2.3.18-2.06.69-4.12,0a2.09,2.09,0,0,0-.24-1.52c-1.27.14-1.3-.75-1.35-1.62-.86,0-1.39-.22-1.42-.88.22-1.26-.3-1.32-.58-1.92a6.08,6.08,0,0,0-1-1.58c-.09-.11-.22-.7-.3-.77s-.88.09-1.12-.1c-.4-.32-.4-1.1-.87-1.34v5.34a9.28,9.28,0,0,1,.44.82,2.81,2.81,0,0,0-.44,0v13.1l1.49.13a5.87,5.87,0,0,1,2.4-1.65c2,.15,4.08.49,4.93-.68-.28-.11-.73-.08-.71-.44C10.31,46.81,10.76,45.57,12.59,46Z"/><path class="cls-2" d="M7.77,418.75c0,1-2.05-.53-1.59,1C7.3,420.34,8.54,419.05,7.77,418.75Z"/><path class="cls-2" d="M7,141.21c-.11.09.13.58.34.4S7.2,141,7,141.21Z"/><path class="cls-2" d="M7.23,287.82c0-.44.16-1-.27-1.15C7,287.12,6.8,287.72,7.23,287.82Z"/><path class="cls-2" d="M7.44,65.71c.11-.09-.13-.58-.34-.4S7.23,65.88,7.44,65.71Z"/><path class="cls-2" d="M8.2,223.21l-.74-.07-.07.74.74.07Z"/><path class="cls-2" d="M24,35.42c.27.69,1,1,.54,2.29,1.16.29,1.37-.55,2.63-.14.06-1.47-1.51-2.86-2.8-2.12.06-.47.52-.47.47-1.08-.82-.63-1.61,0-1.82-.54.28-1.15-.33-1.56-.95-2-1.84.26-3.38.88-5.34,1,.53,1.33-.74,2.59-.3,3.34,1.07-.59.18-1.25.91-1.79,1.8.23.4,2.83.41,3.78,1.13.53,1-.5,1.55-.61a1.64,1.64,0,0,0,1.42.88c.5-2.44-1.65-.64-2.06-2.06,1.74.14.8-1,.94-2.16C20.94,35.7,22.06,35.39,24,35.42Z"/><path class="cls-2" d="M41.67,449.86c-.11.09.13.58.34.4S41.88,449.69,41.67,449.86Z"/><path class="cls-2" d="M42.22,418.87l-.74-.07-.07.74.74.07Z"/><path class="cls-2" d="M50.56,272.66c.11-.09-.13-.58-.34-.41S50.35,272.84,50.56,272.66Z"/><path class="cls-2" d="M41.53,256.51c-1.14,0-1.34-1.32-2.2-.57C38.46,257.74,41.7,258.24,41.53,256.51Z"/><path class="cls-2" d="M37.5,425.55a.38.38,0,0,0,.07-.74C37.11,424.85,37.3,425.2,37.5,425.55Z"/><path class="cls-2" d="M21.12,436.79c.71,0,.78.49,1.45.5.16-.49.59-.66.51-1.45-1.42.36-1.12-2.46-2.13-1.31C21.77,434.65,21,436.12,21.12,436.79Z"/><path class="cls-2" d="M36.23,265.38c-.11.09.13.58.34.4S36.44,265.21,36.23,265.38Z"/><path class="cls-2" d="M40.36,269.5a1,1,0,0,0,.64,1.18C41,270.09,41.16,269.39,40.36,269.5Z"/><path class="cls-2" d="M36,263.87c.75.64,1,1.71,2.47,1.72C39,263.94,36.42,262.59,36,263.87Z"/><path class="cls-2" d="M45.58,29.14c0,.42-.59.53-.07.74A.38.38,0,0,0,45.58,29.14Z"/><path class="cls-2" d="M46.64,38.21c-.47-.06-.47-.52-1.08-.47l-.07.74C46,38.94,46.36,39,46.64,38.21Z"/><path class="cls-2" d="M47.1,24.79c-.93-.25-1.65,1.8-.94,2.16C46.08,25.76,47.37,26.21,47.1,24.79Z"/><path class="cls-2" d="M45.41,304.73c.06.3-.06.73.3.77C45.66,305.21,45.78,304.77,45.41,304.73Z"/><path class="cls-2" d="M48.64,285.58c-.22,0-.44-.09-.34-.4l-.74-.07C46.9,286,48.73,286.31,48.64,285.58Z"/><path class="cls-2" d="M48.34,293a1,1,0,0,0-.64-1.18A1,1,0,0,0,48.34,293Z"/><path class="cls-2" d="M34.48,89.84c-.13.22-1.05,1.35-.13,1.48C34.05,90.6,35.57,90.18,34.48,89.84Z"/><path class="cls-2" d="M49.54,317.07c-.21,0-.45.26,0,.37C49.72,317.46,50,317.18,49.54,317.07Z"/><path class="cls-2" d="M47.43,332.21c0,.34,2,.38.78-.3C48,331.79,47.41,332,47.43,332.21Z"/><path class="cls-2" d="M50.43,195.24c-.22,0-.44-.09-.34-.41l-.74-.07C48.69,195.63,50.52,196,50.43,195.24Z"/><path class="cls-2" d="M27,164l-.74-.07-.07.74.74.07Z"/><path class="cls-2" d="M26,62.9l-.74-.07-.07.74.74.07Z"/><path class="cls-2" d="M27.28,128.08c0-.42.59-.53.07-.74A.38.38,0,0,0,27.28,128.08Z"/><path class="cls-2" d="M27.06,201l-.74-.07-.07.74.74.07Z"/><path class="cls-2" d="M23.52,435.14c0,.44-.16,1,.27,1.15C23.77,435.84,23.95,435.24,23.52,435.14Z"/><path class="cls-2" d="M29.3,437.53c-.11.09.13.58.34.4S29.51,437.35,29.3,437.53Z"/><path class="cls-2" d="M25.45,438.67c-.11.09.13.58.34.41S25.66,438.5,25.45,438.67Z"/><path class="cls-2" d="M25.35,120.43c-.88,0-1.45.46-2.63.14l-.07.74c-1.66,0,0,2,.68.81C22.25,121.07,25.49,121.72,25.35,120.43Z"/><path class="cls-2" d="M24.07,122.18c.11-.09-.13-.58-.34-.4S23.86,122.36,24.07,122.18Z"/><path class="cls-2" d="M34,70.35l.74.07C36,69.84,33.78,68.51,34,70.35Z"/><path class="cls-2" d="M30.77,48c-2.22-.5-.4,1.68,0,0Z"/><path class="cls-2" d="M34.85,44.25a1.87,1.87,0,0,0-2,1.32C34,45.64,35,45.62,34.85,44.25Z"/><path class="cls-2" d="M34.24,266.7c.11-.09-.13-.58-.34-.41S34,266.88,34.24,266.7Z"/><path class="cls-2" d="M32.73,192.15l.74.07.07-.74-.74-.07Z"/><path class="cls-2" d="M33.54,100.23c-.84-.32-.94,1.38-.1,1.11C33.75,101.24,34,100.39,33.54,100.23Z"/><path class="cls-2" d="M37.38,41.11c-1.58-.51-2.1.23-3,.47,0-1.66.68-1.8.27-3-1.59-.54-1.33,1.14-2.7.88-.64-.41-2.13-.66-1-1.58-1.38.4-2.09,1.61-3.89,1.52-.83-.56-.69,0-1.82-.54.11,1.23-.41,1.7-.61,2.56,1.44.31,2.07,2.65,1.15,3.84,1,.16,1.49.82,2.53,1,.52-1.35-1.34-.71-.95-2,2.49-.18,4.07-1.44,7.19-.85C34.56,41.57,37.25,42.87,37.38,41.11Z"/><path class="cls-2" d="M31.12,384.22c0,.42-.59.53-.07.74A.38.38,0,0,0,31.12,384.22Z"/><path class="cls-2" d="M31.24,411.9c-.11.09.13.58.34.4S31.45,411.73,31.24,411.9Z"/><path class="cls-2" d="M47.94,19.63c-.06-.3.06-.73-.3-.78C47.69,19.15,47.58,19.59,47.94,19.63Z"/><path class="cls-2" d="M41.31,5.94c-.41,1.06-1.18-.33-1.86-.17-.62.82-.85.62-.54,1.82.79.41,1.5-.64,2-.94C40.36,7,42.83,6.47,41.31,5.94Z"/><path class="cls-2" d="M41.34,1.46c-1,.5-2.65.12-2.77,1.62C40.21,3.65,42.1,2.4,41.34,1.46Z"/><path class="cls-2" d="M34.31.45A1,1,0,0,1,34.38,0H34C34,.26,34.14.45,34.31.45Z"/><path class="cls-2" d="M32.16,16c.11-.09-.13-.58-.34-.41S32,16.14,32.16,16Z"/><path class="cls-2" d="M1.38,8.32c-.15.92.75,1,1,1.58C2.27,9.18,2.37,8.29,1.38,8.32Z"/><path class="cls-2" d="M32.12,4c-.11.09.13.58.34.4S32.33,3.82,32.12,4Z"/><path class="cls-2" d="M32.2,23.82c.29-1.68-1-2-2.1-1.68C29.58,24,31,24.23,32.2,23.82Z"/><path class="cls-2" d="M32.13,20.44c.11-.09-.13-.58-.34-.4S31.92,20.62,32.13,20.44Z"/><path class="cls-2" d="M31.56,18.52c-.28-.11-.4-.35-.3-.78C29.06,17.54,30.65,20.26,31.56,18.52Z"/><path class="cls-2" d="M2.58,28.25c.11-.09-.13-.58-.34-.4S2.37,28.42,2.58,28.25Z"/><path class="cls-2" d="M26.38,5.34c-.16.49-.59.66-.5,1.45C27.11,7.19,27.45,5.51,26.38,5.34Z"/><path class="cls-2" d="M23.1.18c.06.3-.06.73.3.77C23.34.66,23.46.23,23.1.18Z"/><path class="cls-2" d="M20.1,8.51c-.21,0-.45.26,0,.37C20.27,8.9,20.51,8.62,20.1,8.51Z"/><path class="cls-2" d="M28.17,14.48a.38.38,0,0,0,.07-.74C28.24,14.16,27.65,14.27,28.17,14.48Z"/><path class="cls-2" d="M1.76,12.46c.23,0,.45,0,.41-.34-.61-.14-.85-.6-1.16-1v.53h.08c0,.44-.16,1,.27,1.15C1.39,12.58,1.45,12.37,1.76,12.46Z"/><path class="cls-2" d="M1.25,18c.1-.08-.07-.46-.25-.44V18C1.07,18.06,1.16,18.1,1.25,18Z"/><path class="cls-2" d="M28.38,12.25c.11-.09-.13-.58-.34-.4S28.17,12.43,28.38,12.25Z"/><path class="cls-2" d="M1.18,2.32c0,.77,1.64.24,1.39,1.25s-.86,1-1.56.85V5.92c.91.26,1.79.55,2.78.74.54-.18.18-1.42.88-1.42,1.2.71,1.73-1.43,2.26-.17,0,.23,0,.45.34.41.28-1.15-1.06-.94-.54-2.29,1.15.25,2.22-1.69,2.7-.88A7.66,7.66,0,0,0,8.1,4.44c.93.6,2.62-.8,2.84-2.36A6.79,6.79,0,0,0,8.66,0H2.5C2.36,1.13,1.47,1.36,1.18,2.32Z"/><path class="cls-2" d="M18.31,7.6c-.21,0-.45.26,0,.37C18.48,8,18.72,7.71,18.31,7.6Z"/><path class="cls-2" d="M47.52,3.51c.11-.09-.13-.58-.34-.4S47.31,3.69,47.52,3.51Z"/><path class="cls-2" d="M45.06,5.91c.34-.08,2-.57.84-1C46.16,5.65,43.95,5.43,45.06,5.91Z"/><path class="cls-2" d="M48.77,2.13c0,.42-.59.53-.07.74A.38.38,0,0,0,48.77,2.13Z"/><path class="cls-2" d="M44.66,14.47c.66-.33,2-1.28.54-1.82C45.51,13.64,43.48,13.8,44.66,14.47Z"/><path class="cls-2" d="M49.21,5.53l-.07.74.74.07L50,5.6Z"/><path class="cls-2" d="M44.66,10.36c-.25-.53-.37-.09,0,.37S44.88,10.84,44.66,10.36Z"/><path class="cls-2" d="M43.5,2.4c.11-.09-.13-.58-.34-.4S43.29,2.57,43.5,2.4Z"/><path class="cls-2" d="M38.81.48a1.65,1.65,0,0,0,2-.48H38.87A1.46,1.46,0,0,1,38.81.48Z"/><path class="cls-2" d="M45.36,2.57c-1.07.62-1.6.23-2.26.17s-1.38.91-1.59,1S39.76,3,40,4.32c.27.58,1.15.64,1.79.91a3.94,3.94,0,0,0,2-1.69c.29,1.21,2.31.93,3,.27-1.57-.08.06-.57.1-1.11-.35-.4-.69-.8-1-1.21.88,0,1-.87,1.39-1.49H45.76A2,2,0,0,0,45.36,2.57Z"/><path class="cls-2" d="M32.91,24.26c0,.22-.1.43-.41.34l-.07.74C33.3,26,33.65,24.17,32.91,24.26Z"/><path class="cls-2" d="M44.19,11.44c-.46,0-.27.39-.07.74A.38.38,0,0,0,44.19,11.44Z"/><path class="cls-2" d="M33.45,22.43l-.74-.07-.07.74.74.07Z"/><path class="cls-2" d="M33.34,11.21a3.16,3.16,0,0,0-.17-2.26c-1.15-.28-1.5.4-2.3.54.28,1.45-1.19,2.23.14,2.63C31.58,11.57,32.88,11.89,33.34,11.21Z"/><path class="cls-2" d="M32.09,12.59c.21,0,.45-.26,0-.37-.06.61-1,.11-1.18.64.5,0,1.27,1.37,1.45.51C32.11,13.26,32,13,32.09,12.59Z"/><path class="cls-2" d="M32.35,38.79c.11-.09-.13-.58-.34-.4S32.14,39,32.35,38.79Z"/><path class="cls-2" d="M43.68,12.89c-.46,0-.27.39-.07.74A.38.38,0,0,0,43.68,12.89Z"/><path class="cls-2" d="M33.24,16.43c.11-.09-.13-.58-.34-.4S33,16.61,33.24,16.43Z"/><path class="cls-2" d="M33.41,18.69c-.21,0-.45.26,0,.37C33.59,19.08,33.83,18.8,33.41,18.69Z"/><path class="cls-2" d="M12.3,11.92c-.21,0-.45.26,0,.37C12.47,12.31,12.71,12,12.3,11.92Z"/><path class="cls-2" d="M40.57,14.1c.89-.92-2.24-3.23,0-3.74-.25.06.4,1.36,1,.84-.18-1.31.68-1.38.61-2.56-2.53.63-2.95-.76-5.54-.88,0-.44.16-1-.27-1.14-.75,1-1.46-1.43-2.26.17,1.54.21,1,2.15,2.4,2.46a6,6,0,0,1-2.77,1.62c0,1.48-1,1.78-1,3.27.74,1.21,3.83.47,2.71,3.24,2.23.79,2.27-1.49,2.43-2,.49,0,.28.68.68.81-.08-1.6,1.44-.87.17-1.85,1.58-.06,2,.84,3.28,1,1,.12.8-.55,1.49.13,0-.71.49-.78.51-1.45C42.65,13.13,42.54,14.73,40.57,14.1Z"/><path class="cls-2" d="M29.8,21.36c-1.17-1,.79,1.32,0,0Z"/><path class="cls-2" d="M42.4,18.75c.11-.09-.13-.58-.34-.4S42.19,18.93,42.4,18.75Z"/><path class="cls-2" d="M39.17,29.68c.92.14,1.8.23,1.93-.57a1,1,0,0,1-.64-1.18c.3-.06.73.06.78-.3C39.81,27.44,39.48,28.55,39.17,29.68Z"/><path class="cls-2" d="M24.06,22.71c.21,0,.45-.26,0-.37C23.89,22.32,23.64,22.6,24.06,22.71Z"/><path class="cls-2" d="M25.07,23.92l.07-.74-.74-.07-.07.74Z"/><path class="cls-2" d="M26.59,23.68c-.11.09.13.58.34.41S26.8,23.51,26.59,23.68Z"/><path class="cls-2" d="M29.29,18.69c-.42-.68-1.05.21-1.89.2s-1.84-.59-2.2-.57c-.51-2,1.52-2.17.67-3.31.51-.07.76-.46,1.52-.24.28-1.15-.4-1.5-.54-2.29-.66-.42-1.34,1-1.49-.13,2.13.3-.68-2.54,1.28-1.75-.16-1.73-2.56-1.54-3.92-2.23-.18-.09.11-1.16-.68-.81-.2,1.39-.82,1.63-.94,2.16-1.52.82-3.16.65-4.56.71,0,1.4,1.11,1.62,2.13,1.31.17.88.83,1.36,1.32,2,.93-.23,3.52-1.06,3.72.34a7.44,7.44,0,0,1-2.8,2c-.32,1.18.1,1.75.14,2.63a5.31,5.31,0,0,1-2.7.88c.41,1.86-1.2,1.3-1.35,2.5,1.08.2,1.22-.74,2.3-.54.38,1.71,1.64.64,2.87,1.38.87-.46-.39-.95.47-1.08,1.13.73,3.34-.24,3.88-1.52.48,0,.56-.43,1.15-.27,0,.37.26.47.31.78,0,.66-1.21,1.76-.2,2.23.1-.43.62-.35,1.15-.27a4.14,4.14,0,0,0-.48-3A1,1,0,0,0,29.29,18.69Z"/><path class="cls-2" d="M27.65,36.87c-.11.09.13.58.34.4S27.86,36.7,27.65,36.87Z"/><path class="cls-2" d="M41.28,18.65c.11-.09-.13-.58-.34-.4S41.07,18.83,41.28,18.65Z"/><path class="cls-2" d="M40.24,26c.11-.09-.13-.58-.34-.4S40,26.21,40.24,26Z"/><path class="cls-2" d="M37.64,25.8c.06.3-.06.73.3.78C37.89,26.28,38,25.85,37.64,25.8Z"/><path class="cls-2" d="M38.18,24c.56,0,1.4,1.52,1.82.54-.43-.1-.35-.62-.27-1.15C38.9,23.2,38.33,23.34,38.18,24Z"/><path class="cls-2" d="M38.49,28.87a2.1,2.1,0,0,1-1.45-.5c.11,1.2-.8,1.08-.17,1.86C38,30.5,38,29.38,38.49,28.87Z"/><path class="cls-2" d="M39.61,41.31c-.47-.06-.47-.52-1.08-.47l-.07.74C39,42,39.34,42.07,39.61,41.31Z"/><path class="cls-2" d="M39.54,224.55c-1-1.12.91,1.22,0,0Z"/><path class="cls-2" d="M38.52,28.5c-.06-.29.06-.73-.3-.77C38.28,28,38.16,28.46,38.52,28.5Z"/><path class="cls-2" d="M40.7,54.13c.28-1.15-.33-1.56-.95-2C39.59,53.23,39.53,54.19,40.7,54.13Z"/><path class="cls-2" d="M15.28,20.42c-.21,0-.45.26,0,.37C15.45,20.81,15.69,20.53,15.28,20.42Z"/><path class="cls-2" d="M7.4,8.11c3.64-.3.57-3.47,0,0Z"/><path class="cls-2" d="M6.12,14c-.7-.22.12-1.7-1.38-1.25L4.6,14.22C5.16,14.21,6,14.47,6.12,14Z"/><path class="cls-2" d="M7.19,6.23c.11-.09-.13-.58-.34-.4S7,6.4,7.19,6.23Z"/><path class="cls-2" d="M7.24,22.31a.38.38,0,0,0-.07.74C7.17,22.63,7.76,22.52,7.24,22.31Z"/><path class="cls-2" d="M37.17,26.88c-1-.19-1.61,0-1.59,1C36.55,28.05,37.19,27.87,37.17,26.88Z"/><path class="cls-2" d="M4.91,31.45c1.2-.21,2.35-.48,2.77-1.62-1.45.41-.62-1.09-1.79-.91-.65.6-1.78.62-2,1.69A2.66,2.66,0,0,1,4.91,31.45Z"/><path class="cls-2" d="M15.54,9.22c.11-.09-.13-.58-.34-.4S15.33,9.4,15.54,9.22Z"/><path class="cls-2" d="M13.34,8.65l-.07.74.74.07.07-.74Z"/><path class="cls-2" d="M8,22c1.23.37,1.29-.65,2-.95C8.82,20.78,8.41,21.39,8,22Z"/><path class="cls-2" d="M13.39,28.85c-.11.09.13.58.34.4S13.6,28.67,13.39,28.85Z"/><path class="cls-2" d="M4.46,15.7c-1.35-.5-2.6.54-1.22,1C2.79,15.34,4.53,16.6,4.46,15.7Z"/><path class="cls-2" d="M19.29,17.41c.06.3-.06.73.3.78C19.54,17.9,19.65,17.46,19.29,17.41Z"/><path class="cls-2" d="M16.43,24.26c-2.22-.5-.4,1.68,0,0Z"/><path class="cls-2" d="M18.38,19.2c0-.71.49-.78.51-1.45-2.5.56-2.92-1.06-4.29-2.26-1.44,0-2.12,1.41-3.17,2-.81.42-1.78.49-2.7.88.72-1.51-2.07-.1-1.35-1.62-1.13,0-2.85-.67-3,.47.86.81,3.06,2.7,3.28,1,.68.12.12,1.28.61,1.55,1.76-.36,3-1.3,4.66-1.82a2.42,2.42,0,0,1,.2,1.89c1.39.46,2.43-.39,3,.27.18-.72-.44-.78-.64-1.18A5.56,5.56,0,0,0,18.38,19.2Z"/><path class="cls-2" d="M11.87,29.09c-.11.09.13.58.34.41S12.08,28.91,11.87,29.09Z"/><path class="cls-2" d="M9.43,22.88c.21,0,.45-.26,0-.37C9.26,22.49,9,22.77,9.43,22.88Z"/><path class="cls-2" d="M19.2,30.87c-.05,1.15,1.55.41.41-.34C19.38,30.38,19.21,30.67,19.2,30.87Z"/></g></g></svg>