<svg xmlns="http://www.w3.org/2000/svg" viewBox="0 0 134.79 75"><defs><style>.cls-1{fill:#ffc4b8;}.cls-2{fill:none;}.cls-3{fill:#fff;}</style></defs><title>menu-bg-pink</title><g id="Layer_2" data-name="Layer 2"><g id="About_page" data-name="About page"><path class="cls-1" d="M75.8,74.22c20,3.85,23.14-7.7,35.77-8.24,12.62-1.1,16.83-9.34,15.78-14.29C126.29,41.24,140,40.14,132.6,25.85c-1.05-5.5-18.94-8.1-18.94-15.39C107.36.56,75.8,6.61,64.22,2.21,51.6-1.63,32.66-.54,27.4,6.06,22.14,16,4.26,13.21,8.47,25.85,8.47,33,.05,32.24.05,40.14c-1.05,5.5,14.73,10.44,21,24.18C30.56,76.41,55.81,68.17,75.8,74.22Z"/><path class="cls-2" d="M5.21,47.09,6,47.7C5.82,47.15,5.4,46.76,5.21,47.09Z"/><path class="cls-2" d="M8.47,25.85C8.47,33,.05,32.24.05,40.14c-.42,2.19,1.84,4.29,5.1,6.9-.63-1.05,1.47-1.46.58-2.85,1.26-.15,2-.8,3.46-.8-.33.86.86.2.53,1.07,1.45,0,3-.19,3.19,1.07.75.22.69-.38,1.33-.27-.16,1.19,2,1,1.07,2.13-.69.15-1.58-.48-2.93,0,1.07,1.23-1.63,1.25-.8,2.13-.46.14-1.77,1.6-1.6,0a.92.92,0,0,0-.47,1l.41.34c.39,0,.81.07.85-.27.47.6,0,.65-.44.61,4,3.32,8.16,7.48,10.75,13.13,2.76,3.53,6.88,5.32,11.81,6.24A2.63,2.63,0,0,0,31.8,70c.17-.71.76-1,1.06-1.6a2.46,2.46,0,0,1,.8-2.4c.49.58.29,1.84.8,2.4a1.25,1.25,0,0,1,.8-.27,5.46,5.46,0,0,0,.53-2.66c1.33-.07,1.45-1.94,2.93-1.07-.08.7.29,2.43-.53,1.6.28.82-.71,1.33-1.33,1.87-.12.1-.16.46-.27.53-.4.3-1.37,0-1.33.8.37,1,.76-.45,1.06-.53a10.78,10.78,0,0,1,2.13.27c-.21.85-1.57.56-1.06,2.13a.27.27,0,0,0,0,.08c7.49.68,16.28.16,25,.77.1,0,.2,0,.29-.05s0,0,0,.07A60.84,60.84,0,0,1,75.8,74.22c20,3.85,23.14-7.7,35.77-8.24,12.62-1.1,16.83-9.34,15.78-14.29C126.29,41.24,140,40.14,132.6,25.85c-1.05-5.5-18.94-8.1-18.94-15.39-3.11-4.88-12.35-5.88-22.31-6.17-.07.15-.15.07-.26,0C80.92,4,70,4.42,64.22,2.21,51.6-1.63,32.66-.54,27.4,6.06,22.14,16,4.26,13.21,8.47,25.85ZM2.27,37.79c-.13,0-.59-.37-.53-.53C2.1,36.29,3,37.57,2.27,37.79Zm.27-2.13H2v-.53h.53Zm121,2.4c.57-.12.51.38.53.8-.22-.05-.27-.27-.53-.27Zm-7.45,20.26c.53-.09.83.05.8.53h-.8Zm-3.46,5.06c0-.26.33-.21.53-.27C113.19,63.37,112.88,63.32,112.67,63.38Zm.53-46.64c.14.14-.19.34-.27.27S113.13,16.66,113.2,16.74Zm-1.33,15.46a1.73,1.73,0,0,1,1.33-.27c0,.31.06.47.27.53-.07.55-1,.25-1.06.8C111.94,33.2,111.8,32.8,111.87,32.19ZM96.71,53.78c.12-.39.23,0,.53,0A.27.27,0,0,1,96.71,53.78ZM110,65.24c.14.14-.19.34-.27.27S109.94,65.17,110,65.24Zm-.8-30.12c.14.14-.19.34-.27.27S109.14,35.05,109.21,35.12Zm-.27,29.32c-.05.3-.27.15-.27,0C108.73,64.14,108.95,64.29,108.95,64.44Zm-1.86-54.37c-.05.3-.27.15-.27,0C106.87,9.77,107.08,9.92,107.08,10.07ZM105.75,65c.14.14-.19.34-.27.27S105.68,64.9,105.75,65Zm-1.33-5.06a1.26,1.26,0,0,0-.27.8.74.74,0,0,1-.53-.8Zm-1.59-19.72c-.05.3-.27.15-.27,0C102.61,39.89,102.83,40,102.83,40.19ZM101.5,62.31c-.05.3-.27.15-.27,0C101.28,62,101.5,62.16,101.5,62.31Zm-.8-20c.14.14-.19.34-.27.27S100.62,42.25,100.7,42.32Zm-.27-25.59c0,.72-.61,1.28-1.06.8C99.6,17.14,99.77,16.69,100.43,16.74Zm-1.6,5.6c.77.23.3.4.27,1.07C98.48,23.32,98.49,22.69,98.84,22.33ZM98.3,69c-.05.3-.27.15-.27,0C98.09,68.67,98.31,68.83,98.3,69Zm-.53-26.65c-.05.3-.27.15-.27,0C97.56,42,97.77,42.17,97.77,42.32Zm-.53-30.92c.19.92-.93,1-1.33.53C95.95,11.36,96.58,11.37,97.24,11.41ZM96.18,25c-.05.3-.27.15-.27,0C96,24.7,96.18,24.85,96.18,25ZM93,46.32c.64-.11.58.49,1.33.27C94.29,47.38,92.73,47.3,93,46.32Zm-8.25,1.6c0-.31.49-.22.8-.27C85.49,48,85.05,47.88,84.74,47.92ZM88.2,9.81c.14.14-.19.34-.27.27S88.12,9.73,88.2,9.81Zm-3.46,4.53c.48,0,.56.33,1.06.27.34,1.72,0,2.18-1.33,2.67C83.81,16.59,84.59,15.09,84.74,14.34ZM79.95,22.6c-.14-.14.19-.34.27-.27S80,22.67,79.95,22.6ZM83.14,41c-.07.62-.71.61-1.06.27C82.15,40.64,82.79,40.64,83.14,41ZM82.08,17.53c.14.14-.19.34-.27.27S82,17.46,82.08,17.53Zm-1.33,2.4c.3.21,1.23-.19.8.8-.62.25-.83-.31-1.06-.53s-.62-.27-.53-.8C80.66,19.05,80.55,19.8,80.75,19.93Zm-1.6-.8V18.6h1.06C80.48,19.4,79.62,19.07,79.15,19.13Zm0-7.46c-.05.3-.27.15-.27,0C78.93,11.37,79.15,11.52,79.15,11.67Zm-2.66,7.2c.14.14-.19.34-.27.27S76.42,18.79,76.49,18.87ZM65.32,33c-.14-.14.19-.34.27-.27S65.39,33.07,65.32,33Zm9,26.12h.53v.53h-.53Zm-.53-20.26c-.23,0-.25.1-.27.27-.31,0-.22-.49-.27-.8C73.75,38.23,73.8,38.53,73.83,38.86ZM72.77,59.64c.14.14-.19.34-.27.27S72.69,59.57,72.77,59.64ZM68,35.39c.63.14.16,1.26-.27.53C67.76,35.71,68,35.66,68,35.39Zm.27,31.45c.66.11,0,1-.53.8C67.8,67.29,68.18,67.22,68.24,66.84Zm-.8-19.19a.74.74,0,0,1-.8.53C66.52,47.62,67,47.68,67.44,47.65ZM65.85,20.2V21q-.87.07-.8-.8Zm-13,42.91c.05-.3.27-.15.27,0C53,63.41,52.81,63.26,52.81,63.11Zm3.72-37.58c1.22.18-.21,1.61,0,0Zm1.6,42.64c.05-.3.27-.15.27,0C58.35,68.48,58.13,68.32,58.13,68.17ZM60.53,41a.27.27,0,0,1,.53,0C60.82,41.15,60.58,41.31,60.53,41Zm1.86-30.38c-.05.3-.27.15-.27,0C62.17,10.3,62.39,10.46,62.39,10.61Zm.27,40.24c0,.26-.33.21-.53.27C62.13,50.86,62.45,50.91,62.66,50.85Zm-.27,1.87c.14.14-.19.34-.27.27S62.32,52.64,62.39,52.72Zm-1.6-8.8c.89-.64-.64.89,0,0ZM60.53,8.47a.73.73,0,0,1,.53.8C60.14,9.51,60.15,8.86,60.53,8.47ZM60.26,41c-.05.3-.27.15-.27,0C60,40.69,60.26,40.84,60.26,41Zm-.53-10.93c.15.59-.51.38-.53.8C58.54,30.75,59.18,29.83,59.73,30.06ZM58.4,46.85c.14.14-.19.34-.27.27S58.33,46.78,58.4,46.85Zm-.53-36c0,.26-.33.21-.53.27C57.34,10.88,57.66,10.93,57.87,10.87Zm-.8-1.6c.65.17.14,1.35-.53,1.07C56.23,9.5,57,9.69,57.07,9.27Zm-4.52-4h.53v.53h-.53ZM52,63.64c.14.14-.19.34-.27.27S51.94,63.57,52,63.64ZM50.15,53c-.12.39-.23,0-.53,0A.27.27,0,0,1,50.15,53ZM48.29,16.47h.53V17h-.53ZM48,38.86c-.23,0-.25.1-.27.27-.31,0-.22-.49-.27-.8C47.95,38.23,48,38.53,48,38.86ZM47,28.73c.78-.39.78,1.19,0,.8Zm-.8-17.32c-.24.16-.48.32-.53,0A.27.27,0,0,1,46.16,11.41ZM45.1,3.68c.81-1,.9.81,0,0Zm0,47.17c-.23,0-.25.1-.27.27-.31,0-.22-.49-.27-.8C45,50.22,45.07,50.52,45.1,50.85Zm-.53-28.52c-.05.3-.27.15-.27,0C44.35,22,44.57,22.18,44.57,22.33Zm-.8,5.6a.27.27,0,0,1-.53,0C43.35,27.54,43.47,28,43.77,27.93Zm-1.06-3.2c0,.26-.33.21-.53.27C42.18,24.74,42.5,24.79,42.7,24.73Zm-1.6,4.53c.81-1,.9.81,0,0Zm0-17.06c-.12.39-.23,0-.53,0A.27.27,0,0,1,41.11,12.2ZM40,14.07h.53v.53H40ZM39,28.46a.74.74,0,0,1-.53-.8A.73.73,0,0,1,39,28.46Zm-.8,25.32h.53v.53h-.53Zm.27,2.13c.14.14-.19.34-.27.27S38.37,55.84,38.45,55.91Zm-2.66,6.93a1.25,1.25,0,0,0-.27.8c-1.07,0-1.34-.79-1.33-1.87.84-.3.6,0,1.6,0C35.79,62.17,34.7,63,35.79,62.84Zm-.53-44c.14.14-.19.34-.27.27S35.18,18.79,35.25,18.87Zm0,37.58H34.19A.57.57,0,1,1,35.25,56.45Zm-.8-49c.14.14-.19.34-.27.27S34.38,7.33,34.46,7.41Zm-1.6,2.4c.89-.64-.64.89,0,0Zm.8,9.33c-.36.8-.51,1.8-1.6,1.87,0-.26-.33-.21-.53-.27A1.47,1.47,0,0,1,33.66,19.13ZM31.53,58v.53C30.23,58.85,31,57.16,31.53,58Zm-1.6-25.85c1-.17,1,.55,1.06,1.33H29.93Zm-2.13,28c.66,0,.08.9,0,1.07C27,61.07,28.06,60.67,27.81,60.18ZM16.63,51.92c-.14-.14.19-.34.27-.27S16.71,52,16.63,51.92ZM18,51.38h-.53v-.53H18Zm3.19,11.73a1.17,1.17,0,0,1,1.07-.53C22.34,63.41,21.55,63.53,21.16,63.11Zm4.26-2.93c-.05.3-.27.15-.27,0C25.2,59.88,25.41,60,25.41,60.18ZM24.88,53c-.05.3-.27.15-.27,0C24.66,52.68,24.88,52.83,24.88,53Zm-1.33,3.47c.39.23.84.4.8,1.07C23.65,57.59,23.47,57.14,23.55,56.45Zm.27,5.06A.73.73,0,0,1,23,62,.73.73,0,0,1,23.82,61.51Zm-.8,1.6c.58,0,.12.95.27,1.33C22.61,64.42,22.66,63.45,23,63.11Zm-.8-4.8c0-.26.33-.21.53-.27C22.74,58.31,22.43,58.25,22.22,58.31Zm.27-2.93c.21.92-.4,1-.27,1.87H21.16c-.5-.47.22-.68,0-1.6C21.78,55.3,21.65,55.68,22.49,55.38Zm-1.07-1.6v1.07c-.68,0-1.37,0-1.33-.8C20.73,54.16,20.67,53.56,21.42,53.78Zm-1.6.53c.14.14-.19.34-.27.27S19.75,54.24,19.82,54.31ZM18.76,43.92h.53v.53h-.53ZM19,52.18c.14.14-.19.34-.27.27S19,52.11,19,52.18ZM19.29,54v.53C18,54.85,18.8,53.16,19.29,54Zm-.8-29.32c.14.14-.19.34-.27.27S18.42,24.66,18.5,24.73ZM17.43,38.32c.55.15.56.42.27.8h-.53C17.09,38.69,17.42,38.66,17.43,38.32Zm-1.06-4.26c.14.14-.19.34-.27.27S16.29,34,16.37,34.06Zm.27,8c.57.31,1.2.58,1.33,1.33a.73.73,0,0,1-1.06,0c-.68.12-.45,1.15-1.07,1.33s-.56-.33-1.06-.27C14.22,42.48,16.07,42.92,16.63,42.05Zm-2.4-10.93a.74.74,0,0,1,.53.8C13.85,32.16,13.86,31.52,14.24,31.13Zm-.8.53c.14.14-.19.34-.27.27S13.37,31.59,13.44,31.66Zm-2.66,1.87c-.14-.14.19-.34.27-.27S10.85,33.6,10.78,33.53Zm-.53-5.33c.7-.08.87.37.8,1.07H10C9.87,28.7,10.16,28.56,10.25,28.2ZM9.18,26.6c.14.14-.19.34-.27.27S9.11,26.52,9.18,26.6ZM8.65,37.52c.31.4,1.11.31,1.07,1.07-.23,0-.25.1-.27.27H8.92C9,38.21,8.43,38.28,8.65,37.52Z"/><path class="cls-3" d="M72.77,59.64c-.07-.07-.4.13-.27.27S72.9,59.78,72.77,59.64Z"/><path class="cls-3" d="M40.58,14.07H40v.53h.53Z"/><path class="cls-3" d="M39,28.46a.73.73,0,0,0-.53-.8A.74.74,0,0,0,39,28.46Z"/><path class="cls-3" d="M38.71,53.78h-.53v.53h.53Z"/><path class="cls-3" d="M41.11,12.2a.27.27,0,0,0-.53,0C40.87,12.18,41,12.59,41.11,12.2Z"/><path class="cls-3" d="M38.45,55.91c-.07-.07-.4.13-.27.27S38.58,56.05,38.45,55.91Z"/><path class="cls-3" d="M42.7,24.73c-.21.06-.52,0-.53.27C42.38,24.94,42.7,25,42.7,24.73Z"/><path class="cls-3" d="M41.11,29.26c.9.81.81-1,0,0Z"/><path class="cls-3" d="M32.86,9.81c-.64.89.89-.64,0,0Z"/><path class="cls-3" d="M34.46,7.41c-.07-.07-.4.13-.27.27S34.59,7.55,34.46,7.41Z"/><path class="cls-3" d="M34.19,61.78c0,1.08.26,1.88,1.33,1.87a1.25,1.25,0,0,1,.27-.8c-1.09.12,0-.67,0-1.07C34.79,61.75,35,61.48,34.19,61.78Z"/><path class="cls-3" d="M32.06,21c1.08-.07,1.24-1.07,1.6-1.87a1.47,1.47,0,0,0-2.13,1.6C31.74,20.79,32.06,20.74,32.06,21Z"/><path class="cls-3" d="M43.77,27.93c-.3,0-.41-.39-.53,0A.27.27,0,0,0,43.77,27.93Z"/><path class="cls-3" d="M35.25,18.87c-.07-.07-.4.13-.27.27S35.39,19,35.25,18.87Z"/><path class="cls-3" d="M34.19,56.45h1.06A.57.57,0,1,0,34.19,56.45Z"/><path class="cls-3" d="M58.4,46.85c-.07-.07-.4.13-.27.27S58.54,47,58.4,46.85Z"/><path class="cls-3" d="M53.08,5.27h-.53v.53h.53Z"/><path class="cls-3" d="M50.15,53a.27.27,0,0,0-.53,0C49.92,53,50,53.37,50.15,53Z"/><path class="cls-3" d="M57.07,9.27c-.11.42-.84.23-.53,1.07C57.21,10.62,57.72,9.44,57.07,9.27Z"/><path class="cls-3" d="M52,63.64c-.07-.07-.4.13-.27.27S52.15,63.78,52,63.64Z"/><path class="cls-3" d="M57.87,10.87c-.21.06-.53,0-.53.27C57.54,11.08,57.86,11.13,57.87,10.87Z"/><path class="cls-3" d="M31.53,58.58V58C31,57.16,30.23,58.85,31.53,58.58Z"/><path class="cls-3" d="M45.1,3.68c.9.81.81-1,0,0Z"/><path class="cls-3" d="M44.57,22.33c0-.15-.22-.3-.27,0C44.3,22.48,44.52,22.63,44.57,22.33Z"/><path class="cls-3" d="M46.16,11.41a.27.27,0,0,0-.53,0C45.69,11.73,45.92,11.57,46.16,11.41Z"/><path class="cls-3" d="M44.83,51.12c0-.16,0-.32.27-.27,0-.33-.08-.63-.53-.53C44.61,50.63,44.52,51.07,44.83,51.12Z"/><path class="cls-3" d="M48.82,16.47h-.53V17h.53Z"/><path class="cls-3" d="M47.76,39.12c0-.16,0-.32.27-.27,0-.33-.08-.63-.53-.53C47.53,38.64,47.45,39.08,47.76,39.12Z"/><path class="cls-3" d="M47,28.73v.8C47.74,29.92,47.74,28.34,47,28.73Z"/><path class="cls-3" d="M24.35,57.51c0-.67-.41-.83-.8-1.07C23.47,57.14,23.65,57.59,24.35,57.51Z"/><path class="cls-3" d="M19.29,43.92h-.53v.53h.53Z"/><path class="cls-3" d="M17.43,38.32c0,.34-.34.37-.27.8h.53C18,38.74,18,38.47,17.43,38.32Z"/><path class="cls-3" d="M16.37,34.06c-.07-.07-.4.13-.27.27S16.5,34.2,16.37,34.06Z"/><path class="cls-3" d="M14.77,44.45c.5-.06.59.3,1.06.27s.39-1.21,1.07-1.33a.73.73,0,0,0,1.06,0c-.13-.75-.76-1-1.33-1.33C16.07,42.92,14.22,42.48,14.77,44.45Z"/><path class="cls-3" d="M19.29,54.58V54C18.8,53.16,18,54.85,19.29,54.58Z"/><path class="cls-3" d="M19,52.18c-.07-.07-.4.13-.27.27S19.16,52.32,19,52.18Z"/><path class="cls-3" d="M18.5,24.73c-.07-.07-.4.13-.27.27S18.63,24.87,18.5,24.73Z"/><path class="cls-3" d="M9.18,26.6c-.07-.07-.4.13-.27.27S9.32,26.73,9.18,26.6Z"/><path class="cls-3" d="M8.92,38.86h.53c0-.16,0-.32.27-.27,0-.75-.75-.67-1.07-1.07C8.43,38.28,9,38.21,8.92,38.86Z"/><path class="cls-3" d="M11,29.26c.07-.7-.1-1.15-.8-1.07-.08.36-.38.51-.27,1.07Z"/><path class="cls-3" d="M13.44,31.66c-.07-.07-.4.13-.27.27S13.58,31.8,13.44,31.66Z"/><path class="cls-3" d="M14.77,31.93a.74.74,0,0,0-.53-.8C13.86,31.52,13.85,32.16,14.77,31.93Z"/><path class="cls-3" d="M10.78,33.53c.07.07.4-.13.27-.27S10.64,33.39,10.78,33.53Z"/><path class="cls-3" d="M16.63,51.92c.07.07.4-.13.27-.27S16.49,51.78,16.63,51.92Z"/><path class="cls-3" d="M10,49.52c-.18,1.6,1.13.14,1.6,0-.84-.88,1.86-.9.8-2.13,1.35-.48,2.24.15,2.93,0,.9-1.09-1.23-.94-1.07-2.13-.64-.11-.58.49-1.33.27-.16-1.26-1.75-1.1-3.19-1.07.33-.86-.86-.2-.53-1.07-1.42,0-2.19.65-3.46.8.89,1.4-1.2,1.8-.58,2.85l.07.05c.19-.34.61.06.77.61,1.11.87,2.3,1.8,3.53,2.81A.92.92,0,0,1,10,49.52Z"/><path class="cls-3" d="M25.41,60.18c0-.15-.22-.3-.27,0C25.15,60.33,25.36,60.48,25.41,60.18Z"/><path class="cls-3" d="M17.43,51.38H18v-.53h-.53Z"/><path class="cls-3" d="M24.88,53c0-.15-.22-.3-.27,0C24.61,53.13,24.83,53.28,24.88,53Z"/><path class="cls-3" d="M29.93,32.19v1.33H31C31,32.75,30.9,32,29.93,32.19Z"/><path class="cls-3" d="M27.81,61.24c.08-.16.66-1,0-1.07C28.06,60.67,27,61.07,27.81,61.24Z"/><path class="cls-3" d="M22.22,58.31c.21-.06.52,0,.53-.27C22.55,58.11,22.23,58.05,22.22,58.31Z"/><path class="cls-3" d="M21.16,57.25h1.07c-.13-.84.48-.94.27-1.87-.84.3-.7-.08-1.33.27C21.37,56.57,20.66,56.77,21.16,57.25Z"/><path class="cls-3" d="M21.42,54.85V53.78c-.75-.22-.69.38-1.33.27C20.05,54.8,20.74,54.82,21.42,54.85Z"/><path class="cls-3" d="M59.2,30.86c0-.42.68-.21.53-.8C59.18,29.83,58.54,30.75,59.2,30.86Z"/><path class="cls-3" d="M19.82,54.31c-.07-.07-.4.13-.27.27S20,54.45,19.82,54.31Z"/><path class="cls-3" d="M23.28,64.44c-.14-.39.31-1.38-.27-1.33C22.66,63.45,22.61,64.42,23.28,64.44Z"/><path class="cls-3" d="M23.82,61.51A.73.73,0,0,0,23,62,.73.73,0,0,0,23.82,61.51Z"/><path class="cls-3" d="M21.16,63.11c.4.42,1.19.3,1.07-.53A1.17,1.17,0,0,0,21.16,63.11Z"/><path class="cls-3" d="M104.16,60.71a1.26,1.26,0,0,1,.27-.8h-.8A.74.74,0,0,0,104.16,60.71Z"/><path class="cls-3" d="M101.5,62.31c0-.15-.22-.3-.27,0C101.23,62.46,101.45,62.61,101.5,62.31Z"/><path class="cls-3" d="M102.83,40.19c0-.15-.22-.3-.27,0C102.56,40.34,102.78,40.49,102.83,40.19Z"/><path class="cls-3" d="M105.75,65c-.07-.07-.4.13-.27.27S105.89,65.11,105.75,65Z"/><path class="cls-3" d="M108.95,64.44c0-.15-.21-.3-.27,0C108.68,64.59,108.9,64.75,108.95,64.44Z"/><path class="cls-3" d="M107.08,10.07c0-.15-.22-.3-.27,0C106.82,10.22,107,10.37,107.08,10.07Z"/><path class="cls-3" d="M109.21,35.12c-.07-.07-.4.13-.27.27S109.35,35.26,109.21,35.12Z"/><path class="cls-3" d="M98.3,69c0-.15-.21-.3-.27,0C98,69.12,98.25,69.28,98.3,69Z"/><path class="cls-3" d="M100.43,42.59c.07.07.4-.13.27-.27S100.29,42.45,100.43,42.59Z"/><path class="cls-3" d="M97.24,11.41c-.66,0-1.29,0-1.33.53C96.31,12.36,97.43,12.33,97.24,11.41Z"/><path class="cls-3" d="M97.77,42.32c0-.15-.21-.3-.27,0C97.5,42.47,97.72,42.62,97.77,42.32Z"/><path class="cls-3" d="M99.1,23.4c0-.67.51-.83-.27-1.07C98.49,22.69,98.48,23.32,99.1,23.4Z"/><path class="cls-3" d="M100.43,16.74c-.66,0-.83.41-1.06.8C99.82,18,100.41,17.45,100.43,16.74Z"/><path class="cls-3" d="M96.18,25c0-.15-.22-.3-.27,0C95.91,25.15,96.13,25.3,96.18,25Z"/><path class="cls-3" d="M110,65.24c-.07-.07-.4.13-.27.27S110.15,65.38,110,65.24Z"/><path class="cls-3" d="M91.36,4.29h-.26C91.21,4.36,91.29,4.44,91.36,4.29Z"/><path class="cls-3" d="M2,35.66h.53v-.53H2Z"/><path class="cls-3" d="M1.74,37.26c-.06.16.4.57.53.53C3,37.57,2.1,36.29,1.74,37.26Z"/><path class="cls-3" d="M10.78,50.58c0,.33-.47.28-.85.27l.42.35C10.79,51.24,11.25,51.18,10.78,50.58Z"/><path class="cls-3" d="M38.45,69a10.78,10.78,0,0,0-2.13-.27c-.3.08-.7,1.51-1.06.53,0-.81.93-.5,1.33-.8.1-.08.15-.43.27-.53.62-.54,1.61-1,1.33-1.87.83.83.45-.9.53-1.6-1.48-.87-1.6,1-2.93,1.07a5.46,5.46,0,0,1-.53,2.66,1.25,1.25,0,0,0-.8.27c-.51-.55-.31-1.82-.8-2.4a2.46,2.46,0,0,0-.8,2.4c-.3.59-.89.89-1.06,1.6a2.63,2.63,0,0,1,1.1.53c1.44.27,2.95.47,4.51.61a.27.27,0,0,1,0-.08C36.88,69.53,38.24,69.83,38.45,69Z"/><path class="cls-3" d="M62.36,72l.26,0s0,0,0-.07S62.46,71.94,62.36,72Z"/><path class="cls-3" d="M112.4,33.26c.07-.55,1-.25,1.06-.8-.21-.06-.31-.22-.27-.53a1.73,1.73,0,0,0-1.33.27C111.8,32.8,111.94,33.2,112.4,33.26Z"/><path class="cls-3" d="M123.58,38.06v.53c.27,0,.32.22.53.27C124.08,38.44,124.14,37.93,123.58,38.06Z"/><path class="cls-3" d="M113.2,16.74c-.07-.07-.4.13-.27.27S113.34,16.87,113.2,16.74Z"/><path class="cls-3" d="M96.71,53.78a.27.27,0,0,0,.53,0C96.94,53.81,96.83,53.39,96.71,53.78Z"/><path class="cls-3" d="M116.13,58.31v.53h.8C117,58.37,116.66,58.22,116.13,58.31Z"/><path class="cls-3" d="M112.67,63.38c.21-.06.52,0,.53-.27C113,63.17,112.68,63.12,112.67,63.38Z"/><path class="cls-3" d="M79.95,22.6c.07.07.4-.13.27-.27S79.81,22.46,79.95,22.6Z"/><path class="cls-3" d="M58.13,68.17c0,.15.22.3.27,0C58.4,68,58.18,67.87,58.13,68.17Z"/><path class="cls-3" d="M56.54,25.53c-.21,1.61,1.22.18,0,0Z"/><path class="cls-3" d="M65.85,21v-.8h-.8Q65,21.07,65.85,21Z"/><path class="cls-3" d="M52.81,63.11c0,.15.21.3.27,0C53.08,63,52.86,62.81,52.81,63.11Z"/><path class="cls-3" d="M68.24,66.84c-.06.38-.44.45-.53.8C68.26,67.87,68.91,66.95,68.24,66.84Z"/><path class="cls-3" d="M67.44,47.65c-.42,0-.92,0-.8.53A.74.74,0,0,0,67.44,47.65Z"/><path class="cls-3" d="M62.39,10.61c0-.15-.21-.3-.27,0C62.12,10.75,62.34,10.91,62.39,10.61Z"/><path class="cls-3" d="M60.79,43.92c-.64.89.89-.64,0,0Z"/><path class="cls-3" d="M61.06,41a.27.27,0,0,0-.53,0C60.58,41.31,60.82,41.15,61.06,41Z"/><path class="cls-3" d="M62.39,52.72c-.07-.07-.4.13-.27.27S62.53,52.85,62.39,52.72Z"/><path class="cls-3" d="M94.31,46.59c-.75.22-.69-.38-1.33-.27C92.73,47.3,94.29,47.38,94.31,46.59Z"/><path class="cls-3" d="M62.66,50.85c-.21.06-.52,0-.53.27C62.33,51.06,62.65,51.11,62.66,50.85Z"/><path class="cls-3" d="M68,35.39c0,.27-.22.32-.27.53C68.14,36.65,68.6,35.53,68,35.39Z"/><path class="cls-3" d="M61.06,9.27a.73.73,0,0,0-.53-.8C60.15,8.86,60.14,9.51,61.06,9.27Z"/><path class="cls-3" d="M82.08,17.53c-.07-.07-.4.13-.27.27S82.21,17.67,82.08,17.53Z"/><path class="cls-3" d="M83.14,41c-.35-.35-1-.35-1.06.27C82.43,41.6,83.07,41.61,83.14,41Z"/><path class="cls-3" d="M85.8,14.6c-.5.06-.59-.3-1.06-.27-.15.75-.92,2.25-.27,2.93C85.81,16.78,86.14,16.32,85.8,14.6Z"/><path class="cls-3" d="M60.26,41c0-.15-.22-.3-.27,0C60,41.14,60.21,41.29,60.26,41Z"/><path class="cls-3" d="M84.74,47.92c.31,0,.76,0,.8-.27C85.22,47.69,84.78,47.61,84.74,47.92Z"/><path class="cls-3" d="M88.2,9.81c-.07-.07-.4.13-.27.27S88.33,9.94,88.2,9.81Z"/><path class="cls-3" d="M74.89,59.11h-.53v.53h.53Z"/><path class="cls-3" d="M80.48,20.2c.24.22.44.78,1.06.53.43-1-.5-.59-.8-.8s-.09-.88-.8-.53C79.86,19.94,80.24,20,80.48,20.2Z"/><path class="cls-3" d="M65.32,33c.07.07.4-.13.27-.27S65.18,32.86,65.32,33Z"/><path class="cls-3" d="M73.56,39.12c0-.16,0-.32.27-.27,0-.33-.08-.63-.53-.53C73.34,38.64,73.25,39.08,73.56,39.12Z"/><path class="cls-3" d="M76.49,18.87c-.07-.07-.4.13-.27.27S76.63,19,76.49,18.87Z"/><path class="cls-3" d="M79.15,11.67c0-.15-.21-.3-.27,0C78.88,11.82,79.1,12,79.15,11.67Z"/><path class="cls-3" d="M79.15,19.13c.47-.06,1.33.27,1.06-.53H79.15Z"/></g></g></svg>