<svg xmlns="http://www.w3.org/2000/svg" viewBox="0 0 317.49 392.38"><defs><style>.cls-1{fill:#ffe7e3;}.cls-2{fill:#fff;}</style></defs><title>photo-bg-pink</title><g id="Layer_2" data-name="Layer 2"><g id="About_page" data-name="About page"><path class="cls-1" d="M304.26,219.86c32.68-51.37-6.7-74.24,3-110.31C315,72.82,288.66,51,269.55,47.94,230.28,38.2,239-1.48,179.72,1.8c-21.13-3.73-47.29,43.25-74,34.39C63.56,41.87,56.4,137.7,29.52,164.81,3.68,195.53-9.88,250,9.41,272.72c31.38,26.77,4.69,73.58,54.95,77.14,26.2,8.68,15.61,31.36,44.57,41,19.17,9.63,52-28.6,108.22-29.6C270.28,349.37,263.52,268.56,304.26,219.86Z"/><path class="cls-2" d="M169.23,185.09c.1.1.56-.18.37-.37S169,184.9,169.23,185.09Z"/><path class="cls-2" d="M170,87.33c-.1-.1-.57.18-.37.37S170.17,87.53,170,87.33Z"/><path class="cls-2" d="M169.6,220.91c0,.21.3.42.37,0C170,220.71,169.68,220.49,169.6,220.91Z"/><path class="cls-2" d="M169.6,339.94c-.08-.71.42-.82.37-1.49-1.14.31-1.9,0-2.24.37C168.62,338.94,168.44,340.12,169.6,339.94Z"/><path class="cls-2" d="M169.23,325.39c-.29.08-.73,0-.74.37C168.78,325.68,169.22,325.75,169.23,325.39Z"/><path class="cls-2" d="M173.7,166.81c.29-.08.73,0,.74-.37C174.16,166.52,173.71,166.45,173.7,166.81Z"/><path class="cls-2" d="M170.35,225c-.29.08-.73,0-.75.37C169.9,225.31,170.34,225.38,170.35,225Z"/><path class="cls-2" d="M168.12,283.6c.1-.77,1.39-.35,1.49-1.12-.29-.08-.43-.31-.37-.75a2.42,2.42,0,0,0-1.86.37C167.27,283,167.46,283.51,168.12,283.6Z"/><path class="cls-2" d="M170.72,338.45c0,.21.3.42.37,0C171.1,338.24,170.8,338,170.72,338.45Z"/><path class="cls-2" d="M124.54,198.53c-.9,1.25,1.25-.9,0,0Z"/><path class="cls-2" d="M171.47,227.63c-.1-.1-.56.18-.37.37S171.66,227.82,171.47,227.63Z"/><path class="cls-2" d="M168.12,134c.05-.44.66-.85,0-1.12C168.06,133.3,167.45,133.7,168.12,134Z"/><path class="cls-2" d="M167,104.5c.41.54,1.7-1.35.37-1.12,0,0,0,.35,0,.37S167,104.52,167,104.5Z"/><path class="cls-2" d="M168.86,260.84c.1.1.56-.18.37-.37S168.67,260.65,168.86,260.84Z"/><path class="cls-2" d="M163.27,327.25c0-.21-.3-.42-.37,0C162.9,327.46,163.2,327.68,163.27,327.25Z"/><path class="cls-2" d="M163.65,286.21c-.1-.1-.56.18-.37.37S163.84,286.4,163.65,286.21Z"/><path class="cls-2" d="M164.76,328.37c-.1-.1-.57.18-.37.37S165,328.57,164.76,328.37Z"/><path class="cls-2" d="M162.9,133.6c0-.21-.3-.42-.37,0C162.53,133.81,162.83,134,162.9,133.6Z"/><path class="cls-2" d="M160.3,251.14c0,.21.3.42.37,0C160.67,250.93,160.37,250.71,160.3,251.14Z"/><path class="cls-2" d="M158.06,154.87c-.1-.1-.56.18-.37.37S158.25,155.06,158.06,154.87Z"/><path class="cls-2" d="M157.32,335.46c1-.13,1.26-1,1.49-1.87a1.74,1.74,0,0,1-1.12-.37C157.42,334,156.52,334.7,157.32,335.46Z"/><path class="cls-2" d="M162.9,20.54h-.75v.75h.75Z"/><path class="cls-2" d="M165.51,20.54c-1.13,1.26,1.38,1.13,0,0Z"/><path class="cls-2" d="M165.14,101.89c.11,1.14-1.19,1.45-.37,2.24C166.63,104.83,166.84,101.56,165.14,101.89Z"/><path class="cls-2" d="M163.27,34h-.75c0,.37-.3.44-.37.75C162.74,34.69,163.45,34.77,163.27,34Z"/><path class="cls-2" d="M164.76,63.45c-1.26-1.13-1.13,1.38,0,0Z"/><path class="cls-2" d="M161.41,123.15c.06.44-.06,1.06.37,1.12,0-.23.06-.44.37-.37C162.11,123.45,162,123,161.41,123.15Z"/><path class="cls-2" d="M158.8,328c-.1-.1-.56.18-.37.37S159,328.19,158.8,328Z"/><path class="cls-2" d="M161.78,49.65v.75h1.12C163,49.72,162.53,49.52,161.78,49.65Z"/><path class="cls-2" d="M181.15,7.48c-.16.82,1.11,2.06,1.49,1.12C181.88,8.49,181.91,7.6,181.15,7.48Z"/><path class="cls-2" d="M180,60.47c.1.1.57-.18.37-.37S179.84,60.28,180,60.47Z"/><path class="cls-2" d="M181.9,14.57c.37,0,.44.3.74.37,0-.37.3-.44.37-.75-.37,0-.44-.3-.75-.37C182.27,14.2,182,14.27,181.9,14.57Z"/><path class="cls-2" d="M184.5,72.41c.1.1.56-.18.37-.37S184.31,72.22,184.5,72.41Z"/><path class="cls-2" d="M181.9,128.38c.55.19.94.55,1.49.75C183.75,127.75,182,127.21,181.9,128.38Z"/><path class="cls-2" d="M182.64,119.8a1,1,0,0,0-1.12.75A1,1,0,0,0,182.64,119.8Z"/><path class="cls-2" d="M185.62,6c-.48.5-.49,1.39.37,1.49C186.48,7,186.49,6.1,185.62,6Z"/><path class="cls-2" d="M184.13,185.09c-.1-.1-.56.18-.37.37S184.32,185.29,184.13,185.09Z"/><path class="cls-2" d="M186,152.63c-.1-.1-.57.18-.37.37S186.19,152.82,186,152.63Z"/><path class="cls-2" d="M184.88,346.28c-.29.08-.73,0-.74.37C184.42,346.57,184.87,346.65,184.88,346.28Z"/><path class="cls-2" d="M183.76,290.32v.75c.37,0,.44.3.74.37C184.47,290.85,184.55,290.14,183.76,290.32Z"/><path class="cls-2" d="M190.09,99.65c.1.1.56-.18.37-.37S189.9,99.45,190.09,99.65Z"/><path class="cls-2" d="M185.62,176.88c-.1-.1-.57.18-.37.37S185.81,177.08,185.62,176.88Z"/><path class="cls-2" d="M175.94,108.23c-.1-.1-.57.18-.37.37S176.13,108.42,175.94,108.23Z"/><path class="cls-2" d="M173,106.74c.57-.8,1.62-1.12,1.49-2.61C172.75,103.73,171.64,106.42,173,106.74Z"/><path class="cls-2" d="M173.33,318.67v.75h1.12C174.5,318.75,174.08,318.55,173.33,318.67Z"/><path class="cls-2" d="M175.19,340.69c.1.1.57-.18.37-.37S175,340.49,175.19,340.69Z"/><path class="cls-2" d="M175.94,103.75h-.75v.75h.75Z"/><path class="cls-2" d="M172.59,18.31v.75c.37,0,.44.3.75.37C173.3,18.84,173.38,18.13,172.59,18.31Z"/><path class="cls-2" d="M174.08,339.57h-.74v.75h.74Z"/><path class="cls-2" d="M177.05,210.47c.1.1.56-.18.37-.37S176.86,210.27,177.05,210.47Z"/><path class="cls-2" d="M178.17,101.89a1,1,0,0,0,1.12-.75C178.7,101.18,178,101.09,178.17,101.89Z"/><path class="cls-2" d="M181.15,119.42c-.29.08-.74,0-.75.37C180.7,119.71,181.14,119.79,181.15,119.42Z"/><path class="cls-2" d="M180,91.81c.1.1.57-.18.37-.37S179.84,91.62,180,91.81Z"/><path class="cls-2" d="M178.17,163.45a.38.38,0,0,0-.75,0C177.51,163.9,177.84,163.68,178.17,163.45Z"/><path class="cls-2" d="M180.78,18.68c-.1-.1-.57.18-.37.37S181,18.87,180.78,18.68Z"/><path class="cls-2" d="M178.92,169.42h-.75v.75h.75Z"/><path class="cls-2" d="M185.25,125.39c-.1-.1-.56.18-.37.37S185.44,125.59,185.25,125.39Z"/><path class="cls-2" d="M130.5,189.57c-.1-.1-.56.18-.37.37S130.69,189.76,130.5,189.57Z"/><path class="cls-2" d="M130.5,303.75c-.44.06-1.05-.06-1.12.37C129.82,304.06,130.44,304.18,130.5,303.75Z"/><path class="cls-2" d="M131.62,170.91c.08.45.41.23.74,0A.38.38,0,0,0,131.62,170.91Z"/><path class="cls-2" d="M131.62,194c-1.25-1.13-1.13,1.38,0,0Z"/><path class="cls-2" d="M131.25,109.72c0-.21-.3-.42-.37,0C130.87,109.93,131.18,110.14,131.25,109.72Z"/><path class="cls-2" d="M127.89,223.52c0,.21.3.42.37,0C128.27,223.32,128,223.1,127.89,223.52Z"/><path class="cls-2" d="M133.48,106.74c-1,1.14,1.13-1,0,0Z"/><path class="cls-2" d="M133.85,177.26c.08.45.41.23.74,0A.38.38,0,0,0,133.85,177.26Z"/><path class="cls-2" d="M135.71,138.83v-.75H135v.75Z"/><path class="cls-2" d="M137.95,242.93c.42,0,.58.54.75,0A.38.38,0,0,0,137.95,242.93Z"/><path class="cls-2" d="M159.92,199.64h-.75c0,.37-.3.44-.37.75C159.39,200.36,160.1,200.44,159.92,199.64Z"/><path class="cls-2" d="M127.15,294.42c-.49-.48-1.39-.49-1.49.37C126.15,295.28,127,295.28,127.15,294.42Z"/><path class="cls-2" d="M134.22,250.76c-.1-.1-.56.18-.37.37S134.42,251,134.22,250.76Z"/><path class="cls-2" d="M123.8,264.94c-.28-.19-.12-1.23-1.12-.75-.12.75.42.82.75,1.12s.62,1.09,1.49.75C125.52,264.67,124.22,265.23,123.8,264.94Z"/><path class="cls-2" d="M123.05,263.08h-1.49v.75C122.22,263.74,123.43,264.2,123.05,263.08Z"/><path class="cls-2" d="M121.19,215.32c.11-.23.93-1.44,0-1.49C121.08,214.05,120.26,215.26,121.19,215.32Z"/><path class="cls-2" d="M121.56,253.38c0-.21-.3-.42-.37,0C121.19,253.58,121.49,253.8,121.56,253.38Z"/><path class="cls-2" d="M123.42,364.19a.38.38,0,0,0-.75,0C122.76,364.64,123.09,364.42,123.42,364.19Z"/><path class="cls-2" d="M125.66,41.81c-.5-.12-.71-.53-1.49-.37V43.3C125.42,43.56,125.53,42.68,125.66,41.81Z"/><path class="cls-2" d="M126.4,363.45c-.06.39.29,1,.37.37C126.83,363.43,126.49,362.86,126.4,363.45Z"/><path class="cls-2" d="M123.05,268.3c-.1-.1-.57.18-.37.37S123.24,268.49,123.05,268.3Z"/><path class="cls-2" d="M124.17,366.06c.42,0,.58.54.74,0A.38.38,0,0,0,124.17,366.06Z"/><path class="cls-2" d="M139.44,241.81c0,.21.3.42.37,0C139.81,241.6,139.51,241.39,139.44,241.81Z"/><path class="cls-2" d="M121.19,345.17c-.1-.1-.56.18-.37.37S121.38,345.36,121.19,345.17Z"/><path class="cls-2" d="M119,382.1h2.23v-2.24H119Z"/><path class="cls-2" d="M119.33,202.26c-.05.44-.66.85,0,1.12C119.38,202.94,120,202.53,119.33,202.26Z"/><path class="cls-2" d="M120.07,231.36c-.1-.1-.57.18-.37.37S120.26,231.55,120.07,231.36Z"/><path class="cls-2" d="M133.85,142.93c-.1-.1-.57.18-.37.37S134,143.12,133.85,142.93Z"/><path class="cls-2" d="M148.38,14.2c-.1-.1-.56.18-.37.37S148.57,14.39,148.38,14.2Z"/><path class="cls-2" d="M146.89,253c-.92-.06-1.81-.07-1.86.75C145.58,254.34,147.15,254.29,146.89,253Z"/><path class="cls-2" d="M151.73,296.28c-.1-.1-.57.18-.37.37S151.92,296.48,151.73,296.28Z"/><path class="cls-2" d="M148,333.6c0,.21.3.42.37,0C148.38,333.39,148.08,333.17,148,333.6Z"/><path class="cls-2" d="M150.24,370.16c0,.21.3.42.37,0C150.61,370,150.31,369.74,150.24,370.16Z"/><path class="cls-2" d="M147.26,296.28c0,.21.3.42.37,0C147.63,296.08,147.33,295.86,147.26,296.28Z"/><path class="cls-2" d="M149.5,269.79c0-.93.71-1.17-.37-1.49C148.64,268.8,148.63,269.69,149.5,269.79Z"/><path class="cls-2" d="M156.2,162.71c-.1-.1-.56.18-.37.37S156.39,162.9,156.2,162.71Z"/><path class="cls-2" d="M156.57,322a1.77,1.77,0,0,1,.37-1.12h-1.12A1,1,0,0,0,156.57,322Z"/><path class="cls-2" d="M155.45,243.3c-.29.08-.73,0-.74.37C155,243.59,155.44,243.66,155.45,243.3Z"/><path class="cls-2" d="M152.47,324.27c0,.21.3.42.37,0C152.85,324.06,152.55,323.85,152.47,324.27Z"/><path class="cls-2" d="M151.36,260.46c-.93-.06-1.16.57-1.49,1.12C150.51,262.26,151.33,261.47,151.36,260.46Z"/><path class="cls-2" d="M154.34,293.3c0,.21.3.42.37,0C154.71,293.09,154.41,292.88,154.34,293.3Z"/><path class="cls-2" d="M142.79,242.93c0,.21.3.42.37,0C143.17,242.72,142.86,242.5,142.79,242.93Z"/><path class="cls-2" d="M143.16,27.63c0,.21.3.42.37,0C143.54,27.43,143.23,27.21,143.16,27.63Z"/><path class="cls-2" d="M142.79,302.26c-1.05.31-1-.53-1.86-.37C140.57,303.25,142.76,303.37,142.79,302.26Z"/><path class="cls-2" d="M140.55,207.48c.85.1,1.4-.09,1.49-.75C141.39,206.82,140.18,206.36,140.55,207.48Z"/><path class="cls-2" d="M140.55,146.29c0,.93-.71,1.17.37,1.49C141.41,147.28,141.42,146.39,140.55,146.29Z"/><path class="cls-2" d="M140.18,231.73c1.25,1.13,1.13-1.38,0,0Z"/><path class="cls-2" d="M141.3,344.79v-1.12h-.75c0,.48-.48.52-.37,1.12Z"/><path class="cls-2" d="M145,39.57c0-.21-.3-.42-.37,0C144.65,39.78,145,40,145,39.57Z"/><path class="cls-2" d="M145,272c0,.21.3.42.37,0C145.4,271.83,145.1,271.61,145,272Z"/><path class="cls-2" d="M144.65,23.16v.75h1.12C145.82,23.23,145.4,23,144.65,23.16Z"/><path class="cls-2" d="M146.14,312.33a.38.38,0,0,0,.75,0C146.47,312.37,146.31,311.79,146.14,312.33Z"/><path class="cls-2" d="M146.51,86.22v-.75c-.06-.43-.59-.41-1.12-.37.11.73-.5.74-.74,1.12Z"/><path class="cls-2" d="M144.65,185.47c.1.1.56-.18.37-.37S144.46,185.27,144.65,185.47Z"/><path class="cls-2" d="M146.14,195.54c.1.1.57-.18.37-.37S145.95,195.35,146.14,195.54Z"/><path class="cls-2" d="M174.82,106c-.1-.1-.56.18-.37.37S175,106.18,174.82,106Z"/><path class="cls-2" d="M256.38,90.32c-.74,0-.47-1-1.49-.75v1.12C255.45,90.63,256.27,90.83,256.38,90.32Z"/><path class="cls-2" d="M253.78,225.76c.08.45.41.23.75,0A.38.38,0,0,0,253.78,225.76Z"/><path class="cls-2" d="M256,186.21c.06-.39-.29-1-.37-.37C255.59,186.23,255.93,186.8,256,186.21Z"/><path class="cls-2" d="M189.72,42.93c.1.1.56-.18.37-.37S189.53,42.74,189.72,42.93Z"/><path class="cls-2" d="M249.68,307.11v-.75h-.75v.75Z"/><path class="cls-2" d="M255.64,213.45c-.9,1.25,1.25-.9,0,0Z"/><path class="cls-2" d="M260.48,279.49c1.15-.05.27-1.58-.37-.37C260,279.36,260.28,279.5,260.48,279.49Z"/><path class="cls-2" d="M258.25,189.2c0,.21.3.42.37,0C258.62,189,258.32,188.77,258.25,189.2Z"/><path class="cls-2" d="M259,233.6c-.1-.1-.56.18-.37.37S259.18,233.79,259,233.6Z"/><path class="cls-2" d="M260.85,187.33c-.1-.1-.56.18-.37.37S261,187.52,260.85,187.33Z"/><path class="cls-2" d="M257.5,52.63c.41.54,1.7-1.35.37-1.12,0,0,0,.35,0,.37S257.52,52.66,257.5,52.63Z"/><path class="cls-2" d="M261.6,39.57h-.74v.75h.74Z"/><path class="cls-2" d="M258.25,282.48c-.9,1.25,1.25-.9,0,0Z"/><path class="cls-2" d="M248.56,244c-.29.08-.74,0-.75.37C248.11,244.34,248.55,244.41,248.56,244Z"/><path class="cls-2" d="M249.68,85.84q-3,0-3,3c.73.74,2.13.24,3,0Z"/><path class="cls-2" d="M238.14,235.47c0,.21.3.42.37,0C238.51,235.26,238.21,235,238.14,235.47Z"/><path class="cls-2" d="M240,89.2c.33-.06.19-2.06-.37-.75C239.53,88.68,239.78,89.24,240,89.2Z"/><path class="cls-2" d="M243.72,54.87v-.75H243v.75Z"/><path class="cls-2" d="M239.63,259.72a1,1,0,0,0,1.12-.75C240.16,259,239.45,258.92,239.63,259.72Z"/><path class="cls-2" d="M237,26.14c-.1-.1-.56.18-.37.37S237.21,26.33,237,26.14Z"/><path class="cls-2" d="M237.39,97.41c-.1-.1-.56.18-.37.37S237.58,97.6,237.39,97.41Z"/><path class="cls-2" d="M249.31,57.48c.08.45.41.23.74,0A.38.38,0,0,0,249.31,57.48Z"/><path class="cls-2" d="M246,202.63v.75h1.12C247.12,202.71,246.7,202.5,246,202.63Z"/><path class="cls-2" d="M244.47,70.54c.05-.44.66-.85,0-1.12C244.41,69.87,243.8,70.27,244.47,70.54Z"/><path class="cls-2" d="M246.33,60.47c-.1-.1-.57.18-.37.37S246.52,60.66,246.33,60.47Z"/><path class="cls-2" d="M246.7,294c-.9,1.25,1.25-.9,0,0Z"/><path class="cls-2" d="M246,119.42c.1.1.56-.18.37-.37S245.76,119.23,246,119.42Z"/><path class="cls-2" d="M244.84,36.59c.1.1.56-.18.37-.37S244.65,36.4,244.84,36.59Z"/><path class="cls-2" d="M283.2,55.62a1.75,1.75,0,0,1-.37,1.12h.75C284,56.2,284,55.83,283.2,55.62Z"/><path class="cls-2" d="M279.48,238.08c.1.1.56-.18.37-.37S279.28,237.88,279.48,238.08Z"/><path class="cls-2" d="M278.73,65.69c0-.21-.3-.42-.37,0C278.36,65.9,278.66,66.12,278.73,65.69Z"/><path class="cls-2" d="M278.73,174.27c-.9,1.25,1.25-.9,0,0Z"/><path class="cls-2" d="M279.1,191.81c-.1-.1-.56.18-.37.37S279.3,192,279.1,191.81Z"/><path class="cls-2" d="M276.87,209.35c.08.45.41.23.75,0A.38.38,0,0,0,276.87,209.35Z"/><path class="cls-2" d="M277.61,160.09h-.75v.75h.75Z"/><path class="cls-2" d="M279.1,79.13c-.1-.1-.56.18-.37.37S279.3,79.32,279.1,79.13Z"/><path class="cls-2" d="M285.81,84c.08.45.41.23.75,0A.38.38,0,0,0,285.81,84Z"/><path class="cls-2" d="M235.9,243.67c.1-1-.14-1.6-1.12-1.49,0,.23-.05.44-.37.37C234.3,243.54,234.93,243.78,235.9,243.67Z"/><path class="cls-2" d="M288.42,205.24c-.29.08-.73,0-.75.37C288,205.53,288.41,205.6,288.42,205.24Z"/><path class="cls-2" d="M282.83,93.3c.1.1.57-.18.37-.37S282.64,93.11,282.83,93.3Z"/><path class="cls-2" d="M282.08,172.41a.38.38,0,0,0-.74,0C281.76,172.37,281.92,172.95,282.08,172.41Z"/><path class="cls-2" d="M280.59,154.87c.06.44-.06,1.06.37,1.12,0-.23.05-.44.37-.37C281.3,155.16,281.23,154.73,280.59,154.87Z"/><path class="cls-2" d="M269.42,134.72c-.1-.1-.56.18-.37.37S269.61,134.91,269.42,134.72Z"/><path class="cls-2" d="M263.83,192.93c-.1-.1-.56.18-.37.37S264,193.12,263.83,192.93Z"/><path class="cls-2" d="M264.21,179.5H265c.42-.54.4-.91-.37-1.12C264.56,178.85,264.1,178.89,264.21,179.5Z"/><path class="cls-2" d="M266.44,173.9c.1.1.57-.18.37-.37S266.25,173.71,266.44,173.9Z"/><path class="cls-2" d="M260.11,291.06c-.1-.1-.57.18-.37.37S260.3,291.25,260.11,291.06Z"/><path class="cls-2" d="M263.09,94.8c.08.45.41.23.74,0A.38.38,0,0,0,263.09,94.8Z"/><path class="cls-2" d="M268.3,181H269v-.75h-.74Z"/><path class="cls-2" d="M275.75,156.74c-.1-.1-.57.18-.37.37S275.95,156.93,275.75,156.74Z"/><path class="cls-2" d="M274.26,131c-.1-.1-.56.18-.37.37S274.45,131.18,274.26,131Z"/><path class="cls-2" d="M276.13,114.95c-.9,1.25,1.25-.9,0,0Z"/><path class="cls-2" d="M275.75,201.88c-.9,1.25,1.25-.9,0,0Z"/><path class="cls-2" d="M273.89,221.29c-.9,1.25,1.25-.9,0,0Z"/><path class="cls-2" d="M260.11,266.43c-.29.08-.73,0-.75.37C259.66,266.72,260.1,266.8,260.11,266.43Z"/><path class="cls-2" d="M272.77,123.53c.08.45.41.23.74,0A.38.38,0,0,0,272.77,123.53Z"/><path class="cls-2" d="M252.66,303.75c.1.1.56-.18.37-.37S252.47,303.55,252.66,303.75Z"/><path class="cls-2" d="M205.73,144c0-.21-.3-.42-.37,0C205.36,144.26,205.66,144.47,205.73,144Z"/><path class="cls-2" d="M205.36,11.59h-.74v.75h.74Z"/><path class="cls-2" d="M199.4,133.23c-.44.06-1.06-.06-1.12.37C198.72,133.54,199.34,133.67,199.4,133.23Z"/><path class="cls-2" d="M200.89,91.81a1,1,0,0,0-1.12.75A1,1,0,0,0,200.89,91.81Z"/><path class="cls-2" d="M205,68.68c-.29.08-.73,0-.75.37C204.53,69,205,69,205,68.68Z"/><path class="cls-2" d="M199,64.2c-.29.08-.73,0-.75.37C198.57,64.49,199,64.56,199,64.2Z"/><path class="cls-2" d="M200.52,87.71c-.88.23-1.73.5-1.86,1.49C199.4,89.9,200.39,88.74,200.52,87.71Z"/><path class="cls-2" d="M200.15,210.84c1.25,1.13,1.13-1.38,0,0Z"/><path class="cls-2" d="M203.13,121.29h-.74c0,.37-.3.44-.37.75C202.59,122,203.3,122.08,203.13,121.29Z"/><path class="cls-2" d="M207.22,86.59c0,.21.3.42.37,0C207.6,86.38,207.29,86.16,207.22,86.59Z"/><path class="cls-2" d="M207.6,38.83h-.75c0,.48-.48.52-.37,1.12h1.12Z"/><path class="cls-2" d="M202.75,0c-.1-.1-.56.18-.37.37S202.95.22,202.75,0Z"/><path class="cls-2" d="M203.87,48.9c.06-.39-.29-1-.37-.37C203.44,48.92,203.79,49.49,203.87,48.9Z"/><path class="cls-2" d="M204.62,151.14c-.71.08-.82-.42-1.49-.37a3.18,3.18,0,0,0-.37,2.24Q205,153.4,204.62,151.14Z"/><path class="cls-2" d="M197.17,28.38c-.1-.1-.57.18-.37.37S197.36,28.57,197.17,28.38Z"/><path class="cls-2" d="M194.19,226.14h-.75v.75h.75Z"/><path class="cls-2" d="M194.19,256.73h-.75v.75h.75Z"/><path class="cls-2" d="M193.44,92.18c0,.23-.05.44-.37.37v.75C194,93.88,194.17,92,193.44,92.18Z"/><path class="cls-2" d="M190.83,25.77c0,.21.3.42.37,0C191.21,25.56,190.91,25.34,190.83,25.77Z"/><path class="cls-2" d="M190.83,342.93c-1,0-2.19-.21-2.23.75C189.67,343.75,190.49,343.58,190.83,342.93Z"/><path class="cls-2" d="M189.35,349.27c.1.1.56-.18.37-.37S189.15,349.08,189.35,349.27Z"/><path class="cls-2" d="M208,86.59c.1.1.56-.18.37-.37S207.78,86.39,208,86.59Z"/><path class="cls-2" d="M197.54,330.24h-.74V331h.74Z"/><path class="cls-2" d="M195.3,71.66v1.12C196.39,73.33,196.39,71.11,195.3,71.66Z"/><path class="cls-2" d="M196.8,30.25c.1.1.56-.18.37-.37S196.6,30.05,196.8,30.25Z"/><path class="cls-2" d="M194.56,231.73c-.9,1.25,1.25-.9,0,0Z"/><path class="cls-2" d="M192.7,179.87c-.1-.1-.56.18-.37.37S192.89,180.06,192.7,179.87Z"/><path class="cls-2" d="M193.44,207.85h-.74v.75h.74Z"/><path class="cls-2" d="M213.55,93.3c-.29.08-.73,0-.74.37C213.1,93.59,213.54,93.67,213.55,93.3Z"/><path class="cls-2" d="M227,281c0,.21.3.42.37,0C227.34,280.78,227,280.56,227,281Z"/><path class="cls-2" d="M229.2,47c-.29.08-.73,0-.74.37C228.74,47.33,229.19,47.4,229.2,47Z"/><path class="cls-2" d="M219.89,216.06c-.18.18-.43-.07-.37.37C219.72,218.13,221.65,214.3,219.89,216.06Z"/><path class="cls-2" d="M228.83,41.07c.08.45.41.23.74,0A.38.38,0,0,0,228.83,41.07Z"/><path class="cls-2" d="M225.1,29.13c-.1-.1-.57.18-.37.37S225.29,29.32,225.1,29.13Z"/><path class="cls-2" d="M224.73,88.45c0,.21.3.42.37,0C225.1,88.25,224.8,88,224.73,88.45Z"/><path class="cls-2" d="M208.71,232.85c.08.45.41.23.75,0A.38.38,0,0,0,208.71,232.85Z"/><path class="cls-2" d="M228.08,225.39c.26-1.29-1.3-1.34-1.86-.75C225.84,225.9,227.38,225.23,228.08,225.39Z"/><path class="cls-2" d="M236.27,49.28c.05-.39-.29-1-.37-.37C235.85,49.29,236.19,49.87,236.27,49.28Z"/><path class="cls-2" d="M231.8,33.6c-.48,0-.52-.48-1.12-.37C230.11,34.15,232,34.33,231.8,33.6Z"/><path class="cls-2" d="M233.29,238.45c.1.1.57-.18.37-.37S233.1,238.26,233.29,238.45Z"/><path class="cls-2" d="M231.8,288.82V287.7h-1.12C230.62,288.52,231,288.89,231.8,288.82Z"/><path class="cls-2" d="M230.31,332.48c.66-.09,1.86.38,1.49-.75C231,331.63,230.4,331.82,230.31,332.48Z"/><path class="cls-2" d="M229.2,298.15c-1-.11-1.22.52-1.12,1.49C229.06,299.76,229.3,299.13,229.2,298.15Z"/><path class="cls-2" d="M212.81,48.9c-.1-.1-.57.18-.37.37S213,49.09,212.81,48.9Z"/><path class="cls-2" d="M216.16,140.69c.08.45.41.23.74,0A.38.38,0,0,0,216.16,140.69Z"/><path class="cls-2" d="M216.53,200.76c-.58,0-1.29-.05-1.12.75A1,1,0,0,0,216.53,200.76Z"/><path class="cls-2" d="M215.42,167.18c-.1-.1-.57.18-.37.37S215.61,167.38,215.42,167.18Z"/><path class="cls-2" d="M210.95,340.69c-.1-.1-.56.18-.37.37S211.14,340.88,210.95,340.69Z"/><path class="cls-2" d="M210.2,15.69c.21-.23.87-1.77,0-1.87C210.31,14.92,208.71,15.21,210.2,15.69Z"/><path class="cls-2" d="M216.53,339.94c-.1-.1-.56.18-.37.37S216.73,340.13,216.53,339.94Z"/><path class="cls-2" d="M234,225.39c0,.21.3.42.37,0C234.41,225.18,234.11,225,234,225.39Z"/><path class="cls-2" d="M215.79,15.32c-.81-.07-1.19.31-1.12,1.12-.87.12-1.61.38-1.86,1.12h1.86C214.53,16.3,216.32,17,215.79,15.32Z"/><path class="cls-2" d="M215,229.12c0-.21-.3-.42-.37,0C214.67,229.33,215,229.55,215,229.12Z"/><path class="cls-2" d="M212.06,261.21c.1.1.57-.18.37-.37S211.87,261,212.06,261.21Z"/><path class="cls-2" d="M215,18.68c-.29.08-.74,0-.75.37C214.59,19,215,19,215,18.68Z"/><path class="cls-2" d="M214.3,20.92c.05-.44.66-.85,0-1.12C214.25,20.24,213.64,20.64,214.3,20.92Z"/><path class="cls-2" d="M130.87,257.48c-.7.08-.82-.42-1.49-.37-.21,1.05-1.29,3.15-.37,4.1C130.89,260.53,131.35,259.89,130.87,257.48Z"/><path class="cls-2" d="M35.53,244.79v-1.87H34.41C33.68,243.65,34,245.21,35.53,244.79Z"/><path class="cls-2" d="M34.41,150c.29-.08.73,0,.74-.37C34.87,149.73,34.42,149.66,34.41,150Z"/><path class="cls-2" d="M33.29,285.09c.1.1.57-.18.37-.37S33.1,284.9,33.29,285.09Z"/><path class="cls-2" d="M35.53,319.79c0,.37-.3.44-.37.75.48,0,.52.48,1.12.37A1,1,0,0,0,35.53,319.79Z"/><path class="cls-2" d="M35.15,309h.74v-.75h-.74Z"/><path class="cls-2" d="M34,205.24c0,.21.3.42.37,0C34.41,205,34.11,204.82,34,205.24Z"/><path class="cls-2" d="M32.55,212.7h.74V212h-.74Z"/><path class="cls-2" d="M34.78,291.81h.74c.42-.54.4-.91-.37-1.12C35.13,291.17,34.68,291.21,34.78,291.81Z"/><path class="cls-2" d="M31.43,281.73a1,1,0,0,0-.75-1.12C30.15,281.16,30.14,282.06,31.43,281.73Z"/><path class="cls-2" d="M43,325.39c-.51.48-.57,1.83.37,1.87C43.15,326.71,43.78,325.33,43,325.39Z"/><path class="cls-2" d="M35.9,297.78c-.19-1.06-1.06-1.43-1.86-1.87-.78,1.21-3.38.59-2.61,3.36.7-.08.82.42,1.49.37.87-.25.54-1.69,1.49-1.87A1,1,0,0,0,35.9,297.78Z"/><path class="cls-2" d="M33.66,319h.75v-.75h-.75Z"/><path class="cls-2" d="M30.68,186.59c0,.21.3.42.37,0C31.06,186.38,30.76,186.16,30.68,186.59Z"/><path class="cls-2" d="M31.8,211.21c-.29.08-.73,0-.75.37C31.35,211.5,31.79,211.57,31.8,211.21Z"/><path class="cls-2" d="M34.41,309.34c-.1-.1-.57.18-.37.37S34.6,309.54,34.41,309.34Z"/><path class="cls-2" d="M37.76,313.45v-.75C37.08,311.46,35.95,313.82,37.76,313.45Z"/><path class="cls-2" d="M37.76,298.52H37v.75h.74Z"/><path class="cls-2" d="M37,310.46c.1.1.56-.18.37-.37S36.82,310.27,37,310.46Z"/><path class="cls-2" d="M37.76,239.2v.75h1.12C38.93,239.27,38.51,239.07,37.76,239.2Z"/><path class="cls-2" d="M37.76,333.22c.06-.44.59-.4,1.12-.37.22-1.51-1.53-1.19-1.86-.37C37.51,332.48,37.36,333.13,37.76,333.22Z"/><path class="cls-2" d="M38.51,313.08c-.1-.1-.56.18-.37.37S38.7,313.27,38.51,313.08Z"/><path class="cls-2" d="M42.6,318.3c-.29.08-.73,0-.74.37C42.15,318.59,42.59,318.66,42.6,318.3Z"/><path class="cls-2" d="M41.49,333.6c.09-.53.61-.63.75-1.12C41.31,331.28,39.93,333.35,41.49,333.6Z"/><path class="cls-2" d="M40.37,314.94c.3,1.29-.7,1.57,0,2.24h1.49c-.18-1.18.67-1.32.37-2.61C41.06,315,41.25,314.46,40.37,314.94Z"/><path class="cls-2" d="M41.86,324.64a1.64,1.64,0,0,0-1.49.75C40.92,326,42,325.8,41.86,324.64Z"/><path class="cls-2" d="M39.25,184.35c-.12.5-.53.71-.37,1.49A.78.78,0,1,0,39.25,184.35Z"/><path class="cls-2" d="M40.37,189.57c.08.45.41.23.74,0A.38.38,0,0,0,40.37,189.57Z"/><path class="cls-2" d="M38.88,312.7c-.05,1,.91,1.08,1.86,1.12v-1.49C39.69,312,39.77,312.86,38.88,312.7Z"/><path class="cls-2" d="M74.26,125.39H75v-.75h-.74Z"/><path class="cls-2" d="M77.61,149.65c0,.21.3.42.37,0C78,149.44,77.68,149.22,77.61,149.65Z"/><path class="cls-2" d="M76.87,75c.06.44-.06,1.06.37,1.12,0-.23.06-.44.37-.37C77.57,75.31,77.5,74.88,76.87,75Z"/><path class="cls-2" d="M75.75,206.36c-.09.22.15.79.37.75S76.31,205,75.75,206.36Z"/><path class="cls-2" d="M77.61,291.81c0-.23.06-.44.37-.37,0-.46-.11-.88-.74-.75C77.3,291.13,77.18,291.75,77.61,291.81Z"/><path class="cls-2" d="M76.5,212c.1.1.56-.18.37-.37S76.3,211.77,76.5,212Z"/><path class="cls-2" d="M76.12,229.5c.16-.71,1.06-.68.74-1.87-.71-.08-.82.42-1.49.37C75.27,228.85,75.47,229.41,76.12,229.5Z"/><path class="cls-2" d="M76.5,277.26v1.12C77.58,278.92,77.58,276.71,76.5,277.26Z"/><path class="cls-2" d="M91,252.63c.29-.08.74,0,.75-.37C91.48,252.34,91,252.27,91,252.63Z"/><path class="cls-2" d="M106.29,330.61c-.09.53-.61.63-.74,1.12C106.31,332.06,107.22,330.76,106.29,330.61Z"/><path class="cls-2" d="M75.38,253a.38.38,0,0,0-.74,0C74.71,253.45,75,253.23,75.38,253Z"/><path class="cls-2" d="M90.65,250c-.16.59-1.17.32-.74,1.49C90.85,251.9,91.55,250.25,90.65,250Z"/><path class="cls-2" d="M73.89,242.18c1.25,1.13,1.13-1.38,0,0Z"/><path class="cls-2" d="M89.9,272.78c-.3,2.26,1.71.25,0,0Z"/><path class="cls-2" d="M74.63,79.5c.1.1.56-.18.37-.37S74.44,79.3,74.63,79.5Z"/><path class="cls-2" d="M114.86,385.09a1.05,1.05,0,0,1,0,.2l.39,0A.31.31,0,0,0,114.86,385.09Z"/><path class="cls-2" d="M49.68,321.28c.36.69-1.11,1.25,0,1.49C49.79,322.55,50.61,321.34,49.68,321.28Z"/><path class="cls-2" d="M116,205.24c.1.1.56-.18.37-.37S115.78,205,116,205.24Z"/><path class="cls-2" d="M83.2,135.47h.75v-.75H83.2Z"/><path class="cls-2" d="M46.7,336.58v1.87c1.54-.43,1.45.78,2.61.75,1-.82.59-1.6.37-3C48.61,336.25,47.24,336,46.7,336.58Z"/><path class="cls-2" d="M51.17,188.45v-.75c-.23,0-.44-.06-.37-.37h-.74c0,.23-.06.44-.37.37v.75c.23,0,.44.06.37.37h.74C50.82,188.6,50.85,188.38,51.17,188.45Z"/><path class="cls-2" d="M37.39,212.7c0,.23-.06.44-.37.37v.75C37.93,214.4,38.11,212.56,37.39,212.7Z"/><path class="cls-2" d="M46,321.28c0,.21.3.42.37,0C46.33,321.08,46,320.86,46,321.28Z"/><path class="cls-2" d="M75,55.25c0,.21.3.42.37,0C75.38,55,75.08,54.82,75,55.25Z"/><path class="cls-2" d="M75,149.65c.42,0,.58.54.75,0A.38.38,0,0,0,75,149.65Z"/><path class="cls-2" d="M73.89,59.72c.1.1.56-.18.37-.37S73.7,59.53,73.89,59.72Z"/><path class="cls-2" d="M73.14,307.48c.06.44-.06,1.06.37,1.12,0-.23.05-.44.37-.37C73.85,307.77,73.78,307.34,73.14,307.48Z"/><path class="cls-2" d="M72.77,268.3c0,.21.3.42.37,0C73.14,268.09,72.84,267.88,72.77,268.3Z"/><path class="cls-2" d="M302.94,157.85c-.1-.1-.56.18-.37.37S303.13,158,302.94,157.85Z"/><path class="cls-2" d="M.15,212.05,0,212.7H.15Z"/><path class="cls-2" d="M25.84,284c.1.1.57-.18.37-.37S25.65,283.78,25.84,284Z"/><path class="cls-2" d="M24.73,278h1.49c.1-1-.14-1.61-1.12-1.49C25,277,24.57,277.22,24.73,278Z"/><path class="cls-2" d="M21.37,172.41h-.75v.75h.75Z"/><path class="cls-2" d="M214.3,200.39c0-.21-.3-.42-.37,0C213.93,200.6,214.23,200.82,214.3,200.39Z"/><path class="cls-2" d="M117.09,384.34c0,.22,0,.43,0,.64.73-.13,1.48-.29,2.23-.48,0-.05,0-.1,0-.16Z"/><path class="cls-2" d="M44.47,338.45c-.75,0-1-.46-1.3-.06l1,.47A1.54,1.54,0,0,0,44.47,338.45Z"/><path class="cls-2" d="M25.84,307.85a.38.38,0,0,1-.09.2l.13.63C26.16,308.6,26.25,308.37,25.84,307.85Z"/><path class="cls-2" d="M23.24,291.43H24c0-.23.05-.44.37-.37.06-1.05-1.05-.94-1.49-1.49C22.56,290.62,23.39,290.54,23.24,291.43Z"/><path class="cls-2" d="M24,233.23h-.75V234H24Z"/><path class="cls-2" d="M23.24,274.64c.1.1.57-.18.37-.37S23,274.45,23.24,274.64Z"/><path class="cls-2" d="M22.86,231c-1.25-1.13-1.13,1.38,0,0Z"/><path class="cls-2" d="M9.08,245.54c1.25,1.13,1.13-1.38,0,0Z"/><path class="cls-2" d="M9.08,189.94c.93.06,1.17-.57,1.49-1.12-.71.08-.82-.42-1.49-.37Z"/><path class="cls-2" d="M25.84,197.78c-.29.08-.73,0-.75.37C25.39,198.07,25.83,198.14,25.84,197.78Z"/><path class="cls-2" d="M303.69,127.26c-.29.08-.74,0-.75.37C303.23,127.55,303.68,127.62,303.69,127.26Z"/><path class="cls-2" d="M305.18,161.21c.08.45.41.23.74,0A.38.38,0,0,0,305.18,161.21Z"/><path class="cls-2" d="M298.1,82.48c.29-.08.73,0,.75-.37C298.55,82.19,298.11,82.12,298.1,82.48Z"/><path class="cls-2" d="M292.14,72.78c-.05.44-.66.85,0,1.12C292.19,73.46,292.8,73.06,292.14,72.78Z"/><path class="cls-2" d="M302.57,151.89a.38.38,0,0,0,.74,0C302.9,151.92,302.73,151.34,302.57,151.89Z"/><path class="cls-2" d="M297.73,99.27c0,.23-.05.44-.37.37v.75C298.27,101,298.45,99.13,297.73,99.27Z"/><path class="cls-2" d="M125.29,101.89c-.1-.1-.57.18-.37.37S125.48,102.08,125.29,101.89Z"/><path class="cls-2" d="M291.4,113.83c.29-.08.73,0,.74-.37C291.85,113.54,291.41,113.46,291.4,113.83Z"/><path class="cls-2" d="M293.63,126.14c0-.21-.3-.42-.37,0C293.26,126.35,293.56,126.56,293.63,126.14Z"/><path class="cls-2" d="M291.77,165.69c.08.45.41.23.74,0A.38.38,0,0,0,291.77,165.69Z"/><path class="cls-2" d="M297.35,85.47c1.91-.9-1.28-1,0,0Z"/><path class="cls-2" d="M294,100.77a.38.38,0,0,0-.75,0C293.68,100.73,293.84,101.31,294,100.77Z"/><path class="cls-2" d="M295.12,209.72c-.1-.1-.56.18-.37.37S295.31,209.91,295.12,209.72Z"/><path class="cls-2" d="M14.67,257.48c.29-.08.73,0,.75-.37C15.13,257.19,14.68,257.12,14.67,257.48Z"/><path class="cls-2" d="M24.35,299.27c.28-.73-.21-.68-.55-.8.65,2.95,1.21,5.88,1.79,8.75.49-.27,1.06-.77,1.37-.87-1.17-1.23,2.61-1.26,1.12-3,1.89-.67,3.13.21,4.1,0,1.26-1.53-1.72-1.32-1.49-3-.9-.15-.81.68-1.86.37C28.6,299,26.38,299.23,24.35,299.27Z"/><path class="cls-2" d="M28.45,156.74c.1.1.57-.18.37-.37S28.26,156.54,28.45,156.74Z"/><path class="cls-2" d="M29.2,281.73c.1.1.56-.18.37-.37S29,281.54,29.2,281.73Z"/><path class="cls-2" d="M31.06,318.67c0,.21.3.42.37,0C31.43,318.47,31.13,318.25,31.06,318.67Z"/><path class="cls-2" d="M31.06,319.79c0,.21.3.42.37,0C31.43,319.59,31.13,319.37,31.06,319.79Z"/><path class="cls-2" d="M45.58,311.21c0-.21-.3-.42-.37,0C45.21,311.42,45.51,311.63,45.58,311.21Z"/><path class="cls-2" d="M44.09,323.15a1,1,0,0,0-1.12.75A1,1,0,0,0,44.09,323.15Z"/><path class="cls-2" d="M40,333.6a4.21,4.21,0,0,1-2.06,1.31c.56.48,1.16.94,1.79,1.38C40,335.49,40.89,334.2,40,333.6Z"/><path class="cls-2" d="M36.27,272c.1.1.57-.18.37-.37S36.08,271.84,36.27,272Z"/><path class="cls-2" d="M45.21,242.18c-.1-.1-.56.18-.37.37S45.4,242.37,45.21,242.18Z"/><path class="cls-2" d="M40.69,337l0,0v0Z"/><path class="cls-2" d="M28.82,317.93h1.12c-.06-.44.06-1.06-.37-1.12C29.53,317.39,28.62,317.1,28.82,317.93Z"/><path class="cls-2" d="M44.84,317.55c.06-.93-.57-1.17-1.12-1.49C43.62,317,43.86,317.67,44.84,317.55Z"/><path class="cls-2" d="M6.85,255.24c.1.1.57-.18.37-.37S6.66,255,6.85,255.24Z"/><path class="cls-2" d="M15.41,228.75v.75h.75v-.75Z"/><path class="cls-2" d="M1.63,234.72c-.39,2.17,1.61.16,0,0Z"/><path class="cls-2" d="M12.06,253v1.12h.75c0-.48.48-.52.37-1.12Z"/><path class="cls-2" d="M18.4,235.47c0,.88.64,1.1.37,2.24C20.8,237.7,19.08,235.94,18.4,235.47Z"/><path class="cls-2" d="M18,172c.1.1.57-.18.37-.37S17.83,171.84,18,172Z"/><path class="cls-2" d="M11.32,254.12c.1.1.56-.18.37-.37S11.13,253.93,11.32,254.12Z"/><path class="cls-2" d="M36.65,171.29c.1.1.56-.18.37-.37S36.45,171.1,36.65,171.29Z"/><path class="cls-2" d="M11.69,216.44v-.75C11,214.45,9.88,216.81,11.69,216.44Z"/><path class="cls-2" d="M8.71,248.15a1.4,1.4,0,0,0-1.49,1.49C8.39,249.82,8.27,248.71,8.71,248.15Z"/><path class="cls-2" d="M3.5,241.81c0-.21-.3-.42-.37,0C3.12,242,3.43,242.23,3.5,241.81Z"/><path class="cls-2" d="M7.59,262.7c0,.21.3.42.37,0C8,262.5,7.67,262.28,7.59,262.7Z"/><path class="cls-2" d="M21.75,209.35c-.39-1.4,1.61-1.7,0-2.24.1,1.47-1.59,1.14-1.49,2.61C21,209.8,21.08,209.3,21.75,209.35Z"/><path class="cls-2" d="M6.48,246.66c.29-.08.73,0,.75-.37C6.93,246.37,6.49,246.3,6.48,246.66Z"/><path class="cls-2" d="M105.92,286.58c0,.37-.3.44-.37.75C106.15,288.35,106.8,286.78,105.92,286.58Z"/><path class="cls-2" d="M83.57,209.72c0-.21-.3-.42-.37,0C83.2,209.93,83.5,210.14,83.57,209.72Z"/><path class="cls-2" d="M83.2,326.51c.1.1.57-.18.37-.37S83,326.32,83.2,326.51Z"/><path class="cls-2" d="M81,311.21a.38.38,0,0,0-.75,0C80.64,311.17,80.8,311.75,81,311.21Z"/><path class="cls-2" d="M85.06,244.42h-.74v.75h.74Z"/><path class="cls-2" d="M92.51,302.63c-.1-.1-.56.18-.37.37S92.7,302.82,92.51,302.63Z"/><path class="cls-2" d="M82.08,338.45c0,.21.3.42.37,0C82.46,338.24,82.15,338,82.08,338.45Z"/><path class="cls-2" d="M82.45,230.61c.1.1.56-.18.37-.37S82.26,230.42,82.45,230.61Z"/><path class="cls-2" d="M79.1,184.72a.8.8,0,1,0,0,1.49C79.07,185.19,79.72,185.46,79.1,184.72Z"/><path class="cls-2" d="M72.4,200.76h-.74c0,.48-.48.52-.37,1.12H72C72,201.41,72.5,201.37,72.4,200.76Z"/><path class="cls-2" d="M79.1,190.69h-.75v.75h.75Z"/><path class="cls-2" d="M70.91,141.44c0-.21-.3-.42-.37,0C70.53,141.64,70.84,141.86,70.91,141.44Z"/><path class="cls-2" d="M72,276.14c-.42,0-.58-.54-.74,0A.38.38,0,0,0,72,276.14Z"/><path class="cls-2" d="M79.1,260.09h-.75v.75h.75Z"/><path class="cls-2" d="M78.36,351.13h.75v-.75h-.75Z"/><path class="cls-2" d="M93.26,113.83c-.1-.1-.56.18-.37.37S93.45,114,93.26,113.83Z"/><path class="cls-2" d="M93.26,47.78c-1,1.89,1.3,1.39,0,0Z"/><path class="cls-2" d="M94,90.69V89.57c-.7-.08-.82.42-1.49.37C92.14,91.07,93.34,90.61,94,90.69Z"/><path class="cls-2" d="M87.3,149.27H88v-.75H87.3Z"/><path class="cls-2" d="M69.79,272c.29-.08.73,0,.75-.37C70.25,271.74,69.8,271.67,69.79,272Z"/><path class="cls-2" d="M93.63,280.24c0-.59,1-.29.75-1.12C93.61,278.79,92.7,280.09,93.63,280.24Z"/><path class="cls-2" d="M87.3,60.1v1.12C88.38,61.76,88.38,59.55,87.3,60.1Z"/><path class="cls-2" d="M84.69,325.39c0,.21.3.42.37,0C85.06,325.18,84.76,325,84.69,325.39Z"/><path class="cls-2" d="M88,219c.29-.08.73,0,.75-.37C88.5,218.76,88.05,218.68,88,219Z"/><path class="cls-2" d="M85.43,362c.1.1.57-.18.37-.37S85.24,361.76,85.43,362Z"/><path class="cls-2" d="M85.06,128c.37,0,.44.3.74.37,0-.37.3-.44.37-.75-.37,0-.44-.3-.75-.37C85.44,127.63,85.13,127.7,85.06,128Z"/><path class="cls-2" d="M86.18,89.2c-.1-.1-.57.18-.37.37S86.37,89.39,86.18,89.2Z"/><path class="cls-2" d="M87.67,98.15h.74v-.75h-.74Z"/><path class="cls-2" d="M85.81,139.57a.38.38,0,0,0-.74,0C85.48,139.53,85.64,140.11,85.81,139.57Z"/><path class="cls-2" d="M82.83,341.06c.1.1.57-.18.37-.37S82.63,340.87,82.83,341.06Z"/><path class="cls-2" d="M61.23,155.24V156c.37,0,.44.3.74.37C61.93,155.78,62,155.07,61.23,155.24Z"/><path class="cls-2" d="M54.89,319v-.75C54.21,317.06,53.08,319.42,54.89,319Z"/><path class="cls-2" d="M53.78,146.29c-.1-.1-.56.18-.37.37S54,146.48,53.78,146.29Z"/><path class="cls-2" d="M56.76,250.76c-.9,1.25,1.25-.9,0,0Z"/><path class="cls-2" d="M59.74,164.2c.55.59,1.66.41,1.49-.75C60.38,163.35,59.82,163.54,59.74,164.2Z"/><path class="cls-2" d="M57.87,154.87c-.9,1.25,1.25-.9,0,0Z"/><path class="cls-2" d="M69.42,73.9h.75v-.75h-.75Z"/><path class="cls-2" d="M117.84,263.45c-.1-.1-.57.18-.37.37S118,263.64,117.84,263.45Z"/><path class="cls-2" d="M52.66,282.11V284h1.49C54.12,282.88,54,281.87,52.66,282.11Z"/><path class="cls-2" d="M125.66,261.58c-.1-.1-.57.18-.37.37S125.85,261.78,125.66,261.58Z"/><path class="cls-2" d="M127.15,78c-.1-.1-.56.18-.37.37S127.34,78.2,127.15,78Z"/><path class="cls-2" d="M58.62,339.57c.38.72,0,2,1.12,1.49.63-2.27,1.77-.92,3.72-.75.29-1.07.75-2,1.12-3-.23-.52-1.43-.06-1.49-.75-.71-2.2,1.19-1.79,1.49-3a15.08,15.08,0,0,0-3-.37c-.42.12-1,2.11-1.49.75-.06-1.13,1.31-.71,1.86-1.12.14-.11.21-.6.37-.75.87-.75,2.25-1.47,1.86-2.61,1.16,1.17.63-1.26.75-2.24-2.07-1.22-2.24,1.4-4.1,1.49a7.65,7.65,0,0,1-.75,3.73,1.75,1.75,0,0,0-1.12.37c-.72-.78-.43-2.55-1.12-3.36a3.45,3.45,0,0,0-1.12,3.36c-.42.82-1.24,1.24-1.49,2.24a3.45,3.45,0,0,1,2.23,1.49C57.35,338.41,58.1,338.6,58.62,339.57Z"/><path class="cls-2" d="M117.46,366.81c.1.1.57-.18.37-.37S117.27,366.61,117.46,366.81Z"/><path class="cls-2" d="M55.64,266.43c1.52-.1,1.74-1.5,2.24-2.61a2.05,2.05,0,0,0-3,2.24C55.18,266.15,55.63,266.07,55.64,266.43Z"/><path class="cls-2" d="M67.56,72c.37,0,.44.3.75.37,0-.37.3-.44.37-.75-.37,0-.44-.3-.75-.37C67.93,71.66,67.63,71.73,67.56,72Z"/><path class="cls-2" d="M66.81,256.73v.75h.75v-.75Z"/><path class="cls-2" d="M58.62,323.52c0,1.51.36,2.63,1.86,2.61a1.75,1.75,0,0,1,.37-1.12c-1.52.17,0-.94,0-1.49C59.46,323.49,59.79,323.1,58.62,323.52Z"/><path class="cls-2" d="M65.7,97c.1.1.56-.18.37-.37S65.5,96.84,65.7,97Z"/><path class="cls-2" d="M68.3,254.12a.38.38,0,0,0-.75,0C68,254.08,68.14,254.66,68.3,254.12Z"/><path class="cls-2" d="M68.3,278c1.25,1.13,1.13-1.38,0,0Z"/><path class="cls-2" d="M65.32,72.41c.42,0,.58.54.75,0A.38.38,0,0,0,65.32,72.41Z"/><path class="cls-2" d="M64.2,315.69c.1.1.56-.18.37-.37S64,315.49,64.2,315.69Z"/><path class="cls-2" d="M58.62,247.78c.1.1.56-.18.37-.37S58.43,247.59,58.62,247.78Z"/><path class="cls-2" d="M59.74,263.82c.1.1.57-.18.37-.37S59.54,263.63,59.74,263.82Z"/><path class="cls-2" d="M58.62,316.06h1.49A.8.8,0,1,0,58.62,316.06Z"/><path class="cls-2" d="M64.2,313.08H65v-.75H64.2Z"/><path class="cls-2" d="M64.58,275.76a1,1,0,0,0,.75,1.12A1,1,0,0,0,64.58,275.76Z"/><path class="cls-2" d="M113,385.09c.29-.08.73,0,.74-.37C113.45,384.8,113,384.73,113,385.09Z"/><path class="cls-2" d="M109.27,219.42c.1.1.57-.18.37-.37S109.08,219.23,109.27,219.42Z"/><path class="cls-2" d="M111.88,121.29h-.74V122h.74Z"/><path class="cls-2" d="M109.64,372.4c.1.1.57-.18.37-.37S109.45,372.21,109.64,372.4Z"/><path class="cls-2" d="M108.9,234.35c.1.1.56-.18.37-.37S108.71,234.15,108.9,234.35Z"/><path class="cls-2" d="M110.76,80.24c.1.1.56-.18.37-.37S110.57,80.05,110.76,80.24Z"/><path class="cls-2" d="M111.13,186.59c0,.21.3.42.37,0C111.51,186.38,111.2,186.16,111.13,186.59Z"/><path class="cls-2" d="M104.05,304.49a1,1,0,0,0,1.12-.75C104.59,303.78,103.88,303.7,104.05,304.49Z"/><path class="cls-2" d="M92.14,332.48c0,.21.3.42.37,0C92.51,332.27,92.21,332.05,92.14,332.48Z"/><path class="cls-2" d="M102.57,167.56c0-.21-.3-.42-.37,0C102.19,167.76,102.5,168,102.57,167.56Z"/><path class="cls-2" d="M100.7,217.18h.74c0-.48.48-.52.37-1.12h-.75C101.06,216.54,100.6,216.58,100.7,217.18Z"/><path class="cls-2" d="M104.8,212.33c-.9,1.25,1.25-.9,0,0Z"/><path class="cls-2" d="M104.05,94.42c.29-.08.74,0,.75-.37C104.51,94.13,104.07,94.06,104.05,94.42Z"/><path class="cls-2" d="M114.48,175.39c.41.54,1.7-1.35.37-1.12,0,0,0,.35,0,.37S114.5,175.42,114.48,175.39Z"/><path class="cls-2" d="M115.6,319.79h-.75v.75h.75Z"/><path class="cls-2" d="M108.15,219.42c-.06-.44.06-1.06-.37-1.12-.31.35-2,1.2-.75,1.87C107,219.14,107.61,218.89,108.15,219.42Z"/><path class="cls-2" d="M115.23,345.54c.1.1.57-.18.37-.37S115,345.34,115.23,345.54Z"/><path class="cls-2" d="M112.25,205.24c.29-.08.73,0,.75-.37C112.71,205,112.26,204.88,112.25,205.24Z"/><path class="cls-2" d="M112.25,320.91c.1.1.57-.18.37-.37S112.06,320.72,112.25,320.91Z"/><path class="cls-2" d="M107,216.81c.1.1.57-.18.37-.37S106.84,216.62,107,216.81Z"/><path class="cls-2" d="M106.66,149.65c.1.1.57-.18.37-.37S106.47,149.45,106.66,149.65Z"/><path class="cls-2" d="M107.41,187.33c1,.26.72-.77,1.12-1.12Q107.31,186.11,107.41,187.33Z"/><path class="cls-2" d="M101.82,207.11c.08.45.41.23.75,0A.38.38,0,0,0,101.82,207.11Z"/><path class="cls-2" d="M116.35,169.8c-.42,0-.58-.54-.74,0A.38.38,0,0,0,116.35,169.8Z"/><path class="cls-2" d="M115.23,211.21c0,.21.3.42.37,0C115.6,211,115.3,210.79,115.23,211.21Z"/><path class="cls-2" d="M114.11,42.93c0-.21-.3-.42-.37,0C113.74,43.14,114,43.36,114.11,42.93Z"/><path class="cls-2" d="M113.74,291.81c0-.23.05-.44.37-.37,0-.46-.11-.88-.74-.75C113.43,291.13,113.3,291.75,113.74,291.81Z"/><path class="cls-2" d="M106.29,103.75c.08.45.41.23.75,0A.38.38,0,0,0,106.29,103.75Z"/><path class="cls-2" d="M101.08,116.44h.75v-.75h-.75Z"/><path class="cls-2" d="M98.47,369c.23,0,.44.06.37.37h.75C100.17,368.5,98.32,368.32,98.47,369Z"/><path class="cls-2" d="M96.61,364.19c.44-.06,1.06.06,1.12-.37C97.29,363.88,96.67,363.76,96.61,364.19Z"/><path class="cls-2" d="M98.1,310.84c-.1-.1-.56.18-.37.37S98.29,311,98.1,310.84Z"/><path class="cls-2" d="M98.47,337.7c-.29.08-.73,0-.74.37C98,338,98.46,338.07,98.47,337.7Z"/><path class="cls-2" d="M98.84,353.37c0-.21-.3-.42-.37,0C98.47,353.58,98.77,353.8,98.84,353.37Z"/><path class="cls-2" d="M98.84,344.79c0,.37-.3.44-.37.75C99.07,346.56,99.72,345,98.84,344.79Z"/><path class="cls-2" d="M99.21,36.59v-.75C98.53,34.6,97.4,37,99.21,36.59Z"/><path class="cls-2" d="M95.12,294.42c0-.21-.3-.42-.37,0C94.74,294.63,95,294.84,95.12,294.42Z"/><path class="cls-2" d="M96.61,170.54c.31-.35,2-1.2.75-1.87C97.43,169.42,95.77,170.27,96.61,170.54Z"/><path class="cls-2" d="M91.77,206.73c.29-.08.73,0,.74-.37C92.22,206.44,91.78,206.37,91.77,206.73Z"/><path class="cls-2" d="M100.33,159.35c-.49,0-.34-.65-.74-.75C99.16,159.37,100.17,160.38,100.33,159.35Z"/><path class="cls-2" d="M99.59,367.93c.1.1.56-.18.37-.37S99.39,367.73,99.59,367.93Z"/><path class="cls-2" d="M96.61,45.54a1,1,0,0,0,.75,1.12A1,1,0,0,0,96.61,45.54Z"/><path class="cls-2" d="M95.12,223.52a.38.38,0,0,0,.74,0C95.44,223.56,95.28,223,95.12,223.52Z"/><path class="cls-2" d="M96.23,250a1,1,0,0,0-.74-1.12C95,249.44,94.94,250.34,96.23,250Z"/><path class="cls-2" d="M102.57,233.6h1.12c0-.67-.37-.87-1.12-.75Z"/><path class="cls-2" d="M103.31,346.28c-.1-.1-.56.18-.37.37S103.5,346.48,103.31,346.28Z"/><path class="cls-2" d="M103.31,98.53c0,.23-.05.44-.37.37v.75C103.86,100.23,104,98.38,103.31,98.53Z"/><path class="cls-2" d="M102.94,265.32h-1.12q-.1,1.22,1.12,1.12Z"/><path class="cls-2" d="M102.2,283.23c.1.1.56-.18.37-.37S102,283,102.2,283.23Z"/><path class="cls-2" d="M95.86,298.52c-.9,1.25,1.25-.9,0,0Z"/><path class="cls-2" d="M97.72,219.79c-.1,0-.27,0-.37,0-.46.12-.13.62.37.37C98,220,98.29,219.51,97.72,219.79Z"/><path class="cls-2" d="M97.72,251.88c0,.21.3.42.37,0C98.1,251.68,97.8,251.46,97.72,251.88Z"/><path class="cls-2" d="M97,211.21v1.12C98.06,212.88,98.06,210.66,97,211.21Z"/><path class="cls-2" d="M95.49,294.42c.08.45.41.23.74,0A.38.38,0,0,0,95.49,294.42Z"/><path class="cls-2" d="M97.72,308.6c.29-.08.73,0,.74-.37C98.18,308.31,97.73,308.24,97.72,308.6Z"/><path class="cls-2" d="M95.86,219.42c.29-.08.73,0,.75-.37C96.32,219.13,95.87,219.06,95.86,219.42Z"/></g></g></svg>