<svg xmlns="http://www.w3.org/2000/svg" viewBox="0 0 92.45 306.99"><defs><style>.cls-1{fill:#6fb297;}.cls-2{fill:#fff;}</style></defs><title>right-blob-green</title><g id="Layer_2" data-name="Layer 2"><g id="Landing_page_inactive" data-name="Landing page inactive"><path class="cls-1" d="M92,7.16c-3.27-3.81-7.24-7-14.46-7C65.31-2.28,54.31,33.66,23.75,48c-26.9,21.56-8.56,79.07-22,124.59-8.56,45.53,17.12,52.71,18.34,81.47,2.45,28.75,20.78,38.34,31.79,35.94C70,288.17,75.44,306.65,92,307Z"/><path class="cls-2" d="M65.47,35.36c-.07-.13-.59,0-.46.26S65.61,35.6,65.47,35.36Z"/><path class="cls-2" d="M67.51,115.6c.07.13.59,0,.46-.26S67.37,115.36,67.51,115.6Z"/><path class="cls-2" d="M66.44,98.29c.44.06,1,.34,1.18-.07C67.18,98.16,66.61,97.88,66.44,98.29Z"/><path class="cls-2" d="M67.63,36,67.33,37C68.23,37.85,68.82,35.71,67.63,36Z"/><path class="cls-2" d="M68.06,24.47a.38.38,0,0,0-.72-.2C67.3,24.73,67.68,24.6,68.06,24.47Z"/><path class="cls-2" d="M71.15,48.52c-.07.66-1.5,1.52-.59,2.16C70.81,50.21,72.77,48.95,71.15,48.52Z"/><path class="cls-2" d="M71,239.93a1,1,0,0,0,.42,1.28A1,1,0,0,0,71,239.93Z"/><path class="cls-2" d="M70.39,58.36c.57.32-.2.44-.29,1.08C71.41,60.46,71.33,56.92,70.39,58.36Z"/><path class="cls-2" d="M70.36,150.41c0,.46.34.33.72.2A.38.38,0,0,0,70.36,150.41Z"/><path class="cls-2" d="M71.58,131.79c.07.13.59,0,.46-.26S71.44,131.55,71.58,131.79Z"/><path class="cls-2" d="M71,274c.08-.21.17-.41.46-.26.08-.45.12-.88-.52-.92C70.87,273.23,70.59,273.79,71,274Z"/><path class="cls-2" d="M64,42.3a1.64,1.64,0,0,0-1.64.33C63,42.72,64,43.48,64,42.3Z"/><path class="cls-2" d="M60.66,48.75l.72.2.2-.72-.72-.2Z"/><path class="cls-2" d="M61.75,275.31l-.72-.2-.2.72.72.2Z"/><path class="cls-2" d="M61.39,171.94c-.08.21-.17.41-.46.26l-.2.72C61.47,173.73,62.13,172,61.39,171.94Z"/><path class="cls-2" d="M61.8,145c-.05.2.18.49.36.1C62.22,144.88,62,144.59,61.8,145Z"/><path class="cls-2" d="M60.72,202.7c.07.13.59,0,.46-.26S60.58,202.46,60.72,202.7Z"/><path class="cls-2" d="M64.23,228c.26.16.71.2.62.56,1.49.31,2.07-1,2.84-1.93A2.05,2.05,0,0,0,64.23,228Z"/><path class="cls-2" d="M60,45.48c.07.13.59,0,.46-.26S59.87,45.24,60,45.48Z"/><path class="cls-2" d="M60.6,43.32l-.39,1.44,1.08.29C61.64,44.14,61.57,43.47,60.6,43.32Z"/><path class="cls-2" d="M59.66,28.36c-.06.2.18.49.36.1C60.08,28.26,59.84,28,59.66,28.36Z"/><path class="cls-2" d="M60.6,278.09c-.07-.13-.59,0-.46.26S60.73,278.33,60.6,278.09Z"/><path class="cls-2" d="M60.48,164c.05-.2-.18-.49-.36-.1C60.07,164.06,60.3,164.35,60.48,164Z"/><path class="cls-2" d="M70.66,145.08c-.25.46-.7.55-.75,1.34C71.05,147,71.68,145.43,70.66,145.08Z"/><path class="cls-2" d="M78.33,100c.66.09,1.7.85,1.63-.33C79.17,99.33,78.59,99.38,78.33,100Z"/><path class="cls-2" d="M77.84,237.54c-.3,0-.71-.18-.82.16C77.33,237.7,77.74,237.89,77.84,237.54Z"/><path class="cls-2" d="M76.77,278.25c.41.07.42.68.72.2A.38.38,0,0,0,76.77,278.25Z"/><path class="cls-2" d="M80.31,220a.38.38,0,0,0-.72-.2C80,219.92,80,220.52,80.31,220Z"/><path class="cls-2" d="M79.3,257.67c-.06.44-.34,1,.06,1.18.08-.21.17-.41.46-.26C79.9,258.13,79.95,257.7,79.3,257.67Z"/><path class="cls-2" d="M78.1,242.26c-.41-.07-.42-.68-.72-.2A.38.38,0,0,0,78.1,242.26Z"/><path class="cls-2" d="M77.71,293.2c.06-.2-.18-.49-.36-.1C77.29,293.31,77.53,293.59,77.71,293.2Z"/><path class="cls-2" d="M78.92,52.57l.2-.72C78.78,50.47,77.07,52.45,78.92,52.57Z"/><path class="cls-2" d="M78,92.56c.07.13.59,0,.46-.26S77.91,92.32,78,92.56Z"/><path class="cls-2" d="M78.9,222.36l-.72-.2-.2.72.72.2Z"/><path class="cls-2" d="M80.88,234.89c-.05.2.18.49.36.1C81.3,234.79,81.06,234.5,80.88,234.89Z"/><path class="cls-2" d="M76.07,293.53c-.07-.13-.59,0-.46.26S76.21,293.77,76.07,293.53Z"/><path class="cls-2" d="M80.29,150.8c-.08.21-.17.41-.46.26l-.2.72c.22.08.41.17.26.46l.72.2c.08-.21.17-.41.46-.26l.2-.72c-.21-.08-.41-.17-.26-.46Z"/><path class="cls-2" d="M74.61,96.65c.79.39.53,1.85,1.6,1.21C76.35,96.93,75.16,95.43,74.61,96.65Z"/><path class="cls-2" d="M73.5,97.89c.05-.2-.18-.49-.36-.1C73.08,98,73.32,98.28,73.5,97.89Z"/><path class="cls-2" d="M69.49,227.14c.07.13.59,0,.46-.26S69.35,226.9,69.49,227.14Z"/><path class="cls-2" d="M73.09,211.11c-.07-.13-.59,0-.46.26S73.23,211.34,73.09,211.11Z"/><path class="cls-2" d="M76.18,99.4c.07.13.59,0,.46-.26S76,99.16,76.18,99.4Z"/><path class="cls-2" d="M77.39,93.54c-.32,1.63,2,.32.91-.52-1.22.87,0-2.2-1.3-2.29-.12.88.2,1.51-.33,2.62Z"/><path class="cls-2" d="M77.21,60.23c.06-.2-.18-.49-.36-.1C76.8,60.33,77,60.62,77.21,60.23Z"/><path class="cls-2" d="M70.05,213.76c-1.2,1,1.44-.54,0,0Z"/><path class="cls-2" d="M74,243.08c.91,1.42,1.45-1,0,0Z"/><path class="cls-2" d="M75.84,110.52c-.3,0-.71-.18-.82.17C75.33,110.68,75.74,110.87,75.84,110.52Z"/><path class="cls-2" d="M31.49,237.65c.07.13.59,0,.46-.26S31.35,237.42,31.49,237.65Z"/><path class="cls-2" d="M21.94,100.06l-.29,1.08,1.08.29Q23.15,100.29,21.94,100.06Z"/><path class="cls-2" d="M21.59,95.71c.07.13.59,0,.46-.26S21.45,95.47,21.59,95.71Z"/><path class="cls-2" d="M21.1,183.76c-.95,2,1.52.57,0,0Z"/><path class="cls-2" d="M22.63,196.56c.3,0,.71.18.82-.16C23.14,196.4,22.73,196.21,22.63,196.56Z"/><path class="cls-2" d="M21.19,204.67c-.07-.13-.59,0-.46.26S21.32,204.91,21.19,204.67Z"/><path class="cls-2" d="M22.56,199.63c1.08.48,1.26-.63,1.83-1A1.4,1.4,0,0,0,22.56,199.63Z"/><path class="cls-2" d="M29.19,116c.16-.36,0-1-.26-.46C28.77,115.87,28.95,116.51,29.19,116Z"/><path class="cls-2" d="M21,191.09c.05-.2-.18-.49-.36-.1C20.62,191.2,20.85,191.48,21,191.09Z"/><path class="cls-2" d="M29.52,145.84c0-.72,1.08-2-.23-2C28.58,144.23,28.21,145.75,29.52,145.84Z"/><path class="cls-2" d="M23,130.13c.07.13.59,0,.46-.26S22.87,129.9,23,130.13Z"/><path class="cls-2" d="M22.5,262.15c.51-.34,1.12-.45,1.32-.68-.08.09-.53-.34-.26-.46.1,0,2.32,1.31,1.63-.33-.21.51-1,.09-1.53,0a1.2,1.2,0,0,1,.85-1.7c-.83,2.1,1.48.61,2.16.59-.8-1.5,2.85-.53,1.86-2.59,2-.15,3,1,4,1.08,1.62-1.15-1.31-1.73-.65-3.27-.82-.38-1,.44-1.89-.13.24-1.76-2-2.12-3.92-2.62.76-1-1.09-.59-.32-1.64-1.87-.51-3.14,0-4.83-.18.1.94.18,1.9.22,2.89A62.69,62.69,0,0,0,22.5,262.15Z"/><path class="cls-2" d="M20.29,80.66l.72.2.2-.72-.72-.2Z"/><path class="cls-2" d="M17.4,146.4c.84-.45.21-1.14-.32-1.64C16.37,145.14,16.24,146.26,17.4,146.4Z"/><path class="cls-2" d="M29.21,73.43l.2-.72C29.07,71.33,27.36,73.31,29.21,73.43Z"/><path class="cls-2" d="M15.27,165.54c.07.13.59,0,.46-.26S15.13,165.3,15.27,165.54Z"/><path class="cls-2" d="M18.49,228.69c-.86.53-.72,2.2-.43,3,.59-.42,2.89-.56,2-1.77C18.8,231.08,19,229.5,18.49,228.69Z"/><path class="cls-2" d="M16,79.48c0,.46.34.33.72.2C16.79,79.32,16.19,79.06,16,79.48Z"/><path class="cls-2" d="M8.76,120.06c0-.06-.15-.05-.26,0v.32C8.66,120.33,8.85,120.21,8.76,120.06Z"/><path class="cls-2" d="M16,164.2c-1.2,1,1.44-.54,0,0Z"/><path class="cls-2" d="M19.57,229c-1.2,1,1.44-.54,0,0Z"/><path class="cls-2" d="M19.47,89.33a1,1,0,0,0,.42,1.28A1,1,0,0,0,19.47,89.33Z"/><path class="cls-2" d="M20,98.75c-.07-.13-.59,0-.46.26S20.12,99,20,98.75Z"/><path class="cls-2" d="M19.48,212.33c-.06.2.18.49.36.1C19.9,212.23,19.66,211.94,19.48,212.33Z"/><path class="cls-2" d="M14.73,86.88A2.09,2.09,0,0,1,14,88.22C15.13,88.83,15.76,87.23,14.73,86.88Z"/><path class="cls-2" d="M26.05,205.23l.72.2c.15-.45.6-.37.65-1l-1.08-.29Z"/><path class="cls-2" d="M47.13,101.14c.3,0,.71.18.82-.16C47.65,101,47.24,100.79,47.13,101.14Z"/><path class="cls-2" d="M44.69,228.88c.07.13.59,0,.46-.26S44.56,228.64,44.69,228.88Z"/><path class="cls-2" d="M44.26,281.37c.17-.19,1.27-1.14.39-1.44C44.82,280.69,43.25,280.84,44.26,281.37Z"/><path class="cls-2" d="M44.7,117.11c-.66.39-.91,1.25.42,1.28A1,1,0,0,0,44.7,117.11Z"/><path class="cls-2" d="M40.57,87c-.56-.19,0-1-.88-1,.07,1.18-1,.42-1.63.33.12-.57.39-1.24-.43-1.28-.38.83.44,1-.13,1.9C38.89,86.69,39.79,87.19,40.57,87Z"/><path class="cls-2" d="M45.65,164.55c.66.27.9-.19,1.54,0,0-1.46,2-1.21.59-2.16C47.49,163.87,45.94,163.1,45.65,164.55Z"/><path class="cls-2" d="M57,49.3c-.07-.13-.59,0-.46.26S57.17,49.54,57,49.3Z"/><path class="cls-2" d="M47.83,122.6c-1.2,1,1.44-.54,0,0Z"/><path class="cls-2" d="M58.79,245.11c.26-1.06.42-2.06-.94-2.19l-.49,1.8Z"/><path class="cls-2" d="M28.1,119.92c.6-.35.84-1.21,0-1.54C27.54,118.74,27.62,119.41,28.1,119.92Z"/><path class="cls-2" d="M56,56c.21.08.41.17.26.46l.72.2C57.76,55.9,56,55.24,56,56Z"/><path class="cls-2" d="M37.08,188.9c-.24.85.33,1.23-.23,2.26C38.81,191.69,37.6,189.54,37.08,188.9Z"/><path class="cls-2" d="M27.28,137.1l.72.2.2-.72-.72-.2Z"/><path class="cls-2" d="M58.29,20.64c-.07-.13-.59,0-.46.26S58.43,20.88,58.29,20.64Z"/><path class="cls-2" d="M25.44,196.16c.91,1.42,1.45-1,0,0Z"/><path class="cls-2" d="M27.73,244.36c.08-.21.17-.41.46-.26.33-1-.77-1.18-1-1.83-.57.94.25,1.07-.13,1.9Z"/><path class="cls-2" d="M28.5,209c-.3,0-.71-.18-.82.16C28,209.15,28.39,209.34,28.5,209Z"/><path class="cls-2" d="M34.66,84.58c-.14.46-.6.37-.65,1,.56.09,1.29.49,1.54,0-.26-.16-.33-.42-.16-.82Z"/><path class="cls-2" d="M82.12,244.51l-.29,1.08C82.73,246.41,83.31,244.27,82.12,244.51Z"/><path class="cls-2" d="M31.43,228c.07.13.59,0,.46-.26S31.29,227.73,31.43,228Z"/><path class="cls-2" d="M25.33,205c.07.13.59,0,.46-.26S25.2,204.8,25.33,205Z"/><path class="cls-2" d="M30.83,143.88c.05-.2-.18-.49-.36-.1C30.42,144,30.65,144.27,30.83,143.88Z"/><path class="cls-2" d="M31.47,114.66c.07.13.59,0,.46-.26S31.34,114.42,31.47,114.66Z"/><path class="cls-2" d="M61.58,93.48c-.88,2.1,1.58.69,0,0Z"/><path class="cls-2" d="M6.91,200.39a1,1,0,0,0-.43-1.28c-.1.36-.41.35-.56.62C6.39,199.88,6.3,200.33,6.91,200.39Z"/><path class="cls-2" d="M6.24,185.9c-.09.66-.85,1.7.33,1.64A1.64,1.64,0,0,0,6.24,185.9Z"/><path class="cls-2" d="M7.93,191l-1.08-.29-.49,1.8C7.44,193,7.72,192,7.93,191Z"/><path class="cls-2" d="M8.14,177.52c.07.13.59,0,.46-.26S8,177.28,8.14,177.52Z"/><path class="cls-2" d="M48.49,76.37c.19.17,1.14,1.27,1.44.39C49.16,76.92,49,75.35,48.49,76.37Z"/><path class="cls-2" d="M6.28,163.09c-1.2,1,1.44-.54,0,0Z"/><path class="cls-2" d="M33,117.4c.47.13.16.72.52.92.15-.45.6-.37.65-1C33.78,117.28,33.21,117,33,117.4Z"/><path class="cls-2" d="M5.28,192.21c.86-.53.18-1.89-.49-2.45-.16.26-.42.34-.82.16C3.62,191.14,4.67,191.55,5.28,192.21Z"/><path class="cls-2" d="M3.58,204.12c.41.07.42.68.72.2A.38.38,0,0,0,3.58,204.12Z"/><path class="cls-2" d="M3.45,206c.3,0,.71.18.82-.16C4,205.86,3.55,205.67,3.45,206Z"/><path class="cls-2" d="M2.87,186.91c-.07-.13-.59,0-.46.26S3,187.15,2.87,186.91Z"/><path class="cls-2" d="M2.05,175.71c.4,0,.85.24,1.15.07s.11-1.22.65-1c.88.3,1.27-.26,2-.23.6-1.16-1.34-.86-.59-2.1,1.6-1.64.91-4.28.85-6,.44-.82,1.6-.39,1.67-1.87-.68-.39-.84.41-1.27.43-.6,0-1.17-.7-1.93-.63-.54,2.42-1.14,4.81-1.84,7.17Q2.35,173.73,2.05,175.71Z"/><path class="cls-2" d="M41.64,100c-.06.2.18.49.36.1C42.06,99.93,41.82,99.64,41.64,100Z"/><path class="cls-2" d="M43,269c-.06.2.18.49.36.1C43.41,268.93,43.18,268.64,43,269Z"/><path class="cls-2" d="M42.14,188.73l.72.2.2-.72-.72-.2Z"/><path class="cls-2" d="M40.28,273.32c-.36.91-.29,1.58.69,1.74C41.28,274.17,40.72,273.77,40.28,273.32Z"/><path class="cls-2" d="M42.56,185.76c-.91-1.42-1.45,1,0,0Z"/><path class="cls-2" d="M41.42,279c.06-.2-.18-.49-.36-.1C41,279.15,41.24,279.43,41.42,279Z"/><path class="cls-2" d="M37.47,237a1,1,0,0,0-.43-1.28C36.38,236.07,36.13,236.94,37.47,237Z"/><path class="cls-2" d="M35.77,182.35l.72.2.2-.72-.72-.2Z"/><path class="cls-2" d="M35.62,168.77l.2-.72C35.48,166.68,33.77,168.66,35.62,168.77Z"/><path class="cls-2" d="M40.08,142.53c.88.31,1.28-.25,1.73-.69-.7-.1-.68-.62-1.34-.75Z"/><path class="cls-2" d="M4.93,187.86c-.07-.13-.59,0-.46.26S5.06,188.1,4.93,187.86Z"/><path class="cls-2" d="M33.8,99c.07.13.59,0,.46-.26S33.67,98.81,33.8,99Z"/><path class="cls-2" d="M32,231.6l1.44.39c.36-.91.29-1.59-.69-1.74C32.49,230.71,32,230.81,32,231.6Z"/><path class="cls-2" d="M77.52,42.13c1.8.66,1.15-.5,1.83-1-.7-.1-.68-.62-1.34-.75Z"/><path class="cls-2" d="M9.69,197.28c.06,1.71-1.6.39-1.67,1.87C9.25,200.06,11.22,197.78,9.69,197.28Z"/><path class="cls-2" d="M9.72,204.25c-.07-.13-.59,0-.46.26S9.85,204.49,9.72,204.25Z"/><path class="cls-2" d="M10.32,94.57c-.88,2.1,1.58.69,0,0Z"/><path class="cls-2" d="M8.87,206c-.11,1,.83,1.34,1.4,1.93C10.84,206.61,9.91,205.39,8.87,206Z"/><path class="cls-2" d="M8.94,103.86A32.27,32.27,0,0,0,10.38,100a7.27,7.27,0,0,0-1.65-.73q-.05,2.25-.08,4.55A1.65,1.65,0,0,0,8.94,103.86Z"/><path class="cls-2" d="M10.85,169c0,.46.34.33.72.2A.38.38,0,0,0,10.85,169Z"/><path class="cls-2" d="M68.87,28.56c-.12-1.29,1.24,0,1.11-1.24l-1.44-.39A1.65,1.65,0,0,0,68.87,28.56Z"/><path class="cls-2" d="M9.24,94.27a1.58,1.58,0,0,0-.31-1.42c0,.45,0,.9-.06,1.36A2.43,2.43,0,0,0,9.24,94.27Z"/><path class="cls-2" d="M25.46,162.13l.2-.72-.72-.2-.2.72Z"/><path class="cls-2" d="M14.42,64a1.72,1.72,0,0,0-1-.17q-.17.49-.34,1C13.79,64.93,14.32,64.82,14.42,64Z"/><path class="cls-2" d="M12.18,87.73c.3,0,.71.18.82-.16C12.7,87.57,12.29,87.38,12.18,87.73Z"/><path class="cls-2" d="M8.9,204.41c.23-.46.16-1.47-.16-.82C8.51,204.06,8.58,205.06,8.9,204.41Z"/><path class="cls-2" d="M11.48,206.28l-.2.72.72.2.2-.72Z"/><path class="cls-2" d="M11.09,203.47c-.07-.13-.59,0-.46.26S11.23,203.7,11.09,203.47Z"/><path class="cls-2" d="M4.16,208.92v0h0Z"/><path class="cls-2" d="M11.4,86.36c.36,2.09,1.27-1,0,0Z"/><path class="cls-2" d="M18.28,239c.14.39.27.78.4,1.17C19.18,239.91,18.84,238.83,18.28,239Z"/><path class="cls-2" d="M12.46,206.93l-.2.72.72.2.2-.72Z"/><path class="cls-2" d="M11.53,84.46c.3,0,.71.18.82-.16C12,84.3,11.64,84.11,11.53,84.46Z"/><path class="cls-2" d="M18.84,237.3l.72.2.2-.72-.72-.2Z"/><path class="cls-2" d="M13.26,92.28c-.16.36,0,1,.26.46C13.68,92.37,13.5,91.73,13.26,92.28Z"/><path class="cls-2" d="M12.78,122.32c-.1.36-.41.35-.55.62.45.14.37.6,1,.65A1,1,0,0,0,12.78,122.32Z"/><path class="cls-2" d="M53.37,154.67c.3,0,.71.18.82-.16C53.88,154.51,53.47,154.32,53.37,154.67Z"/><path class="cls-2" d="M32.85,253.88c.7.1.68.62,1.34.75.9,0,1-1.49,1.93-1.41a1,1,0,0,0,1.43.39c.1-1.07-.64-1.65-1.3-2.29C35.18,252.29,32.83,251,32.85,253.88Z"/><path class="cls-2" d="M35.77,236.12c-.07-.13-.59,0-.46.26S35.9,236.35,35.77,236.12Z"/><path class="cls-2" d="M38,247.57l.72.2c.54-.41.63-.77-.06-1.18C38.55,247,38.1,247,38,247.57Z"/><path class="cls-2" d="M31.82,276a1,1,0,0,0-.42-1.28c-.1.36-.41.35-.56.62C31.29,275.53,31.21,276,31.82,276Z"/><path class="cls-2" d="M27.74,272.6c.05-.2-.18-.49-.36-.1C27.32,272.7,27.56,273,27.74,272.6Z"/><path class="cls-2" d="M30,272.83l-.2.72.72.2.2-.72Z"/><path class="cls-2" d="M37.5,280.68a1,1,0,0,0,1.27-.43A1,1,0,0,0,37.5,280.68Z"/><path class="cls-2" d="M37,284c-.05-.58.93-1.74.13-1.9C36.49,282.45,36.07,283.73,37,284Z"/><path class="cls-2" d="M37.34,271.36c0,1.32-1.09,1.34-.59,2.16l1.44.39c.13-1.18,1-1.09,1-2.42C38,271.59,38.32,271.12,37.34,271.36Z"/><path class="cls-2" d="M38.62,275.18c-.3,0-.71-.18-.82.16C38.1,275.34,38.51,275.53,38.62,275.18Z"/><path class="cls-2" d="M38.84,240.43c-.07-.13-.59,0-.46.26S39,240.67,38.84,240.43Z"/><path class="cls-2" d="M27.08,273.58c-.06.2.18.49.36.1C27.5,273.48,27.26,273.19,27.08,273.58Z"/><path class="cls-2" d="M85.38,9.08l-.2.72.72.2.2-.72Z"/><path class="cls-2" d="M87.43,220.82a.38.38,0,0,0-.72-.2C86.67,221.08,87,221,87.43,220.82Z"/><path class="cls-2" d="M88.24,229.17l.72.2.2-.72-.72-.2Z"/><path class="cls-2" d="M38.43,254.63l-.2.72.72.2.2-.72Z"/><path class="cls-2" d="M83,302c.05-.2-.18-.49-.36-.1C82.61,302.1,82.85,302.39,83,302Z"/><path class="cls-2" d="M84.87,90.17c-.41-.07-.42-.67-.72-.2A.38.38,0,0,0,84.87,90.17Z"/><path class="cls-2" d="M92,28.68c-1.2,1,1.44-.54,0,0Z"/><path class="cls-2" d="M90.43,273.47c.07.13.59,0,.46-.26S90.3,273.23,90.43,273.47Z"/><path class="cls-2" d="M91.22,31.56c-1.2,1,1.44-.54,0,0Z"/><path class="cls-2" d="M88.84,210c.91,1.42,1.45-1,0,0Z"/><path class="cls-2" d="M91.46,57.54c-.06.2.18.49.36.1C91.88,57.44,91.64,57.15,91.46,57.54Z"/><path class="cls-2" d="M90.26,50.64c-.07-.13-.59,0-.46.26S90.39,50.87,90.26,50.64Z"/><path class="cls-2" d="M56.4,169c-.3,0-.71-.18-.82.16C55.88,169.19,56.29,169.38,56.4,169Z"/><path class="cls-2" d="M52.69,284.44c-.41,1.45-.34,2.63,1.11,3a1.75,1.75,0,0,1,.65-1c-1.52-.23.26-.9.39-1.44C53.51,284.63,53.93,284.35,52.69,284.44Z"/><path class="cls-2" d="M36.5,268.8c-.33,1,.6,1.28,1.5,1.57l.39-1.44C37.46,268.36,37.32,269.19,36.5,268.8Z"/><path class="cls-2" d="M53.88,127.35c-.07-.13-.59,0-.46.26S54,127.58,53.88,127.35Z"/><path class="cls-2" d="M54.57,116.32c.07.13.59,0,.46-.26S54.44,116.08,54.57,116.32Z"/><path class="cls-2" d="M54.58,198.32l1.08.29c.22-.63-.13-.94-.88-1Z"/><path class="cls-2" d="M50.28,279.14l.2-.72C50.13,277,48.43,279,50.28,279.14Z"/><path class="cls-2" d="M49.91,44.27c.07.13.59,0,.46-.26S49.78,44,49.91,44.27Z"/><path class="cls-2" d="M51.15,202.41l.49-1.8-1.08-.29A1.1,1.1,0,0,0,51.15,202.41Z"/><path class="cls-2" d="M52.41,124.24c-.41-.07-.42-.68-.72-.2A.38.38,0,0,0,52.41,124.24Z"/><path class="cls-2" d="M52.28,27.12c.91.36,1.58.29,1.73-.69C53.1,26.08,52.43,26.14,52.28,27.12Z"/><path class="cls-2" d="M51.92,117.53c.08-.21.17-.41.46-.26.08-.45.13-.88-.52-.92C51.8,116.79,51.52,117.36,51.92,117.53Z"/><path class="cls-2" d="M82,1.59c-.26-.53-.23-.15-.1.36S82.28,2.11,82,1.59Z"/><path class="cls-2" d="M35.58,269.33c.07.13.59,0,.46-.26S35.45,269.09,35.58,269.33Z"/><path class="cls-2" d="M35.29,266.15c.07.13.59,0,.46-.26S35.16,265.92,35.29,266.15Z"/><path class="cls-2" d="M55.64,129.37l.72.2.2-.72-.72-.2Z"/><path class="cls-2" d="M34.8,263.7l-.72-.2-.2.72.72.2Z"/><path class="cls-2" d="M35.22,269.23l.2-.72C35.08,267.13,33.37,269.11,35.22,269.23Z"/><path class="cls-2" d="M36.23,281.11a1.64,1.64,0,0,0-1.64.33C35,282.15,36.09,282.27,36.23,281.11Z"/><path class="cls-2" d="M58.55,79.11c-.46.77,1.19,1.16,1.08.29C59.58,79.08,58.79,78.71,58.55,79.11Z"/><path class="cls-2" d="M56.72,170.67l.72.2.2-.72-.72-.2Z"/><path class="cls-2" d="M54.66,277.24l1.44.39A.8.8,0,1,0,54.66,277.24Z"/><path class="cls-2" d="M26.43,270.31c-.17.5-.84.13-1,.68l.11.24.94.26C26.56,271.05,26.84,270.48,26.43,270.31Z"/><path class="cls-2" d="M32.61,264.65c.07.13.59,0,.46-.26S32.48,264.41,32.61,264.65Z"/></g></g></svg>