<svg xmlns="http://www.w3.org/2000/svg" viewBox="0 0 241.32 291.66"><defs><style>.cls-1{fill:#d2ffed;}.cls-2{fill:#fff;}</style></defs><title>left-blob-green</title><g id="Layer_2" data-name="Layer 2"><g id="Landing_page_inactive" data-name="Landing page inactive"><path class="cls-1" d="M232.54,39.77c-9.87-9.87,9-26.66-1.9-37.57C225.27-7.62,185,19,152.65,13.38,115.88,16.74,73.77,81.63,23.06,115.63A166.15,166.15,0,0,0,0,136.91V291.66c12.89-6.66,25.82-12.76,30.87-7.71,27,.29,85.57-74.94,116.16-93.39,32.06-21.44,70.67-63.08,72.71-83.34C217.22,82.41,258.91,48.31,232.54,39.77Z"/><path class="cls-2" d="M61.72,147.22c-2.18.75-2.32-1.89-3.72-.75-.28,1.15,1.28.45.75,1.86C59.9,148.13,61.58,148.44,61.72,147.22Z"/><path class="cls-2" d="M58.37,175.58c-1.85.61-1.19-1.3-2.61-1.12-.15.9.68.81.37,1.87C57.13,176.32,58.33,176.53,58.37,175.58Z"/><path class="cls-2" d="M55.39,141.62c.19,1.06.9,1.59,1.12,2.61,1.14-.27,1.36.38,2.24.37.06-.56-.13-1.38.37-1.49,1.36.23,1.16-.58,1.86-.75,1.46-.34.93-.52,1.86-1.12.48,0,.52.48,1.12.37.34-1.46.81-1.38.37-3,1.54.43,1.45-.79,2.61-.75.06-1.91-1.74-4.72-.37-5.6-.54-.33-1.44-.3-1.12-1.49-1.06.07-2,0-1.86-1.12-.85-.51-1.4,1-1.49,0v-.75c.5.12.71.53,1.49.37.9-1,2.11-1.61,2.61-3-.71-.17-1.6,1.15-1.49-.37-1.21-.46-.29,1.21-1.49.75a3.08,3.08,0,0,1-1.12-1.87c-.16-.68.44-.84.37-1.49-.11-1-.83-.85-.74-1.49a1,1,0,0,1,1.12-.75c.18-1.18-.67-1.32-.37-2.61-1,.42-2.57.73-2.24-1.12a2.08,2.08,0,0,0-1.49.37c0-.48.48-.52.37-1.12-.56-.72-1.57.65-1.86-.75,1.32-.8-.51-.51-.37-1.12,0-.14,1.21,0,.74-.75-1.92.8-1.21-.57-1.12-2.24-2-.22-.24,1.54-1.12,1.87.6-1.47-1.61-.13-1.49-1.12-.11-.86,1.08-.41,1.12-1.12-1-.37.54-1-.37-1.49-1.35-.36-.31,1.68-1.49,1.49-.71-.08-.82.42-1.49.37-1.25.14-.67-1.57-1.86-1.49-.2.54.43,1.93-.37,1.87-1.5-2.38-1,1.31-2.61-.37.29-.08.73,0,.75-.37-1.63.37-.89-.87-1.49-1.49a24.57,24.57,0,0,0-1.86-2.24c-1.36-.25-1.43.81-2.61.75a4,4,0,0,0-3,0c-.28.11-.4.94-.74,1.12s-1.11-.17-1.12.37c.81.06.8.94.75,1.87q-1.22-.1-1.12,1.12c1.5.12,3.83-.6,3.35,1.49-1.48-.12-1.87.86-3.35.75,0,.59.05,1.29-.74,1.12.58,2.37,1.3,2.37,2.24,4.48,0-1.27-.12-2.6.74-3,1.29-.3,1.57.7,2.24,0,.58-1.33-1.27-.22-1.12-1.12.64-.23,0-1.77.75-1.87,1.26,1.29,2.74,0,3.72,1.49-.19,1.56-1.78,1,0,1.87a1,1,0,0,0-1.12.75c2.08-.26-.23,1.57,1.49,1.49,1.33-.42-.69-2.46.37-2.61.8.58,2.28,2.42,1.49,3.36-.59,0-.29-1-1.12-.75a1,1,0,0,1-.75,1.12c.11,1.38,1.64,1.34,1.12,3.36-1.36-.35-.54,1.49-.75,2.24-.32,1.18-2.31,2.45-.75,2.61,1.17-.44,1.83-1.4,3.35-1.49a2.43,2.43,0,0,0,.37,1.87c-1.14.42-1.88.11-3,1.12.72,1,.23,3.25,1.12,4.1.73.11.74-.5,1.12-.75.75.62,1.73,1,1.86,2.24,1.24-.65,1.65.19,3.35,0-.1.85.09,1.4.75,1.49.09-1.58-1.89-2.44-.37-3.36a3.11,3.11,0,0,0,1.49,1.49,8.45,8.45,0,0,0-.74,2.24c1-.11,1.22.52,1.12,1.49.56.44,1.52.46,1.86,1.12C56.45,141.68,55.92,141.65,55.39,141.62Z"/><path class="cls-2" d="M55,239.75c0-.23.06-.44.37-.37,0-.46-.11-.88-.75-.75C54.71,239.07,54.58,239.7,55,239.75Z"/><path class="cls-2" d="M59.49,164.38c0-.21-.3-.42-.37,0C59.12,164.59,59.42,164.81,59.49,164.38Z"/><path class="cls-2" d="M57.25,192.74c.1.1.57-.18.37-.37S57.06,192.55,57.25,192.74Z"/><path class="cls-2" d="M64.33,168.49c0,.21.3.42.37,0C64.71,168.28,64.4,168.06,64.33,168.49Z"/><path class="cls-2" d="M63.21,181.92c.1.1.57-.18.37-.37S63,181.73,63.21,181.92Z"/><path class="cls-2" d="M44.59,140.88c.29-.08.73,0,.75-.37C45,140.59,44.6,140.51,44.59,140.88Z"/><path class="cls-2" d="M59.12,154.31h-.74v.75h.74Z"/><path class="cls-2" d="M59.12,162.89c-.1-.1-.56.18-.37.37S59.31,163.08,59.12,162.89Z"/><path class="cls-2" d="M46.45,252.44c0-.46-.11-.88-.74-.75.06.44-.06,1.06.37,1.12C46.1,252.59,46.14,252.37,46.45,252.44Z"/><path class="cls-2" d="M44.22,272.22c.1.1.57-.18.37-.37S44,272,44.22,272.22Z"/><path class="cls-2" d="M48.32,245.35c.76.71,2.15.24,3.35.37.31-1.06-.53-1-.37-1.87-2.81-.71-4.7-4.18-7.82-3.36-.83.05.48.94,0,1.87-.71.16-1.6.14-1.49,1.12.9.86,1.81-.38,3-.37.69-.19.47.94.75,1.12s1.48,0,2.24.37C48,244.66,48.21,245.25,48.32,245.35Z"/><path class="cls-2" d="M43.1,183c0-.21-.3-.42-.37,0C42.73,183.25,43,183.46,43.1,183Z"/><path class="cls-2" d="M42.36,116.25c-.12.51-.53.71-.37,1.49C43,118.34,43,116.13,42.36,116.25Z"/><path class="cls-2" d="M53.16,217.74h.74V217h-.74Z"/><path class="cls-2" d="M45.71,257.66c2.51-.72-1.11-1.18,0,0Z"/><path class="cls-2" d="M52.79,196.47c-.1-.1-.57.18-.37.37S53,196.66,52.79,196.47Z"/><path class="cls-2" d="M54.27,196.1c.29-.08.73,0,.74-.37C54.73,195.81,54.28,195.74,54.27,196.1Z"/><path class="cls-2" d="M50.92,158c0-.46-.11-.88-.75-.75-.5.7.47.95.75,1.49.37.74.14,2.3,1.86,1.87C53.31,158.63,51.53,158.93,50.92,158Z"/><path class="cls-2" d="M52,231.55c.1.1.57-.18.37-.37S51.85,231.35,52,231.55Z"/><path class="cls-2" d="M64.33,158.41c.33,1.32-1,1.92.37,2.24C65.39,160.39,64.6,157.61,64.33,158.41Z"/><path class="cls-2" d="M80,67.74c.29-.08.73,0,.74-.37C80.43,67.45,80,67.38,80,67.74Z"/><path class="cls-2" d="M80,93.49c-.44.06-1.06-.06-1.12.37C79.29,93.8,79.91,93.93,80,93.49Z"/><path class="cls-2" d="M82.21,97.22c-.1-.1-.57.18-.37.37S82.4,97.41,82.21,97.22Z"/><path class="cls-2" d="M75.13,157.29c-.29.08-.73,0-.74.37C74.68,157.58,75.12,157.66,75.13,157.29Z"/><path class="cls-2" d="M77.74,127.44c.78-.74,0-1.6-.74-1.87C76.94,126.5,76.92,127.39,77.74,127.44Z"/><path class="cls-2" d="M85.56,76c-.1-.1-.56.18-.37.37S85.75,76.15,85.56,76Z"/><path class="cls-2" d="M87,126.32a8.82,8.82,0,0,0-3.72,2.24c2-.42,2.56.66,3,1.86.66-.77-.4-2.07-.74-3C86.12,127.34,88.25,127,87,126.32Z"/><path class="cls-2" d="M74.39,174.46c0,.21.3.42.37,0C74.76,174.25,74.46,174,74.39,174.46Z"/><path class="cls-2" d="M81.84,99.09c.58-.92-1.27-1.1-1.12-.37.23,0,.44.06.37.37Z"/><path class="cls-2" d="M81.09,74.46c0,.37-.3.44-.37.75C81.32,76.22,82,74.66,81.09,74.46Z"/><path class="cls-2" d="M80.72,83c0,.21.3.42.37,0C81.09,82.83,80.79,82.62,80.72,83Z"/><path class="cls-2" d="M72.52,153.94c.1.1.56-.18.37-.37S72.33,153.74,72.52,153.94Z"/><path class="cls-2" d="M69.54,182.29v-1.12H68.43c-.07,1.18-1.47,1-2.61,1.12v1.12c.73.11.74-.5,1.12-.75.74,0,.47,1,1.49.75C68,182.25,68,182.22,69.54,182.29Z"/><path class="cls-2" d="M66.19,185.65a1.75,1.75,0,0,1,1.12.37,1.2,1.2,0,0,0-.37-1.87C67.21,185.18,66.2,184.91,66.19,185.65Z"/><path class="cls-2" d="M69.54,164c0,.23-.06.44-.37.37v.75C70.09,165.71,70.27,163.86,69.54,164Z"/><path class="cls-2" d="M65.45,161.77c-.11.23-.93,1.44,0,1.49C65.56,163,66.37,161.83,65.45,161.77Z"/><path class="cls-2" d="M71.41,175.2c.1.1.56-.18.37-.37S71.21,175,71.41,175.2Z"/><path class="cls-2" d="M70.66,155.43c-.15-.9.68-.81.37-1.87-1.53.16-1.95-.79-2.61-1.49,0,.59,0,1.29-.75,1.12,1-1-.44-.81-.37-1.87.74-.9.59-.37,1.86-.75.18-1.17-1-1-1.12-1.87s1-.47.75-1.49c-1.17-.07-.48-2-1.86-1.86-.06.44.06,1.06-.37,1.12a1.76,1.76,0,0,0-1.12.37c-1-.44,1.29-2.79-.37-2.61,0,.46-.11.88-.74.75.79,2.42-.45,4.67-1.49,6.34.23.52,1.44.06,1.49.75v1.12c-1.6-.12-1.74,1.25-2.61,1.87,1-.27-.27,1.76.74,1.49.51-.31,1.41.43,2.61.37.34,0,.75-.6,1.49-.75.49-.1,1.43.24,1.86,0,.68-.38.16-1.61,1.12-1.49C69.5,155.35,69.91,155.55,70.66,155.43Z"/><path class="cls-2" d="M72.9,152.82c-.1-.1-.56.18-.37.37S73.09,153,72.9,152.82Z"/><path class="cls-2" d="M72.15,156.92c-.85-.1-1.4.09-1.49.75C71.32,157.58,72.53,158,72.15,156.92Z"/><path class="cls-2" d="M75.5,155.43c-1.25-1.13-1.13,1.38,0,0Z"/><path class="cls-2" d="M71,149.83c2.11.37,2-1.47,3-2.24C72.06,147.38,72.31,149.36,71,149.83Z"/><path class="cls-2" d="M40.5,205.43c.1.1.56-.18.37-.37S40.3,205.23,40.5,205.43Z"/><path class="cls-2" d="M54.65,98.34c0,.48-.48.52-.37,1.12H55C55.44,98.92,55.42,98.55,54.65,98.34Z"/><path class="cls-2" d="M64.7,115.5c0,.21.3.42.37,0C65.08,115.3,64.77,115.08,64.7,115.5Z"/><path class="cls-2" d="M65.08,110.65c-.1-.1-.56.18-.37.37S65.27,110.85,65.08,110.65Z"/><path class="cls-2" d="M62.47,114.38c-.06,1.19-.84,1.64-.74,3,1.11,0,1.27-1,2.24-1.12,0-.93-.7-1.15,0-1.87Z"/><path class="cls-2" d="M56.14,109.91c-.29.08-.73,0-.75.37C55.68,110.2,56.13,110.27,56.14,109.91Z"/><path class="cls-2" d="M61.72,110.28c.63.27,1.71,2,2.61.75-1,.16-.35-1.39-1.12-1.49C63.48,110.55,61.46,109.27,61.72,110.28Z"/><path class="cls-2" d="M37.89,113.26c-.71-.08-.82.42-1.49.37C36.24,115.2,37.51,113.47,37.89,113.26Z"/><path class="cls-2" d="M36.77,106.55c.42,0,.58.54.75,0A.38.38,0,0,0,36.77,106.55Z"/><path class="cls-2" d="M46.45,174.83c.71.16.94.8,1.86.75-.4-1.39.92-1.06.74-2.24H46.83A2.1,2.1,0,0,1,46.45,174.83Z"/><path class="cls-2" d="M41.61,103.94c0-.21-.3-.42-.37,0C41.24,104.14,41.54,104.36,41.61,103.94Z"/><path class="cls-2" d="M54.65,105.8c.08.45.41.23.75,0A.38.38,0,0,0,54.65,105.8Z"/><path class="cls-2" d="M69.17,141.62c-1.07-.07-2,0-1.86,1.12C68.18,142.62,68.92,142.36,69.17,141.62Z"/><path class="cls-2" d="M64.7,129.31c.1.1.56-.18.37-.37S64.51,129.12,64.7,129.31Z"/><path class="cls-2" d="M65.82,113.26v1.12C66.91,114.93,66.91,112.72,65.82,113.26Z"/><path class="cls-2" d="M68.05,125.58c-.29.08-.73,0-.74.37C67.6,125.87,68,125.94,68.05,125.58Z"/><path class="cls-2" d="M66.19,144.23c.06.44-.06,1.06.37,1.12,0-.23.05-.44.37-.37C66.9,144.53,66.83,144.1,66.19,144.23Z"/><path class="cls-2" d="M59.86,144.61c1.46.36,2.58-1.51,1.12-1.86C60.68,143.43,60.5,144.25,59.86,144.61Z"/><path class="cls-2" d="M69.92,112.89a.38.38,0,0,0-.74,0C69.59,112.85,69.75,113.43,69.92,112.89Z"/><path class="cls-2" d="M68.43,144.61c.1.1.57-.18.37-.37S68.24,144.41,68.43,144.61Z"/><path class="cls-2" d="M66.57,107.67c-.29,1.35-1,1.22-1.12,2.24-.05.4,1.14,1.39.37,2.24,1-.21,1.31-1.18,2.61-1.12,0,.46.11.88.75.75,1.09-1.2-1.18-1.3-1.86-1.87-.08-.71.42-.82.37-1.49C67,108.53,66.94,107.91,66.57,107.67Z"/><path class="cls-2" d="M68.05,91.25c-.1-.1-.56.18-.37.37S68.25,91.44,68.05,91.25Z"/><path class="cls-2" d="M36,115.5c-.1-.1-.56.18-.37.37S36.22,115.7,36,115.5Z"/><path class="cls-2" d="M37.89,107.67c-.1-.1-.56.18-.37.37S38.08,107.86,37.89,107.67Z"/><path class="cls-2" d="M51.29,137.14c-.1-.1-.56.18-.37.37S51.49,137.34,51.29,137.14Z"/><path class="cls-2" d="M41.61,216.25c.11-1-.13-1.6-1.12-1.49C40.39,215.73,40.63,216.36,41.61,216.25Z"/><path class="cls-2" d="M52.79,153.56a.38.38,0,0,0-.75,0C52.12,154,52.45,153.79,52.79,153.56Z"/><path class="cls-2" d="M37.52,271.47c-1,.27-.75-.74-1.49-.75-.45,1.34-1.21,2.39,0,3C35.73,272.17,37.81,273,37.52,271.47Z"/><path class="cls-2" d="M47.2,200.2h-.75c0,.37-.3.44-.37.75C46.67,200.91,47.37,201,47.2,200.2Z"/><path class="cls-2" d="M49.81,146.47c-.1-.1-.57.18-.37.37S50,146.67,49.81,146.47Z"/><path class="cls-2" d="M48.32,148.71c0-.21-.3-.42-.37,0C47.94,148.92,48.25,149.13,48.32,148.71Z"/><path class="cls-2" d="M48.32,208.41h-.75v.75h.75Z"/><path class="cls-2" d="M46.83,186c0,.21.3.42.37,0C47.2,185.82,46.9,185.6,46.83,186Z"/><path class="cls-2" d="M46.08,149.46h.74v-.75h-.74Z"/><path class="cls-2" d="M47.57,203.56c-.1-.1-.57.18-.37.37S47.76,203.76,47.57,203.56Z"/><path class="cls-2" d="M35.65,206.17c.1.1.56-.18.37-.37S35.46,206,35.65,206.17Z"/><path class="cls-2" d="M40.87,187.52c.1.1.56-.18.37-.37S40.67,187.32,40.87,187.52Z"/><path class="cls-2" d="M39.38,177.82c.06.44-.06,1.06.37,1.12,0-.23.06-.44.37-.37C40.08,178.11,40,177.68,39.38,177.82Z"/><path class="cls-2" d="M40.87,179.68c-.1-.1-.56.18-.37.37S41.06,179.87,40.87,179.68Z"/><path class="cls-2" d="M39.75,180.8v-.75c-.37,0-.44-.3-.75-.37,0,.62-1,.21-1.12.75A2.41,2.41,0,0,0,39.75,180.8Z"/><path class="cls-2" d="M40.5,231.55c.17-1.17-.8-1.19-1.86-1.12C38.21,231.94,39.78,232.27,40.5,231.55Z"/><path class="cls-2" d="M39.75,131.18c.06-.44.59-.41,1.12-.37.58-.54.33-1.91.37-3-1.24-1-4.22-1.79-4.84.37a5.12,5.12,0,0,0,1.12,1.87C38.09,130.48,39.7,129.89,39.75,131.18Z"/><path class="cls-2" d="M36.4,184.91c-.1-.1-.56.18-.37.37S36.59,185.1,36.4,184.91Z"/><path class="cls-2" d="M35.28,225.2c.1.1.56-.18.37-.37S35.09,225,35.28,225.2Z"/><path class="cls-2" d="M40.5,195.73c-.09.23.56.8.74.75C42.22,196.17,41,194.38,40.5,195.73Z"/><path class="cls-2" d="M96.73,115.13v.75c.92.58,1.1-1.27.37-1.12C97.08,115,97,115.2,96.73,115.13Z"/><path class="cls-2" d="M105.3,132.29c-.1-.1-.57.18-.37.37S105.49,132.49,105.3,132.29Z"/><path class="cls-2" d="M146.64,58.42c.1.1.57-.18.37-.37S146.45,58.22,146.64,58.42Z"/><path class="cls-2" d="M146.64,100.58h1.12c0-.67-.37-.87-1.12-.75Z"/><path class="cls-2" d="M144.41,113.64h-1.12v1.12C144.29,115,144,114,144.41,113.64Z"/><path class="cls-2" d="M141.05,57.67c-.1-.1-.56.18-.37.37S141.25,57.86,141.05,57.67Z"/><path class="cls-2" d="M139.57,65.13c1-.13,1.26-1,1.49-1.87a1.74,1.74,0,0,1-1.12-.37C139.67,63.65,138.77,64.37,139.57,65.13Z"/><path class="cls-2" d="M138.82,51.7a1.77,1.77,0,0,1,.37-1.12h-1.12A1,1,0,0,0,138.82,51.7Z"/><path class="cls-2" d="M147,139.38c-.07.81.3,1.19,1.12,1.12Q148.23,139.28,147,139.38Z"/><path class="cls-2" d="M147.76,144.23c0,.21.3.42.37,0C148.13,144,147.83,143.81,147.76,144.23Z"/><path class="cls-2" d="M147,145c.95-1.14-.51-2.25-1.12-3,.91,0,.08-1.23-.37-1.12-.64.23,0,1.77-.75,1.87-.29.08-.73,0-.75.37h2.23C146.21,144,146.2,144.93,147,145Z"/><path class="cls-2" d="M145.15,56.92c0,.21.3.42.37,0C145.52,56.72,145.22,56.5,145.15,56.92Z"/><path class="cls-2" d="M145.9,15.88c-.1-.1-.56.18-.37.37S146.09,16.07,145.9,15.88Z"/><path class="cls-2" d="M129.88,26c0-.21-.3-.42-.37,0C129.51,26.16,129.81,26.38,129.88,26Z"/><path class="cls-2" d="M134,26c-.1-.1-.57.18-.37.37S134.17,26.15,134,26Z"/><path class="cls-2" d="M136.58,23c0,.21.3.42.37,0C137,22.76,136.66,22.54,136.58,23Z"/><path class="cls-2" d="M128.39,42a.38.38,0,0,0,.75,0C128.72,42,128.56,41.46,128.39,42Z"/><path class="cls-2" d="M149.25,145.35c.1.1.57-.18.37-.37S149.05,145.16,149.25,145.35Z"/><path class="cls-2" d="M132.49,99.83c0,.21.3.42.37,0C132.86,99.63,132.56,99.41,132.49,99.83Z"/><path class="cls-2" d="M129.14,112.15c.3,1.29-.55,1.43-.37,2.61C130.17,115.25,131.27,111.76,129.14,112.15Z"/><path class="cls-2" d="M135.1,114.38v1.12C136.18,116.05,136.18,113.84,135.1,114.38Z"/><path class="cls-2" d="M134.72,53.94c0,.21.3.42.37,0C135.1,53.73,134.79,53.51,134.72,53.94Z"/><path class="cls-2" d="M133.6,105.8c-.29.08-.73,0-.74.37C133.15,106.09,133.59,106.16,133.6,105.8Z"/><path class="cls-2" d="M136.21,103.19c-.29.08-.73,0-.74.37C135.76,103.48,136.2,103.55,136.21,103.19Z"/><path class="cls-2" d="M153,149.46c-.93-.06-1.15.59-1.86.75a2.33,2.33,0,0,1,0,1.87C152.61,152.08,153,151,153,149.46Z"/><path class="cls-2" d="M158.93,99.46c-.29.08-.73,0-.74.37C158.48,99.75,158.92,99.82,158.93,99.46Z"/><path class="cls-2" d="M158.93,128.94c-.1-.1-.56.18-.37.37S159.12,129.13,158.93,128.94Z"/><path class="cls-2" d="M160.79,101.7c-.1-.1-.57.18-.37.37S161,101.89,160.79,101.7Z"/><path class="cls-2" d="M156.32,69.24h-.74V70h.74Z"/><path class="cls-2" d="M157.44,70.36c.1.1.57-.18.37-.37S157.25,70.16,157.44,70.36Z"/><path class="cls-2" d="M156.7,137.89c-.29.08-.73,0-.74.37C156.24,138.18,156.69,138.25,156.7,137.89Z"/><path class="cls-2" d="M152.46,186.49c-.7-.06-1.4-.39-1.34-.84,1.05-.31,1,.53,1.86.37a3.18,3.18,0,0,0-.37-2.24c-1.39-.4-.59,1.4-1.86,1.12a3.17,3.17,0,0,1-.37-2.24q-1.92.43-1.49-1.49c-1.53-.34-3.56.6-4.1.37-.24-.1-1.32-.94-1.12-1.86-.69-.36-1.24,1.12-1.49,0-.4-1.39.92-1.06.74-2.24-1-.67-.72,1.64-1.12.37.26-1.6,2.15-1.58,4.1-1.49-.2.76.54.83.74,1.49.14.47-.83,1.38.37,1.12.91-1.37,1.75-1.83,1.86-3.73,0-.74-1-.47-.74-1.49s.75-2,1.12-3a1,1,0,0,1-1.12-.75c.5-.12.71-.53,1.49-.37-.26,1.25.76,1.22,1.12,1.86.08-2.12,2.32.14,2.61-1.49-.23-.64-1.77,0-1.86-.75,1.5-.84,1.37-3.65,3.72-2.61-.61-1.74.08-.71,1.49-.75a22.72,22.72,0,0,1,0-5.22c-1.19.27-.65-1.28-1.12-1.87-.27-.34-.86-.35-1.12-.75s0-.95-.37-1.12c-1.14-.27-1.09.64-2.24.37-.21-1.52-1-1.44-1.86-2.24-.12-.12.12-.62,0-.75s-.62.12-.75,0,0-1-.74-.75c-1.92,1.21.57,3.37,1.49,4.1.08.66-.37,1.87.75,1.49,1.47-.12-.28-1.15.74-1.49,2.07-.21,1.28,2.45,2.61,3-.32.54-.56,1.18-1.49,1.12-1.14-1.46-4.29-.93-4.47-3.36.19-.55.55-.94.74-1.49-.54-.21-1.92.43-1.86-.37s.59-1.4.37-2.61c-1.7-.29-1.62-2.36-3-3,.43-.06.4-.59.37-1.12-1.3-.43-1.6-1.88-2.61-2.61a1.82,1.82,0,0,1-1.86-.75c.13-1.74,1.52-2.21,3-2.61-.62-.38-.4-1.59-.74-2.24,1.26,0,1.59.67,2.23-.37-1,0-1.3-.69-1.86-1.12.77-.93-.28-1.1-1.12-1.87-.52-.47-.74-1.47-1.49-1.12-.74.7-.59,1.35-1.86.75,1.11,2.24-1,.83-1.86,1.49a6.13,6.13,0,0,0,.75,2.61c-.53.15-.63.45-1.12,0,0,1.17-1.58,1.6-2.23,1.87-.18.07-.9.79-1.12,0,.09-.66.64-.85,1.49-.75.12-1.24.05-2.29-.75-2.61.85-.89-.82-1.37-.37-3a6.94,6.94,0,0,0-3,.37V136.4c.23.11,1.43.93,1.49,0-2.3-2.08,1.48-3.8.74-6.72.5-.12.71-.53,1.49-.37.21-.66-.45-2.19.37-2.24,1.88-.23,5,.74,5.21-1.12.57.09,1.33,1.84.37,2.24-.66.22-1.55-1.09-1.86,0,.29.08.73,0,.74.37,0,1.05-1.4,1.58-.37,2.61-1.2-.46-.28,1.21-1.49.75a1.83,1.83,0,0,1-.75-1.87,2.08,2.08,0,0,1-1.49-.37c0,1.52,1.47,1.52,1.49,3,.29.08.74,0,.75.37,1.88-.61,3.5-1.46,3-4.48h1.86c-.55-1.92.89-1.85,1.12-3-.1-.77-1.65-.09-1.49-1.12-.86-2-3.47-2.24-4.1-4.48-1.27-.71-3.37-.61-3.73-2.24.85.1,1.4-.09,1.49-.75-.29-.08-.43-.31-.37-.75-1.48.23-2.68,1.79-4.1,2.24-.3.1-.84-.15-1.12,0-.78.43-1.48,1.65-2.24,1.87.21,1.21-.25,1.74-.37,2.61,1,.13,1.34.9,1.12,2.24-.82.55-2.77,0-3,1.12,2.64,1.39,1.2,5-1.12,6-.53,2.16,1.42,3.78.37,5.22a2.42,2.42,0,0,0-1.86-.37c.26,1-.77.72-1.12,1.12,1,1.91.52,4.1,0,6.34,1.94-.39,3.53-2,4.84-.37,0,.74-1,.47-.75,1.49,1.35-.08,2.45.11,3.35,0,.54-.06.62-.65,1.12-.75-.09,0,1.1.83,1.12,0-.58-.1-.26-.82,0-1.12-.56-.06-1.37.13-1.49-.37a1,1,0,0,1,.74-1.12c2.94.19,1.33,2.62,3.72,3.36-3,.53-6.5-.23-8.57,1.87,1.14.69-.43,1.77,0,3-.87.12-1.4.59-2.61.37.44,1.93-1,1.94-2.24,2.24a2.44,2.44,0,0,1-.37-1.87c-1.39-.8-1.12.72-3,.37-.55,1.33,1.2,2.23.37,2.61-.61,0-.21-1-.74-1.12-.41.9.18,1.76-1.49,1.12.62,2.29-1.33,2.75-2.23,1.49.25,1.44,0,1.33.37,2.24.64.15,1-.55,1.12,0,.16,2.47.62,4.39,0,6.72.56.06,1.38-.13,1.49.37-.38,2.11-1,.91-2.61.75-1.4.87-5.65.78-6-.37-.54-1.41,1-.72.75-1.87-1.06-.62-1.65.07-3.73,0-1.1-1.07-3.59-.79-5.21-.37.12-.88.59-1.4.37-2.61-.7-.08-.82.42-1.49.37,0-1.23-.63-1.86-.37-3.36H96.36c0,.93.71,1.17-.37,1.49-.74-1.21-.66-4.24,1.49-3.73-.21.76.11,2.8.75,1.49-1.37-.14.41-1.67.37-1.12.05-.79-.87-.92-.74-2.24-1.76-.38-3.2,1.24-3-1.12,1.47.2,2.43,1,4.1,0,.31-2.22-1.59-1.4-2.24-1.86-.4-.65.7-.63.75-.75.35-.82-.24-2.16.37-3-.44-.06-1.06.06-1.12-.37,1.19-.25.25-1.69.75-1.87.71.16.67,1.07,1.86.75-.05-1.32-1.67-1.06-2.61-1.49-.74.38-.59,1.65-1.86,1.49-.42-2.15-.85-.6-1.49-1.87.56-1.21.17-4,.37-4.48.77.6.72,2,2.23,1.87-.37-1.5-2.17-1.55-1.86-3.73.41-.14,1.42-1.49.37-1.87-.13,1.72-.94.69-1.49.37A9.82,9.82,0,0,1,90,133v-.75c-1.83.09-2.82-.66-4.84-.37a1.86,1.86,0,0,0-.37-2.61c-.06.43-.59.41-1.12.37-.11.73.5.74.75,1.12-.52,1.44-2.88,3-4.1,1.49-.31,1.05.53,1,.37,1.86-1.63,0-.75,1.43-1.12,2.61-.07.24-1,.5-1.12.75-.24.47.27,1.44-.37,1.49-.21-1.34-.67.29-1.12.37.08,0-1.1-.83-1.12,0,1.16.08.63,1.86.75,3,.85.51,1.4-1,1.49,0-.72,1.37.39,1.67.75,2.61s.08,2.14.37,3.36c.78.38,1.87-.32,1.86,1.49,2.13.75,3.24-1.46,4.1-.75-.52.48-.23,1.76-.74,2.24,1.32-.58.22,1.27,1.12,1.12,1-1,1.92,1.29,2.23,2.24,1.49-.87,1.22,1.26,3.35.75.71,1.43-.23,2.84-1.12,3.73a3.17,3.17,0,0,1-.37-2.24c-1.71-.47-1.8.68-2.61,1.12-1.74-.13-3.06.17-3.72,1.12-1.07-.95-.65-.39-1.86,0q.1-1.22-1.12-1.12c-.73.26-1,1-1.12,1.86,1.58.22,2.46-.27,3.72-.37.65,1.09,1.1,2.38,2.23,3,.36-.69-1.12-1.25,0-1.49.47,1,1.5,1.49,2.24,2.24,0,.95-1.39.88-1.86.37.56,1.68,2.82,1.65,3,3.73-1.22-.61-1.83-.32-2.24.75,0-.59.05-1.29-.74-1.12,0,2.64-.6-.07-1.86,1.49.44.93,2.36.37,2.61,1.49-2-.09.09,2.83-1.49,3.73,1.51-.15,2.59.14,2.61,1.49-.73.11-.74-.5-1.12-.75-.2,1.44.67,1.82.37,3.36.87.5,2.1.63,3,1.12-1.47.4-3.56,1.77-4.1,0,0,1.06-1.64,1.67-1.86.37.5-.37,1.39-.35,1.49-1.12-.16-1.33-2.15-.83-3-1.49,1.17.05,1.28-1,1.49-1.86-1.75-.63-2.94-.15-4.84.37-.1-1.09,1.49-1.39,0-1.87-.13,1.85-1-.31-1.86,0,.91,1.19-.83.76-1.12,1.12-.57.73,0,1.43-1.12,1.87-.4.15-1.08-.14-1.12.37,1,0,1,2.27,0,2.24.6-1.33-.65-1.78-.75-2.24s.77-.87,0-1.12c-.85.14-.5,1.49-1.12,1.87-1.39.4-.59-1.4-1.86-1.12a2.33,2.33,0,0,1,0,1.86c.56.06,1.38-.13,1.49.37,0,1-.62.75,0,1.49-.23-.11-1.43-.93-1.49,0a2.64,2.64,0,0,0,1.86,2.24c.23-1,2.75-1.7,3.72-.75-.49,0-.34.65-.74.75-.6-1.09-.92-.41-2.24-.37-.43,1.44-1.89,1.84-3.35,2.24.24,2.3,1.25,1.81.74,4.1.44.06,1.06-.06,1.12.37-1.16.49-1.06-.1-2.61,0,.16-.71,1.06-.68.75-1.87-.91-1-2.67.77-3.73-.37-.46,1.7,2.52,0,2.61,1.12-1,0-1,.82-1.12,1.86-1.2-.08-1.58.66-3,.37-.33,1.74,1-.51,1.12.75-1,.48-.72,1.23-.37,2.24-2.16-.67-1.46,1.52-2.61,1.86-.14-1.23-2-.75-1.86-2.24-.94-.17-2.69.74-1.86,1.12-.17-.61,2-.61,1.86,0-1,.58-1,2.11-2.61,1.12,1.08,2.69-1.47,4.32-1.86,6.72,2,.49.9-2.08,2.23-2.24.51,1.51-.81,1.18-.75,2.24.53,1.51.87,1.27,2.23,1.49,1-1.8-.19-3.17-1.12-4.1,1.71,0,1.42-2.06,3.35-1.86.2.54-.44,1.93.37,1.86,1.05-.42.72-1.64.37-2.61a3.16,3.16,0,0,1,2.24-.37c0,1.49.76,3.44,2.24,2.24-.08.71.42.82.37,1.49-1.55,0-1.84,1.29-3.35.37-1.28.83.09,4.32-3,3.36.65,1.55-1.64,2.05-.37,3,.09-.66.64-.85,1.49-.75.17-1.57,2.1-1.38,2.61-2.61-.28,1.15,1,.72.74,1.87-.49.38-1.37.37-1.86.75.64,1.11-.12,1.89.37,2.61-1.07.67-3,.52-4.1,1.12-.66-.33-.95-1-2.24-.75-.57,1.14.74,3.1,1.49,4.1,0-1,1-1,1.49-1.49-.56-.05-.06-.67.37-.75,0,0,0,.64,0,.73.17-.15,2.46-1.25,2.6-.36-.59,1-.28,1.3.37.37a1.82,1.82,0,0,0,.74,1.86c.68-.89,2.91-.2,3.35.37-1,1.18-2.32.5-4.47.37a2.63,2.63,0,0,1-.75,1.12C61,214,60,216.36,58.37,217c-.12,2.36.6,3.87,2.23,4.48.85-1.12.16-3.2,0-4.48,1.56,0,1.78-1.61,3-1.87.54-.12,1,1.13,1.49,0-.57-.09-.05-.61.37-.75-.06,1.67,1.31,1,1.86.37.81.31.83,1.41,1.86,1.49,1.2.46.28-1.21,1.49-.75.43.69-.44,2.31,1.12,2.61,0-1.26-.67-1.59.37-2.24,1.16,1.2,3.11,1.61,4.1,3,.28,1.15-1,.72-.75,1.86,1.45-.52,2.38-1.24,3.35,0a1.43,1.43,0,0,0-.37-2.24c1.12-1.68-1.36-3.59,0-5.6-.71.18-2.18,1.5-2.61.75,2.5-.57-1.28-3.16.75-4.48.58,1.23.33,1.86.74,2.61.52-.47.16-1.83,1.12-1.87a9,9,0,0,1,1.12,3.73c1.17.43.9-.59,1.49-.75a3.44,3.44,0,0,0,3.35-1.12c1.22.39,2.26,1,2.23,2.61-.37,0-.44.3-.75.37-.35-1.61-4.06-1.49-4.47,0,.61-.27.61,1.76,0,1.49-1.5.26-.92-1.57-2.23-1.49A7.31,7.31,0,0,0,80.72,220c-.44.06-1.06-.06-1.12.37.83.79,2.12,1.11,2.24,2.61.64.15,1-.55,1.12,0,.35,1.27,2,1.45,1.12,3,.44.06,1.06-.06,1.12.37-.52.23-.06,1.44-.74,1.49-.61-.17-1.16-2.27-1.86-1.12.65.34.82,1.17.74,2.24-1.32-.33-.92,0-2.24-.37-.06.56.13,1.38-.37,1.49,0-.49-.65-.34-.74-.75,1.21-.93-1-3,.74-3.36a1.64,1.64,0,0,0,1.49.75c-1.09-1.89-.9-5.07-3.73-5.22,0,1.23.63,1.86.37,3.36-.53.09-.63.61-1.12.75,0-.93.71-1.17-.37-1.49.21,2.17-1.14,3.6-.37,5.22-.39.27-2.84.33-1.86.75h1.12c0,2.31,1.82,1.07,3,.75-.28,1.9,2.21,1,2.61,2.24-2.48-.43-4.83-1.71-5.21,1.49.91.5.58,1.31,1.12,1.87-.21-.22,2-.35,1.12,1.12,1.17-.07,1-1.48,2.61-1.12.58.54.33,1.91.37,3,1.14,1,4.73.26,4.84,1.49a2.32,2.32,0,0,0,0,1.87c-.54-.42-.91-.4-1.12.37,1.07-.07.93,1.18,1.73,1.44l3.16-3.05a4.84,4.84,0,0,1-.42-2.12c1.17,1.21.28-1,1.12-1.12a1.75,1.75,0,0,0,1.12-.37c.06.56-.13,1.37.37,1.49h0c1-1.08-1.08-1.4-.75-3h1.86c-.21,1.86.45.52,1.26.66,19.72-19.29,39.21-39.18,53-47.5C149.49,188.58,151,187.55,152.46,186.49Z"/><path class="cls-2" d="M159.3,149.83c0,.21.3.42.37,0C159.68,149.62,159.37,149.41,159.3,149.83Z"/><path class="cls-2" d="M161.54,118.12c-.92-.06-1.81-.07-1.86.75.71.16.67,1.07,1.86.75Z"/><path class="cls-2" d="M158.93,97.22c.08.45.41.23.74,0A.38.38,0,0,0,158.93,97.22Z"/><path class="cls-2" d="M160.79,129.68c.42,0,.58.54.74,0A.38.38,0,0,0,160.79,129.68Z"/><path class="cls-2" d="M155.58,48.34v.75h1.12C156.74,48.42,156.33,48.21,155.58,48.34Z"/><path class="cls-2" d="M130.63,63.27c0-.21-.3-.42-.37,0C130.25,63.47,130.55,63.69,130.63,63.27Z"/><path class="cls-2" d="M151.11,147.22c-.1-.1-.56.18-.37.37S151.3,147.41,151.11,147.22Z"/><path class="cls-2" d="M150.74,114c.29-.08.73,0,.74-.37C151.19,113.72,150.75,113.65,150.74,114Z"/><path class="cls-2" d="M150.37,13.27c0-.35.33-.45.65-.53l-1.19.22A.79.79,0,0,0,150.37,13.27Z"/><path class="cls-2" d="M153.72,156.55c.1-.85-.09-1.4-.74-1.49A.88.88,0,0,0,153.72,156.55Z"/><path class="cls-2" d="M150.74,55.43c.29-.08.73,0,.74-.37C151.19,55.14,150.75,55.07,150.74,55.43Z"/><path class="cls-2" d="M153,68.12c0,.21.3.42.37,0C153.35,67.91,153,67.69,153,68.12Z"/><path class="cls-2" d="M151.85,69.61c-.08-.71.42-.82.37-1.49-1.14.31-1.9,0-2.24.37C150.87,68.6,150.69,69.79,151.85,69.61Z"/><path class="cls-2" d="M150,139.38c-1-.1-1.6.14-1.49,1.12C149.21,140.34,150.11,140.37,150,139.38Z"/><path class="cls-2" d="M151.85,136c.29-.08.74,0,.75-.37C152.31,135.74,151.87,135.66,151.85,136Z"/><path class="cls-2" d="M104.55,162.89c.8,0,2.56-.87,1.49-1.49C106.23,162.58,104.2,161.54,104.55,162.89Z"/><path class="cls-2" d="M96.73,142.74c.1.1.57-.18.37-.37S96.54,142.55,96.73,142.74Z"/><path class="cls-2" d="M103.44,109.53H101.2v2.24h2.23Z"/><path class="cls-2" d="M97.11,130.43c-1.1.81,1,2.63-.75,3-.76-.48-.68-1.81-2.24-1.49-.15.64.55,1,0,1.12-1.44-.8-2.64-3.82-4.47-3,.8,1.44,2.51,2,3,3.73,1.87-.12,4.4.43,5.21-.75C97,132,98.53,130.89,97.11,130.43Z"/><path class="cls-2" d="M101.95,159.53c0,.23-.05.44-.37.37v.75C102.49,161.23,102.67,159.38,101.95,159.53Z"/><path class="cls-2" d="M99,128.94v-.75h-.74v.75Z"/><path class="cls-2" d="M103.44,74.83c-.1-.1-.56.18-.37.37S103.63,75,103.44,74.83Z"/><path class="cls-2" d="M99.34,150.2h1.49A.8.8,0,1,0,99.34,150.2Z"/><path class="cls-2" d="M99.34,120.73c-.9,1.25,1.25-.9,0,0Z"/><path class="cls-2" d="M101.2,161.77c-.29.08-.73,0-.74.37C100.75,162.06,101.19,162.13,101.2,161.77Z"/><path class="cls-2" d="M101.57,114H99.34a3.18,3.18,0,0,0,.37,2.24h1.86C102.27,115.59,101.27,115.3,101.57,114Z"/><path class="cls-2" d="M100.08,96.1c-.1-.1-.57.18-.37.37S100.28,96.29,100.08,96.1Z"/><path class="cls-2" d="M95.24,130.43v.75h1.12C96.41,130.51,96,130.3,95.24,130.43Z"/><path class="cls-2" d="M106.42,95.73c.42,0,.58.54.74,0A.38.38,0,0,0,106.42,95.73Z"/><path class="cls-2" d="M97.48,129.31c-.77-.1-.74-1-1.12-1.49a2.66,2.66,0,0,0-2.61,1.87C95,128.63,96.53,131.35,97.48,129.31Z"/><path class="cls-2" d="M90.4,127.82c-.08-.71.42-.82.37-1.49-.85-.18-1.9-.74-2.61,0C88.22,127.52,89,128,90.4,127.82Z"/><path class="cls-2" d="M96.36,119.61c.84.15-.2,2.19,1.49,1.49C98.13,120,97.06,118.46,96.36,119.61Z"/><path class="cls-2" d="M96,114.38c-.29.08-.73,0-.74.37C95.53,114.67,96,114.75,96,114.38Z"/><path class="cls-2" d="M97.11,50.21h.75v-.75h-.75Z"/><path class="cls-2" d="M88.54,60.28c-.09.53-.61.63-.74,1.12C88.56,61.73,89.47,60.43,88.54,60.28Z"/><path class="cls-2" d="M91.15,127.07a5.3,5.3,0,0,0,2.61,1.12C93.72,127.2,91.75,126.25,91.15,127.07Z"/><path class="cls-2" d="M94.5,122.22c1,.11,1.22-.52,1.12-1.49a2.09,2.09,0,0,0-1.49.37A1.77,1.77,0,0,0,94.5,122.22Z"/><path class="cls-2" d="M92.26,101.7c-.1-.1-.57.18-.37.37S92.46,101.89,92.26,101.7Z"/><path class="cls-2" d="M57.63,169.61v.75c.38,0,.45.3.75.37C58.34,170.14,58.42,169.43,57.63,169.61Z"/><path class="cls-2" d="M117.22,109.16c-.11.23-.93,1.44,0,1.49C117.33,110.42,118.14,109.22,117.22,109.16Z"/><path class="cls-2" d="M117.22,138.64c.1.1.56-.18.37-.37S117,138.44,117.22,138.64Z"/><path class="cls-2" d="M113.87,134.91c.1.1.56-.18.37-.37S113.67,134.71,113.87,134.91Z"/><path class="cls-2" d="M115,143.11v-.75h-.74v.75Z"/><path class="cls-2" d="M115.73,142.74c0,1.33-1.39,1.35-1.49,2.61A1.58,1.58,0,0,0,115.73,142.74Z"/><path class="cls-2" d="M121.69,129.68c.2-1.32-1.32-.92-1.12-2.24.29-.09.74,0,.75-.37-1.64-.26-2.93,1.77-1.86,3C119.77,128.72,120.37,130,121.69,129.68Z"/><path class="cls-2" d="M125,123.71c.57-.67,1.34-1.14,1.12-2.61C123.93,120.53,123.33,123.33,125,123.71Z"/><path class="cls-2" d="M122.43,74.46h1.12V73.34h-.75C122.78,73.82,122.33,73.86,122.43,74.46Z"/><path class="cls-2" d="M112,159.53c-1.25-1.13-1.13,1.38,0,0Z"/><path class="cls-2" d="M120.94,149.09v-.75h-.75v.75Z"/><path class="cls-2" d="M117.22,131.55v1.12h1.12C118.4,131.85,118,131.48,117.22,131.55Z"/><path class="cls-2" d="M113.12,139.38c-.5-.12-.71-.53-1.49-.37v1.49C112.82,140.83,112.79,139.93,113.12,139.38Z"/><path class="cls-2" d="M108.65,93.12c-.06.39.29,1,.37.37C109.08,93.1,108.74,92.53,108.65,93.12Z"/><path class="cls-2" d="M125,31.92c-1.05.31-1-.53-1.86-.37C122.82,32.92,125,33,125,31.92Z"/><path class="cls-2" d="M97.48,75.21c.1.1.57-.18.37-.37S97.29,75,97.48,75.21Z"/><path class="cls-2" d="M106,143.11c0,.21.3.42.37,0C106.42,142.91,106.12,142.69,106,143.11Z"/><path class="cls-2" d="M107.16,114.38c-.77-1.77-2.91-1.67-3.35.37C104.41,115.25,107.09,115.56,107.16,114.38Z"/><path class="cls-2" d="M105.67,93.86a.38.38,0,0,0-.75,0C105,94.31,105.34,94.09,105.67,93.86Z"/><path class="cls-2" d="M110.51,162.14h.75v-.75h-.75Z"/><path class="cls-2" d="M112.38,165.5c-.1-.1-.56.18-.37.37S112.57,165.7,112.38,165.5Z"/><path class="cls-2" d="M109.4,158.41v.75c.37,0,.44.3.75.37C110.1,158.95,110.19,158.24,109.4,158.41Z"/><path class="cls-2" d="M113.12,151.7c-.1-.1-.57.18-.37.37S113.31,151.89,113.12,151.7Z"/><path class="cls-2" d="M12.56,192h.75v-.75h-.75Z"/><path class="cls-2" d="M60.61,223.71c.1.1.57-.18.37-.37S60.41,223.52,60.61,223.71Z"/><path class="cls-2" d="M58,204.31c0-.21-.3-.42-.37,0C57.63,204.51,57.93,204.73,58,204.31Z"/><path class="cls-2" d="M64,196.47a.38.38,0,0,0-.75,0C63.29,196.92,63.63,196.7,64,196.47Z"/><path class="cls-2" d="M61.35,212.14c-.59,0-1.29,0-1.12.75A1,1,0,0,0,61.35,212.14Z"/><path class="cls-2" d="M62.1,199.83c.29-.08.73,0,.74-.37C62.55,199.54,62.11,199.47,62.1,199.83Z"/><path class="cls-2" d="M58.75,206.17v.75h.74v-.75Z"/><path class="cls-2" d="M80.72,240.87c.1.1.56-.18.37-.37S80.53,240.68,80.72,240.87Z"/><path class="cls-2" d="M78.48,239.38c-2.39.12,2.93,1.2,2.24-.37C79.4,239.34,79.8,239.05,78.48,239.38Z"/><path class="cls-2" d="M59.86,212.89c-.1-.1-.56.18-.37.37S60.05,213.08,59.86,212.89Z"/><path class="cls-2" d="M81.84,248.34c-.9,1.25,1.25-.9,0,0Z"/><path class="cls-2" d="M78.11,241.62c0,.21.3.42.37,0C78.49,241.41,78.18,241.2,78.11,241.62Z"/><path class="cls-2" d="M63.21,212.89c-.1-.1-.57.18-.37.37S63.41,213.08,63.21,212.89Z"/><path class="cls-2" d="M84.82,170.73c0-.21-.3-.42-.37,0C84.44,170.93,84.75,171.15,84.82,170.73Z"/><path class="cls-2" d="M84.44,174.46c-1.13,1.26,1.38,1.13,0,0Z"/><path class="cls-2" d="M95.24,143.49c-.1-.1-.57.18-.37.37S95.44,143.68,95.24,143.49Z"/><path class="cls-2" d="M84.07,150.58a1,1,0,0,0-1.12.75A1,1,0,0,0,84.07,150.58Z"/><path class="cls-2" d="M83.7,169.23c-.47,0-.52-.48-1.12-.37C82,169.78,83.84,170,83.7,169.23Z"/><path class="cls-2" d="M78.11,171.85c-.29.08-.73,0-.74.37C77.66,172.14,78.1,172.21,78.11,171.85Z"/><path class="cls-2" d="M81.84,172.22c-.9,1.25,1.25-.9,0,0Z"/><path class="cls-2" d="M77,170.35c.1.1.56-.18.37-.37S76.8,170.16,77,170.35Z"/><path class="cls-2" d="M64.7,198.71c0-.21-.3-.42-.37,0C64.33,198.92,64.63,199.13,64.7,198.71Z"/><path class="cls-2" d="M80.35,171.85c-.47-.51-1.82-.58-1.86.37A1.19,1.19,0,0,0,80.35,171.85Z"/><path class="cls-2" d="M66.94,231.55c.33-.06.19-2.06-.37-.75C66.47,231,66.72,231.59,66.94,231.55Z"/><path class="cls-2" d="M66.57,237.14c.1.1.56-.18.37-.37S66.37,236.95,66.57,237.14Z"/><path class="cls-2" d="M94.87,142.74c-.1-.1-.57.18-.37.37S95.06,142.93,94.87,142.74Z"/><path class="cls-2" d="M65.45,237.52c0-.21-.3-.42-.37,0C65.08,237.72,65.38,237.94,65.45,237.52Z"/><path class="cls-2" d="M67.68,223.34c-.1-.1-.56.18-.37.37S67.88,223.53,67.68,223.34Z"/><path class="cls-2" d="M67.31,233.78c.1.1.56-.18.37-.37S67.12,233.59,67.31,233.78Z"/><path class="cls-2" d="M66.94,256.55c.08.45.41.23.74,0A.38.38,0,0,0,66.94,256.55Z"/><path class="cls-2" d="M73.27,219.23c0,.38-.3.44-.37.75.59,0,1.29,0,1.12-.75Z"/><path class="cls-2" d="M69.17,227.07H68.05v1.12C69.06,228.45,68.78,227.42,69.17,227.07Z"/><path class="cls-2" d="M72.15,218.49a.38.38,0,0,0,.74,0C72.48,218.52,72.32,217.94,72.15,218.49Z"/><path class="cls-2" d="M69.17,243.11c-.88-.12-.69-1.3-1.86-1.12-.93-.49-1.17,1.47-1.49.37-.06-1.06,1.26-.73.75-2.24-1.32-.2-.92,1.32-2.24,1.12,0-.46-.11-.88-.74-.75V242c1.33-.6,1,1.13,1.49,1.49.64.48,1.6.25,2.24.75C67.17,242.44,69.1,244.87,69.17,243.11Z"/><path class="cls-2" d="M68.05,247.22c.1.1.57-.18.37-.37S67.86,247,68.05,247.22Z"/><path class="cls-2" d="M66.94,219.61c1.19.33,1.16-.57,1.49-1.12C67.45,218.38,66.83,218.62,66.94,219.61Z"/><path class="cls-2" d="M63.21,221.1c.1.1.57-.18.37-.37S63,220.9,63.21,221.1Z"/><path class="cls-2" d="M65.08,226.32c.1.1.57-.18.37-.37S64.88,226.13,65.08,226.32Z"/><path class="cls-2" d="M65.82,223.34v1.87a1.64,1.64,0,0,0,1.49-.75C66.57,224.5,65.17,222.33,65.82,223.34Z"/><path class="cls-2" d="M62.1,218.86c1,.05,1.07-.91,1.12-1.87C62.06,216.93,61.54,218.31,62.1,218.86Z"/><path class="cls-2" d="M73.27,224.46c-.29.08-.73,0-.74.37C72.81,224.75,73.26,224.82,73.27,224.46Z"/><path class="cls-2" d="M62.1,266.25h.74v-.75H62.1Z"/><path class="cls-2" d="M70.29,256.92c-.29.08-.73,0-.74.37C69.83,257.21,70.28,257.28,70.29,256.92Z"/><path class="cls-2" d="M69.54,245.73c1.13,1-1-1.14,0,0Z"/><path class="cls-2" d="M66.94,216.25c.1.1.56-.18.37-.37S66.75,216.05,66.94,216.25Z"/><path class="cls-2" d="M69.17,229.31c-.9,1.25,1.25-.9,0,0Z"/><path class="cls-2" d="M61.72,220.72c1.09.55,1.09-1.67,0-1.12Z"/><path class="cls-2" d="M167.13,76c-.29.08-.73,0-.74.37C166.67,76.24,167.12,76.32,167.13,76Z"/><path class="cls-2" d="M170.85,73.34c1.07.08,1.89-.09,2.23-.75C172.1,72.6,170.89,72.39,170.85,73.34Z"/><path class="cls-2" d="M179,60.65h.74v-.75H179Z"/><path class="cls-2" d="M179,105.8c.11-1-.52-1.23-1.49-1.12C177.44,105.67,178.07,105.91,179,105.8Z"/><path class="cls-2" d="M173.08,112.89c-1.35,1.76,2.18.5,0,0Z"/><path class="cls-2" d="M231.93,36.69c-.13-.22-.24-.44-.35-.67h-.39v.75h.75Z"/><path class="cls-2" d="M165.63,148c.23.11,1.44.93,1.49,0C166.43,148.32,165.88,146.85,165.63,148Z"/><path class="cls-2" d="M172.71,118.12c.58-.92-1.26-1.1-1.12-.37.23,0,.44.06.37.37Z"/><path class="cls-2" d="M173.46,124.09c-.7.42-1.71.52-1.86,1.49C172.48,125.34,173.33,125.08,173.46,124.09Z"/><path class="cls-2" d="M171.59,78.94c.1.1.56-.18.37-.37S171.4,78.74,171.59,78.94Z"/><path class="cls-2" d="M171.22,123c.42,0,.58.54.74,0A.38.38,0,0,0,171.22,123Z"/><path class="cls-2" d="M174.2,151v.75h1.12C175.37,151,174.95,150.82,174.2,151Z"/><path class="cls-2" d="M229,23.71c-.9,1.25,1.25-.9,0,0Z"/><path class="cls-2" d="M192.45,84.91c0,.21.3.42.37,0C192.82,84.7,192.52,84.48,192.45,84.91Z"/><path class="cls-2" d="M185.75,130.8H185v.75h.74Z"/><path class="cls-2" d="M206.6,129.31a3.15,3.15,0,0,0,.37,3.36,2.56,2.56,0,0,0,.74-.07c.57-.78,1.13-1.56,1.67-2.33C209.27,129.28,208.37,128.52,206.6,129.31Z"/><path class="cls-2" d="M198.41,70c.1.1.56-.18.37-.37S198.22,69.79,198.41,70Z"/><path class="cls-2" d="M122.43,148.71c1.9-.53.71,2,2.61,1.49.4-1.39-.92-1.06-.74-2.24C123.37,147.91,122.49,147.9,122.43,148.71Z"/><path class="cls-2" d="M214.05,17.37h-1.12c-.07.81.31,1.19,1.12,1.12Z"/><path class="cls-2" d="M209.21,10.65c0,.21.3.42.37,0C209.59,10.45,209.28,10.23,209.21,10.65Z"/><path class="cls-2" d="M212.56,62.15c.66-.09,1.86.38,1.49-.75C213.2,61.3,212.65,61.49,212.56,62.15Z"/><path class="cls-2" d="M210.33,29.31c1,.11,1.22-.52,1.12-1.49C210.46,27.71,210.22,28.34,210.33,29.31Z"/><path class="cls-2" d="M193.2,70.36c-.1-.1-.56.18-.37.37S193.39,70.55,193.2,70.36Z"/><path class="cls-2" d="M132.86,137.14c.29-.08.73,0,.74-.37C133.32,136.85,132.87,136.78,132.86,137.14Z"/><path class="cls-2" d="M131.37,134.91c.1.1.57-.18.37-.37S131.18,134.71,131.37,134.91Z"/><path class="cls-2" d="M152.23,158.79c0-.21-.3-.42-.37,0C151.85,159,152.16,159.21,152.23,158.79Z"/><path class="cls-2" d="M134,133c-.29.08-.74,0-.75.37C133.52,133.33,134,133.4,134,133Z"/><path class="cls-2" d="M154.46,180.05c-.1-.1-.56.18-.37.37S154.65,180.25,154.46,180.05Z"/><path class="cls-2" d="M154.09,181.92c.1.1.56-.18.37-.37S153.9,181.73,154.09,181.92Z"/><path class="cls-2" d="M137.7,137.52c.1.1.56-.18.37-.37S137.51,137.32,137.7,137.52Z"/><path class="cls-2" d="M122.8,150.58c.29-.08.73,0,.75-.37C123.26,150.29,122.81,150.21,122.8,150.58Z"/><path class="cls-2" d="M134.35,136.77c.1.1.56-.18.37-.37S134.16,136.58,134.35,136.77Z"/><path class="cls-2" d="M135.84,128.19c-.1-.1-.56.18-.37.37S136,128.38,135.84,128.19Z"/><path class="cls-2" d="M135.47,129.31c.1.1.56-.18.37-.37S135.28,129.12,135.47,129.31Z"/><path class="cls-2" d="M153.79,185.54l.19-.14a1.46,1.46,0,0,0-.27-.12A1.37,1.37,0,0,1,153.79,185.54Z"/><path class="cls-2" d="M143.29,178.19c1.07.57,1.16,0,2.61.37C146.35,177.32,143.38,177.65,143.29,178.19Z"/><path class="cls-2" d="M149.62,173.71c-.1-.1-.57.18-.37.37S149.81,173.9,149.62,173.71Z"/><path class="cls-2" d="M163.4,171.1v.75h1.12C164.57,171.18,164.15,171,163.4,171.1Z"/><path class="cls-2" d="M150,180.8c.1.1.57-.18.37-.37S149.8,180.61,150,180.8Z"/><path class="cls-2" d="M154.09,173.71c-.3,2.26,1.71.25,0,0Z"/><path class="cls-2" d="M166,20v.75c.37,0,.44.3.74.37C166.72,20.52,166.8,19.81,166,20Z"/><path class="cls-2" d="M155.21,170v-1.12a2.09,2.09,0,0,0-1.49.37C153.34,170.36,154.55,169.9,155.21,170Z"/><path class="cls-2" d="M148.5,178.94c1.52-.47,1.47,2.25,2.24.37C149.81,179.19,149.08,177.25,148.5,178.94Z"/><path class="cls-2" d="M154.46,170.73c-.1-.1-.56.18-.37.37S154.65,170.92,154.46,170.73Z"/><path class="cls-2" d="M151.11,180.8c0,1.09.85,1.39,1.49,1.87.17-1.08,1.32-1.17,1.12-2.61C152.17,179.63,152.27,180.84,151.11,180.8Z"/><path class="cls-2" d="M60.61,230.05c.5.12.71.53,1.49.37-.11,1,.14,1.61,1.12,1.49.27-1-.74-.75-.75-1.49a14.33,14.33,0,0,1,3-1.12v-1.86a11.5,11.5,0,0,0-4.1.75C62.08,229.59,61,229,60.61,230.05Z"/><path class="cls-2" d="M1.76,245A1.6,1.6,0,0,0,1,243.09v1.43A.63.63,0,0,0,1.76,245Z"/><path class="cls-2" d="M3.62,217c0,.21.3.42.37,0C4,216.79,3.69,216.57,3.62,217Z"/><path class="cls-2" d="M1.39,212.14c-.07-.07-.31,0-.39.18v.16l0,0C1.12,212.62,1.58,212.34,1.39,212.14Z"/><path class="cls-2" d="M4,257.29c-.1-.1-.56.18-.37.37S4.19,257.48,4,257.29Z"/><path class="cls-2" d="M3.62,192c-.1-.1-.57.18-.37.37S3.82,192.19,3.62,192Z"/><path class="cls-2" d="M9.58,270.72c.29-.08.73,0,.74-.37C10,270.44,9.59,270.36,9.58,270.72Z"/><path class="cls-2" d="M1,242H1v0Z"/><path class="cls-2" d="M11.07,133c-.29.08-.74,0-.75.37C10.62,133.33,11.06,133.4,11.07,133Z"/><path class="cls-2" d="M4.74,261.77c.58-.92-1.26-1.1-1.12-.37.23,0,.44.05.37.37Z"/><path class="cls-2" d="M2.5,259.9c0,.21.3.42.37,0C2.88,259.7,2.58,259.48,2.5,259.9Z"/><path class="cls-2" d="M4.37,250.2c.06,1.18-1,1.25-.74,2.61C4.81,253.14,6,250.28,4.37,250.2Z"/><path class="cls-2" d="M1,238.19v.08H1A.28.28,0,0,0,1,238.19Z"/><path class="cls-2" d="M72.15,227.44v1.12C73.24,229.11,73.24,226.89,72.15,227.44Z"/><path class="cls-2" d="M21.5,227.07c.22.18-.76.27-1.12,0C20.22,228.59,22.35,227.76,21.5,227.07Z"/><path class="cls-2" d="M21.13,207.29c-.48,0-.52-.48-1.12-.37C19.43,207.84,21.28,208,21.13,207.29Z"/><path class="cls-2" d="M21.87,208c-.1-.1-.57.18-.37.37S22.07,208.23,21.87,208Z"/><path class="cls-2" d="M21.13,167.74c-.1-.1-.57.18-.37.37S21.32,167.93,21.13,167.74Z"/><path class="cls-2" d="M7,252.81a.38.38,0,0,0-.74,0C6.31,253.26,6.64,253,7,252.81Z"/><path class="cls-2" d="M6.23,235.65c-1.13,1.26,1.38,1.13,0,0Z"/><path class="cls-2" d="M23.73,209.53c0,.21.3.42.37,0C24.11,209.32,23.8,209.11,23.73,209.53Z"/><path class="cls-2" d="M6.6,228.19c.08-1.33-.25-2.23-1.12-2.61-.19.55-.55.94-.75,1.49C5.73,227.07,5.55,228.25,6.6,228.19Z"/><path class="cls-2" d="M24.11,196.1h-.75v1.49h.75Z"/><path class="cls-2" d="M20.38,243.11H21.5V242h-.75C20.73,242.47,20.28,242.51,20.38,243.11Z"/><path class="cls-2" d="M74,152.44c-.29.08-.74,0-.75.37C73.56,152.73,74,152.81,74,152.44Z"/><path class="cls-2" d="M43.1,100.58a.35.35,0,0,1-.26-.1l-.39.32C42.68,101.09,43,101.14,43.1,100.58Z"/><path class="cls-2" d="M74,175.58c-.1-.1-.57.18-.37.37S74.21,175.77,74,175.58Z"/><path class="cls-2" d="M34.16,259.53c-.25-1.11-.45-2.28-1.49-2.61C32.93,258,33.13,259.2,34.16,259.53Z"/><path class="cls-2" d="M32.3,146.47c.1.1.56-.18.37-.37S32.11,146.28,32.3,146.47Z"/><path class="cls-2" d="M33.42,241.62c1,.26.72-.77,1.12-1.12Q33.32,240.4,33.42,241.62Z"/><path class="cls-2" d="M62.1,184.16c-.1-.1-.56.18-.37.37S62.29,184.35,62.1,184.16Z"/><path class="cls-2" d="M62.84,177.44c-.29.08-.73,0-.74.37C62.38,177.73,62.83,177.81,62.84,177.44Z"/><path class="cls-2" d="M72.52,114c0-.21-.3-.42-.37,0C72.15,114.22,72.45,114.43,72.52,114Z"/><path class="cls-2" d="M70.66,117c.1.1.57-.18.37-.37S70.47,116.8,70.66,117Z"/><path class="cls-2" d="M71,129.68c.1.1.57-.18.37-.37S70.84,129.49,71,129.68Z"/><path class="cls-2" d="M12.19,142v1.12C13.28,143.66,13.28,141.45,12.19,142Z"/><path class="cls-2" d="M11.07,171.85c-1.29.29-1.57-.42-2.23-.75-.48,1.48,1.22.76.74,2.24Q11.33,173.6,11.07,171.85Z"/><path class="cls-2" d="M11.82,133c.29-.08.73,0,.74-.37C12.27,132.75,11.83,132.68,11.82,133Z"/><path class="cls-2" d="M11.82,244.61a2.31,2.31,0,0,0,1.86,0,7,7,0,0,0-1.12-2.24C12.35,243.15,11.64,243.43,11.82,244.61Z"/><path class="cls-2" d="M14.42,244.61c-.1-.1-.56.18-.37.37S14.62,244.8,14.42,244.61Z"/><path class="cls-2" d="M13.31,162.14c-.1-.1-.57.18-.37.37S13.5,162.34,13.31,162.14Z"/><path class="cls-2" d="M15.54,238.26c0-.7,1.23-.26,1.12-1.12-.71-.16-.67-1.07-1.86-.75C14.74,237.32,14.73,238.21,15.54,238.26Z"/><path class="cls-2" d="M15.17,229.68c-.9,1.25,1.25-.9,0,0Z"/><path class="cls-2" d="M17,143.86c-.1-.1-.56.18-.37.37S17.22,144.05,17,143.86Z"/><path class="cls-2" d="M11.44,250.2c0,1.38.54.94,1.49.75a1,1,0,0,0,1.12.75C14,250.34,13,250.06,11.44,250.2Z"/><path class="cls-2" d="M11.82,258.41c-.66,1.44,2,1.46,1.86,1.12C12.8,259.42,13,258.24,11.82,258.41Z"/><path class="cls-2" d="M22.25,151.32c-.77.23-2.59-.6-2.24.75C21,152.06,22.2,152.28,22.25,151.32Z"/><path class="cls-2" d="M59.49,225.95c0,.21.3.42.37,0C59.86,225.74,59.56,225.53,59.49,225.95Z"/><path class="cls-2" d="M58.37,240.87c.1.1.56-.18.37-.37S58.18,240.68,58.37,240.87Z"/><path class="cls-2" d="M59.12,223c.4.75.72,1.39.74.75S57.72,220.36,59.12,223Z"/><path class="cls-2" d="M63.59,218.86c1.12.32,1.72,2.48,1.12,3.36.71-.08.82.42,1.49.37.54-1.21-.74-3.36-1.12-4.85C65,218.51,63.69,218.09,63.59,218.86Z"/><path class="cls-2" d="M61.35,156.92c-.9,1.25,1.25-.9,0,0Z"/><path class="cls-2" d="M31.56,140.13c0,.21.3.42.37,0C31.93,139.92,31.63,139.71,31.56,140.13Z"/><path class="cls-2" d="M27.46,257.29a1,1,0,0,0,1.12-.75c-3.2.47-2.79-2.67-5.21-3-.12.5-.53.71-.37,1.49,2.18.58,2.12,1.58,2.24,3.73C26.92,259.24,26.4,257.48,27.46,257.29Z"/><path class="cls-2" d="M65.08,216.62c-.29.08-.73,0-.74.37C64.62,216.91,65.07,217,65.08,216.62Z"/><path class="cls-2" d="M32.3,240.87c-.1-.1-.57.18-.37.37S32.49,241.07,32.3,240.87Z"/><path class="cls-2" d="M58,212.89c-.1.85.09,1.4.75,1.49C58.66,213.72,59.12,212.51,58,212.89Z"/><path class="cls-2" d="M26,259.53c.29-.08.74,0,.75-.37C26.42,259.24,26,259.17,26,259.53Z"/><path class="cls-2" d="M57.63,211c-.58,0-1.29,0-1.12.75A1,1,0,0,0,57.63,211Z"/><path class="cls-2" d="M74.39,242.74c-.53-.09-.63-.61-1.12-.75a8.49,8.49,0,0,0-.74,2.24C73.56,244.15,73.58,243,74.39,242.74Z"/><path class="cls-2" d="M72.9,255.8h.75v-.75H72.9Z"/><path class="cls-2" d="M75.5,237.14c-.25.87,1.46.81,1.12,0C76.49,236.84,75.63,236.69,75.5,237.14Z"/><path class="cls-2" d="M74.76,240.5c-.59,0-.29-1-1.12-.75C73.32,240.52,74.61,241.43,74.76,240.5Z"/><path class="cls-2" d="M72.15,257.66a.38.38,0,0,0,.74,0C72.48,257.7,72.32,257.12,72.15,257.66Z"/><path class="cls-2" d="M74.76,219.23c-.1-.1-.56.18-.37.37S75,219.43,74.76,219.23Z"/><path class="cls-2" d="M75.13,236a1,1,0,0,0,1.12-.75A1,1,0,0,0,75.13,236Z"/><path class="cls-2" d="M69.17,218.49c-.1-.1-.57.18-.37.37S69.37,218.68,69.17,218.49Z"/><path class="cls-2" d="M71.78,233.41c.3,1.43-.79,1.44-1.49,1.87a3,3,0,0,0,1.86,2.24,5.9,5.9,0,0,1,1.49-2.61c.53-.58,1.94-.29,1.86-1.49C74.41,233.91,73.58,233.17,71.78,233.41Z"/><path class="cls-2" d="M68.43,222.59c1.61-.32,3.23,1.87,1.86,2.24.38-1.25-.52-1.22-1.49-1.12.92,1.52-.7,1.15-1.12,2.24,1.63.28,3-1.13,3.73.37.76-1,.67-1.53.37-3-.59,0-1.29,0-1.12-.75h1.49c-.2-.54.44-1.93-.37-1.87a1,1,0,0,1-.75,1.12c.54-1.41-1-.71-.75-1.86-.46-1.21,1.21-.29.75-1.49-1.3.4-1.63-2.06-2.61-.75a1.87,1.87,0,0,1,1.49,1.87A2.5,2.5,0,0,0,68.43,222.59Z"/><path class="cls-2" d="M29.69,199.83c-.1-.1-.57.18-.37.37S29.89,200,29.69,199.83Z"/><path class="cls-2" d="M25.6,264.38c0-1,.21-2.2-.74-2.24-.06.43-.59.41-1.12.37C23.95,263.55,24.13,264.61,25.6,264.38Z"/><path class="cls-2" d="M25.6,120.35h-.74c0,.37-.3.44-.37.75C25.06,121.06,25.77,121.15,25.6,120.35Z"/><path class="cls-2" d="M26.71,198.71c-.1-.1-.56.18-.37.37S26.91,198.9,26.71,198.71Z"/><path class="cls-2" d="M27.09,186.77h-.75c0,.38-.3.44-.37.75C26.55,187.48,27.26,187.57,27.09,186.77Z"/><path class="cls-2" d="M26.34,231.55v-3c-.55-.44-1.66-.32-1.49-1.49H23c.18,1.59.52,3-.74,1.49v1.49C24.77,228.73,24,231.69,26.34,231.55Z"/><path class="cls-2" d="M26.71,153.56a.38.38,0,0,0-.75,0C26.39,153.53,26.55,154.1,26.71,153.56Z"/><path class="cls-2" d="M21.5,251.32c.47-2-1.9-1.08-1.86-2.61H18.52c.16,1.27,1,2,1.12,3C20.54,251.85,20.45,251,21.5,251.32Z"/><path class="cls-2" d="M22.62,211c-.29.08-.73,0-.74.37C22.16,211.31,22.61,211.39,22.62,211Z"/><path class="cls-2" d="M18.89,245.35c0,.21.3.42.37,0C19.27,245.14,19,244.93,18.89,245.35Z"/><path class="cls-2" d="M21.87,245c.05-.39-.29-1-.37-.37C21.44,245,21.79,245.57,21.87,245Z"/><path class="cls-2" d="M21.5,231.55c.08.45.41.23.74,0A.38.38,0,0,0,21.5,231.55Z"/><path class="cls-2" d="M24.85,185.65c0-.23.05-.44.37-.37,0-.46-.11-.88-.74-.75C24.54,185,24.42,185.59,24.85,185.65Z"/><path class="cls-2" d="M29.69,218.11v.75c.37,0,.44.3.74.37C30.4,218.65,30.49,217.94,29.69,218.11Z"/><path class="cls-2" d="M31.56,259.53H30.44c.08.71-.42.82-.37,1.49C31.23,261.2,31.12,260.09,31.56,259.53Z"/><path class="cls-2" d="M23.36,268.11c1,.27.75-.74,1.49-.75,0-1-.68-1.31-1.12-1.87C23.62,266.38,23.15,266.9,23.36,268.11Z"/><path class="cls-2" d="M31.18,242.74c0,.21.3.42.37,0C31.56,242.53,31.25,242.32,31.18,242.74Z"/><path class="cls-2" d="M26.71,209.53c-.9,1.25,1.25-.9,0,0Z"/><path class="cls-2" d="M20,133.79c.15-1,1.11-1.13,1.12-2.24-1.71-.76-3.63-1-3.35,1.87C18.91,133.14,19.13,133.8,20,133.79Z"/><path class="cls-2" d="M28.95,182.67c-1-.11-1.22.52-1.12,1.49C28.81,184.27,29.05,183.64,28.95,182.67Z"/><path class="cls-2" d="M28.95,244.61c1-.3-.24-2.1-.75-.75C28.12,244.09,28.77,244.66,28.95,244.61Z"/><path class="cls-2" d="M27.83,189.38c-.29.08-.73,0-.74.37C27.38,189.67,27.82,189.75,27.83,189.38Z"/><path class="cls-2" d="M28.2,209.9c.29-.08.73,0,.75-.37C28.66,209.62,28.21,209.54,28.2,209.9Z"/></g></g></svg>